<svg width="29" height="30" viewBox="0 0 29 30" fill="none" xmlns="http://www.w3.org/2000/svg">
<path d="M9.51862 24.156C9.51862 24.28 9.38666 24.3793 9.22027 24.3793C9.03093 24.3979 8.89897 24.2986 8.89897 24.156C8.89897 24.0319 9.03093 23.9326 9.19732 23.9326C9.36945 23.914 9.51862 24.0133 9.51862 24.156ZM7.73424 23.8768C7.69408 24.0009 7.80883 24.1435 7.98096 24.1808C8.13013 24.2428 8.30226 24.1808 8.33669 24.0567C8.37111 23.9326 8.2621 23.79 8.08997 23.7341C7.94079 23.6907 7.7744 23.7527 7.73424 23.8768ZM10.2702 23.7713C10.1039 23.8148 9.98911 23.9326 10.0063 24.0753C10.0235 24.1994 10.1727 24.28 10.3448 24.2366C10.5112 24.1932 10.626 24.0753 10.6088 23.9512C10.5915 23.8334 10.4366 23.7527 10.2702 23.7713ZM14.0456 0C6.08756 0 0 6.53216 0 15.1362C0 22.0158 4.00482 27.9028 9.72518 29.9747C10.4596 30.1174 10.7178 29.6273 10.7178 29.2241C10.7178 28.8395 10.7006 26.718 10.7006 25.4152C10.7006 25.4152 6.68427 26.3457 5.84084 23.5666C5.84084 23.5666 5.18676 21.7614 4.2458 21.2962C4.2458 21.2962 2.9319 20.3223 4.3376 20.3409C4.3376 20.3409 5.76626 20.4649 6.5523 21.9414C7.80883 24.3359 9.91452 23.6473 10.735 23.2379C10.867 22.2453 11.2399 21.5567 11.653 21.1473C8.4457 20.7627 5.20971 20.2602 5.20971 14.2926C5.20971 12.5867 5.64577 11.7306 6.56378 10.6388C6.4146 10.2356 5.92691 8.57307 6.71295 6.4267C7.91211 6.02348 10.6719 8.10161 10.6719 8.10161C11.8194 7.75422 13.053 7.57433 14.2751 7.57433C15.4972 7.57433 16.7307 7.75422 17.8783 8.10161C17.8783 8.10161 20.638 6.01728 21.8372 6.4267C22.6232 8.57927 22.1355 10.2356 21.9864 10.6388C22.9044 11.7368 23.4667 12.5929 23.4667 14.2926C23.4667 20.2788 20.0872 20.7565 16.8799 21.1473C17.4078 21.6374 17.8553 22.5679 17.8553 24.0257C17.8553 26.1162 17.8381 28.703 17.8381 29.2117C17.8381 29.6149 18.102 30.105 18.8307 29.9623C24.5683 27.9028 28.4583 22.0158 28.4583 15.1362C28.4583 6.53216 22.0036 0 14.0456 0ZM5.57692 21.3955C5.50233 21.4575 5.51954 21.6002 5.61708 21.718C5.70888 21.8173 5.84084 21.8607 5.91543 21.7801C5.99002 21.718 5.97281 21.5753 5.87527 21.4575C5.78347 21.3582 5.6515 21.3148 5.57692 21.3955ZM4.95726 20.893C4.9171 20.9736 4.97447 21.0729 5.08922 21.1349C5.18102 21.1969 5.29577 21.1783 5.33594 21.0915C5.3761 21.0108 5.31873 20.9116 5.20397 20.8496C5.08922 20.8123 4.99742 20.8309 4.95726 20.893ZM6.81623 23.1014C6.72443 23.182 6.75885 23.3681 6.89082 23.486C7.02278 23.6287 7.18917 23.6473 7.26376 23.548C7.33835 23.4674 7.30392 23.2813 7.18917 23.1634C7.06295 23.0207 6.89082 23.0021 6.81623 23.1014ZM6.16215 22.1895C6.07035 22.2515 6.07035 22.4128 6.16215 22.5555C6.25395 22.6982 6.40886 22.7602 6.48345 22.6982C6.57525 22.6175 6.57525 22.4562 6.48345 22.3136C6.40313 22.1709 6.25395 22.1088 6.16215 22.1895Z" fill="white"/>
</svg>
