<svg width="180" height="180" viewBox="0 0 180 180" fill="none" xmlns="http://www.w3.org/2000/svg">
<g opacity="0.75">
<g opacity="0.75">
<rect opacity="0.75" x="17.0068" y="124.728" width="0.171345" height="0.171379"/>
</g>
</g>
<path d="M155.181 70.8669C155.181 106.984 125.902 136.263 89.7854 136.263C53.6683 136.263 24.3896 106.984 24.3896 70.8669C24.3896 34.7499 53.6683 5.47119 89.7854 5.47119C125.902 5.47119 155.181 34.7499 155.181 70.8669Z" fill="url(#paint0_radial)"/>
<rect x="15.9961" y="13.5242" width="0.171344" height="0.171348"/>
<path d="M42.8467 47.65C42.8467 47.65 43.2583 47.5069 43.9809 47.3149C44.1616 47.2674 44.3614 47.215 44.5796 47.1583C44.7893 47.0804 45.0153 47.0166 45.2534 46.9401C45.7316 46.7892 46.2565 46.6333 46.8304 46.4087C47.1159 46.3088 47.4128 46.2047 47.7203 46.097C48.0199 45.973 48.3295 45.8441 48.6476 45.7123C49.2909 45.4799 49.9257 45.1356 50.5974 44.8395C51.2428 44.4867 51.9293 44.1657 52.5697 43.7527C52.8928 43.5522 53.218 43.3503 53.5453 43.1476L54.4812 42.4788C54.8092 42.2755 55.077 42.002 55.3781 41.7697L55.8216 41.4119C55.9654 41.29 56.0937 41.1526 56.2297 41.0251C56.4911 40.7587 56.7816 40.5199 57.031 40.2521C57.2719 39.9779 57.5085 39.7045 57.755 39.443C58.0129 39.188 58.1773 38.8791 58.4019 38.6141C58.6144 38.3407 58.8298 38.0736 58.9885 37.7859C59.1663 37.5032 59.3392 37.2291 59.5064 36.9634C59.6792 36.697 59.7834 36.4122 59.9258 36.1515C60.0583 35.8872 60.2014 35.6343 60.3119 35.3849C60.4132 35.1292 60.5089 34.8862 60.5988 34.6587C60.6924 34.4278 60.7696 34.2089 60.8624 34.0062C60.9325 33.8015 60.9814 33.6081 61.0345 33.4338C61.2414 32.7338 61.3959 32.313 61.3959 32.313C61.3959 32.313 61.4979 32.7253 61.6141 33.4827C61.6396 33.6718 61.6778 33.8837 61.7019 34.1146C61.7118 34.3449 61.6998 34.5928 61.6984 34.8614C61.6934 35.1327 61.6878 35.4218 61.6821 35.7264C61.6637 36.0303 61.5879 36.3399 61.5376 36.6729C61.471 37.0009 61.4256 37.3566 61.3193 37.703C61.201 38.0488 61.0792 38.4066 60.9545 38.7742C60.8418 39.1526 60.647 39.4997 60.4642 39.8674C60.2722 40.2273 60.0994 40.6198 59.8528 40.9648C59.6169 41.3191 59.3633 41.6712 59.1068 42.0297C58.8454 42.3832 58.5329 42.6971 58.234 43.03C57.9392 43.3701 57.6155 43.6811 57.2662 43.9659C56.9176 44.25 56.5974 44.5795 56.2205 44.8253L55.1061 45.5855C54.7277 45.8242 54.3253 46.0155 53.9399 46.2288C53.5588 46.4512 53.1563 46.6206 52.7561 46.7771C52.3558 46.9344 51.9718 47.1151 51.5722 47.232C50.7731 47.4686 50.01 47.7088 49.2576 47.8172C48.8836 47.8774 48.5244 47.9504 48.173 47.9929C47.8194 48.0177 47.4772 48.0411 47.1492 48.0644C46.5024 48.1225 45.8853 48.0786 45.3532 48.0481C45.0869 48.0311 44.8403 48.0248 44.6136 47.9993C44.3919 47.9603 44.1885 47.9249 44.0043 47.893C43.2682 47.7598 42.8467 47.65 42.8467 47.65Z" fill="#6A0000"/>
<path d="M136.808 47.65C136.808 47.65 136.397 47.5069 135.674 47.3149C135.493 47.2674 135.294 47.215 135.075 47.1583C134.866 47.0804 134.64 47.0166 134.402 46.9401C133.923 46.7892 133.398 46.6333 132.825 46.4087C132.539 46.3088 132.242 46.2047 131.935 46.097C131.635 45.973 131.325 45.8441 131.007 45.7123C130.364 45.4799 129.729 45.1356 129.058 44.8395C128.412 44.4867 127.726 44.1657 127.085 43.7527C126.762 43.5522 126.437 43.3503 126.11 43.1476L125.174 42.4788C124.846 42.2755 124.578 42.002 124.277 41.7697L123.833 41.4119C123.69 41.29 123.561 41.1526 123.425 41.0251C123.164 40.7587 122.873 40.5199 122.624 40.2521C122.383 39.9779 122.147 39.7045 121.9 39.443C121.642 39.188 121.478 38.8791 121.253 38.6141C121.041 38.3407 120.825 38.0736 120.667 37.7859C120.489 37.5032 120.316 37.2291 120.149 36.9634C119.976 36.697 119.872 36.4122 119.729 36.1515C119.597 35.8872 119.454 35.6343 119.343 35.3849C119.242 35.1292 119.146 34.8862 119.056 34.6587C118.963 34.4278 118.885 34.2089 118.793 34.0062C118.723 33.8015 118.674 33.6081 118.62 33.4338C118.414 32.7338 118.259 32.313 118.259 32.313C118.259 32.313 118.157 32.7253 118.041 33.4827C118.015 33.6718 117.977 33.8837 117.953 34.1146C117.943 34.3449 117.955 34.5928 117.957 34.8614C117.962 35.1327 117.967 35.4218 117.973 35.7264C117.991 36.0303 118.067 36.3399 118.117 36.6729C118.184 37.0009 118.229 37.3566 118.336 37.703C118.454 38.0488 118.576 38.4066 118.701 38.7742C118.813 39.1526 119.008 39.4997 119.191 39.8674C119.383 40.2273 119.556 40.6198 119.802 40.9648C120.038 41.3191 120.292 41.6712 120.548 42.0297C120.81 42.3832 121.122 42.6971 121.421 43.03C121.716 43.3701 122.04 43.6811 122.389 43.9659C122.737 44.25 123.057 44.5795 123.435 44.8253L124.549 45.5855C124.927 45.8242 125.33 46.0155 125.715 46.2288C126.096 46.4512 126.499 46.6206 126.899 46.7771C127.299 46.9344 127.683 47.1151 128.083 47.232C128.882 47.4686 129.645 47.7088 130.397 47.8172C130.771 47.8774 131.131 47.9504 131.482 47.9929C131.836 48.0177 132.178 48.0411 132.506 48.0644C133.153 48.1225 133.77 48.0786 134.302 48.0481C134.568 48.0311 134.815 48.0248 135.041 47.9993C135.263 47.9603 135.466 47.9249 135.651 47.893C136.387 47.7598 136.808 47.65 136.808 47.65Z" fill="#6A0000"/>
<path d="M74.797 111.545C74.797 111.545 74.7878 111.38 74.8083 111.072C74.8352 110.766 74.8657 110.308 74.9791 109.741C75.1966 108.607 75.6649 106.984 76.7084 105.208C77.232 104.325 77.8958 103.404 78.7368 102.531C79.5777 101.66 80.5894 100.829 81.7556 100.143C82.3337 99.7919 82.9543 99.4851 83.5997 99.2209C84.2423 98.9474 84.9132 98.7186 85.6019 98.5471C86.9749 98.1801 88.4088 98.0179 89.8187 98.0002L89.8853 97.998L90.0171 98.0002L90.134 98.0051L90.3692 98.0143L90.8382 98.0335L91.0734 98.0434L91.3554 98.0689L91.9172 98.122C92.3005 98.1518 92.6448 98.2134 92.9948 98.2793C93.3454 98.336 93.6919 98.4175 94.0362 98.5053C94.3819 98.5832 94.722 98.681 95.0578 98.7915C95.3943 98.8971 95.7238 99.0197 96.0461 99.1564C96.372 99.2811 96.6887 99.4228 96.9983 99.5765C97.3129 99.7161 97.6097 99.8882 97.9016 100.06C99.0763 100.736 100.098 101.561 100.946 102.429C101.794 103.301 102.467 104.219 102.991 105.105C104.037 106.886 104.498 108.515 104.707 109.651C104.816 110.22 104.844 110.678 104.867 110.984C104.885 111.292 104.874 111.458 104.874 111.458C104.874 111.458 104.78 111.325 104.604 111.076C104.434 110.828 104.157 110.48 103.819 110.048C103.133 109.191 102.125 108.02 100.809 106.872C99.4964 105.72 97.8605 104.629 95.9958 103.909C95.7642 103.816 95.5261 103.735 95.2852 103.657C95.0479 103.571 94.8056 103.494 94.5562 103.433C94.3118 103.36 94.0617 103.3 93.806 103.253C93.5559 103.189 93.3015 103.134 93.0415 103.096C92.7836 103.049 92.525 103.006 92.2587 102.984C91.9951 102.959 91.7259 102.913 91.4857 102.903L91.1152 102.874L90.9296 102.858L90.6965 102.854L89.8385 102.841C88.7432 102.831 87.6734 102.943 86.6419 103.121C86.3805 103.156 86.1332 103.231 85.8789 103.283C85.6217 103.328 85.378 103.406 85.13 103.472C84.6369 103.611 84.1608 103.783 83.6918 103.962C81.8278 104.699 80.1948 105.808 78.8806 106.965C77.5628 108.118 76.5504 109.287 75.8604 110.141C75.5196 110.571 75.2412 110.918 75.069 111.165C74.8919 111.413 74.797 111.545 74.797 111.545Z" fill="#6A0000"/>
<rect width="0.18018" height="0.18018"/>
<path d="M52.4948 87.5911C52.5613 91.0482 55.4208 93.8192 58.8976 93.7523C62.3745 93.6855 65.1253 90.8066 65.0589 87.3495C64.992 83.8727 58.4817 72.1208 58.4817 72.1208C58.4817 72.1208 52.428 84.1142 52.4948 87.5911Z" fill="url(#paint1_radial)"/>
<path d="M115.487 87.1834C115.552 90.5501 118.337 93.2487 121.722 93.1836C125.108 93.1185 127.787 90.3149 127.723 86.9482C127.658 83.5622 121.318 72.1176 121.318 72.1176C121.318 72.1176 115.422 83.7975 115.487 87.1834Z" fill="url(#paint2_radial)"/>
<circle cx="109.8" cy="63" r="8.1" fill="#6A0000"/>
<ellipse cx="70.2001" cy="63" rx="8.1" ry="8.1" fill="#6A0000"/>
<defs>
<radialGradient id="paint0_radial" cx="0" cy="0" r="1" gradientUnits="userSpaceOnUse" gradientTransform="translate(113.148 41.3753) rotate(137.726) scale(101.863)">
<stop stop-color="#FFFFA6"/>
<stop offset="0.17" stop-color="#FFF98A"/>
<stop offset="0.84" stop-color="#EB9708"/>
<stop offset="1" stop-color="#FA8308"/>
</radialGradient>
<radialGradient id="paint1_radial" cx="0" cy="0" r="1" gradientUnits="userSpaceOnUse" gradientTransform="translate(57.896 73.3986) rotate(85.3041) scale(19.7585)">
<stop stop-color="#BDDEE4"/>
<stop offset="0.81" stop-color="#2FA7BF"/>
<stop offset="1" stop-color="#2591D1"/>
</radialGradient>
<radialGradient id="paint2_radial" cx="0" cy="0" r="1" gradientUnits="userSpaceOnUse" gradientTransform="translate(120.747 73.362) rotate(85.3041) scale(19.2419)">
<stop stop-color="#BDDEE4"/>
<stop offset="0.81" stop-color="#2FA7BF"/>
<stop offset="1" stop-color="#2591D1"/>
</radialGradient>
</defs>
</svg>
