<svg width="30" height="30" viewBox="0 0 30 30" fill="none" xmlns="http://www.w3.org/2000/svg">
<path d="M14.9907 7.30838C10.9528 7.30838 7.69592 10.7425 7.69592 15C7.69592 19.2575 10.9528 22.6916 14.9907 22.6916C19.0285 22.6916 22.2854 19.2575 22.2854 15C22.2854 10.7425 19.0285 7.30838 14.9907 7.30838ZM14.9907 20.0006C12.3813 20.0006 10.2481 17.758 10.2481 15C10.2481 12.242 12.375 9.99944 14.9907 9.99944C17.6063 9.99944 19.7332 12.242 19.7332 15C19.7332 17.758 17.6 20.0006 14.9907 20.0006ZM24.2853 6.99375C24.2853 7.99119 23.5234 8.7878 22.5838 8.7878C21.6378 8.7878 20.8823 7.98449 20.8823 6.99375C20.8823 6.00301 21.6442 5.19971 22.5838 5.19971C23.5234 5.19971 24.2853 6.00301 24.2853 6.99375ZM29.1167 8.81457C29.0087 6.41136 28.4881 4.28261 26.8184 2.52873C25.155 0.774852 23.1361 0.225929 20.8569 0.105433C18.5079 -0.0351445 11.4671 -0.0351445 9.11804 0.105433C6.84518 0.219235 4.82627 0.768158 3.15655 2.52203C1.48682 4.27591 0.972572 6.40466 0.858294 8.80788C0.72497 11.2847 0.72497 18.7086 0.858294 21.1854C0.966223 23.5886 1.48682 25.7174 3.15655 27.4713C4.82627 29.2251 6.83883 29.7741 9.11804 29.8946C11.4671 30.0351 18.5079 30.0351 20.8569 29.8946C23.1361 29.7808 25.155 29.2318 26.8184 27.4713C28.4818 25.7174 29.0024 23.5886 29.1167 21.1854C29.25 18.7086 29.25 11.2914 29.1167 8.81457ZM26.082 23.843C25.5868 25.1551 24.6281 26.1659 23.3774 26.6947C21.5045 27.478 17.0604 27.2972 14.9907 27.2972C12.921 27.2972 8.47047 27.4713 6.60393 26.6947C5.35957 26.1726 4.40091 25.1618 3.89935 23.843C3.15655 21.8682 3.32797 17.1823 3.32797 15C3.32797 12.8177 3.1629 8.12507 3.89935 6.15698C4.39456 4.84492 5.35322 3.8341 6.60393 3.30525C8.47682 2.52203 12.921 2.70278 14.9907 2.70278C17.0604 2.70278 21.5108 2.52873 23.3774 3.30525C24.6217 3.8274 25.5804 4.83822 26.082 6.15698C26.8248 8.13176 26.6533 12.8177 26.6533 15C26.6533 17.1823 26.8248 21.8749 26.082 23.843Z" fill="white"/>
</svg>
