<svg width="88" height="64" viewBox="0 0 88 64" fill="none" xmlns="http://www.w3.org/2000/svg">
<path d="M68.5992 22.8149C57.2973 12.8994 47.4816 6.75565 43.9868 4.92554L44.4174 6.39146L43.3202 9.65457L40.1657 12.3247L36.8342 18.2726L44.4174 25.8749L55.2575 30.8711L68.5992 22.8149Z" fill="#CB8740"/>
<path d="M17.9236 18.6624C13.7889 21.9969 1.1847 29.3394 0 29.6615L7.98594 52.538C8.6493 52.7247 18.1803 49.0461 18.7677 48.574C20.3671 47.5363 23.008 47.8291 24.1285 48.1055C33.2042 52.2507 38.612 54.2766 40.1814 54.7708C42.1484 55.0709 44.0616 54.0625 44.7716 53.5226C44.2039 52.7851 38.6016 50.2174 35.8725 49.026C32.7684 48.164 31.666 46.6578 31.5028 46.0136C30.9698 44.2274 29.5237 42.002 28.8675 41.1107C26.0238 38.0636 26.3988 35.7411 26.9421 34.9597C32.3327 29.8152 37.7284 36.9179 39.7526 41.1107C42.0859 39.8498 45.8185 41.065 47.3931 41.83C52.0614 40.4427 63.5542 27.4836 68.7173 21.1752C69.8562 17.0043 66.5663 16.1808 64.7782 16.2888C59.6602 20.6975 54.0666 25.5785 51.9104 27.4672C52.3479 26.6674 58.7574 19.6818 61.9067 16.2888C63.1028 11.6183 59.4224 10.9393 57.4346 11.1846C52.636 15.694 48.8601 18.538 47.5702 19.3963C49.8219 17.1361 53.7905 12.709 55.4936 10.7783C55.8495 6.53236 53.0162 6.16818 51.5545 6.51774C46.591 10.0133 42.6536 12.5334 41.3064 13.3551C48.4035 7.92144 50.2559 6.11693 50.2958 5.89183C48.8983 3.7579 46.3567 4.05621 45.2612 4.47165C34.2545 7.43096 22.4502 15.1651 17.9236 18.6624Z" fill="#EFA963"/>
<path d="M51.2437 53.1787C60.4484 51.0685 75.7172 55.104 78.8178 56.4729L87.0642 33.6804C83.6632 33.4315 74.1131 28.5396 73.8856 28.1077C72.3943 25.8475 69.3944 23.3567 68.0819 22.394C60.3095 31.8357 51.2194 39.1397 47.6448 41.6104C44.565 40.0255 41.0894 40.3257 39.737 40.6752C38.6589 37.9886 35.0826 34.8938 33.4281 33.6804C27.4456 31.757 26.1765 35.2214 26.2911 37.1925C27.89 40.3659 29.8049 42.9958 30.6156 43.953C31.5618 47.3241 33.0132 48.0269 33.6954 48.1989C39.7127 50.9093 43.2126 52.6424 43.973 53.1787C47.3601 54.4652 50.2316 53.7149 51.2437 53.1787Z" fill="#FFB37F"/>
<path d="M32.8361 39.956C32.0306 41.1931 30.0428 41.3981 29.1487 41.345C27.5498 39.46 26.6661 37.6244 26.4248 36.9436C26.5186 34.3448 29.0498 35.1427 30.3032 35.8656C31.2285 36.4403 32.3778 38.8323 32.8361 39.956Z" fill="#FFD1B7"/>
<path d="M39.4264 41.6269C34.9959 33.309 29.2964 33.223 27.3867 34.1326C32.437 30.4962 37.8865 36.6307 39.7823 40.6734C42.1868 39.9633 45.8985 40.6588 47.3186 41.4384L47.7335 42.4688C42.6399 40.8326 40.0722 41.2261 39.4264 41.6269Z" fill="#EC9D52"/>
<path d="M47.3184 41.4712L47.7038 42.4851C48.9711 41.4859 53.2384 37.9885 55.2123 36.3652C60.497 31.4696 66.417 25.3022 68.7173 22.8315L68.1114 22.2532L59.122 31.854C55.0491 36.0376 49.8617 40.0913 47.3184 41.4712Z" fill="#CB8740"/>
<path d="M65.1932 38.3804C60.728 35.6076 56.5805 36.2463 55.0649 36.9125L53.9087 37.4122L55.9382 35.7247C60.9849 34.1526 64.2123 36.8393 65.1932 38.3804Z" fill="#F19B52"/>
<path d="M23.9211 16.0875C23.6723 17.7602 20.3374 19.3652 19.4192 19.6616C22.9022 19.8611 24.7841 16.6017 24.5723 15.2438C22.6653 12.3961 21.0186 11.9862 20.5152 12.1381C21.8774 12.3742 23.4078 14.8686 23.9211 16.0875Z" fill="#ED9951"/>
<path d="M38.8483 9.17149C38.508 12.3248 37.0428 13.0587 35.9751 13.2618C39.3292 13.9975 39.7667 10.4617 39.5011 8.65538C38.8726 6.95703 36.5827 4.59616 35.4126 4.53394C37.2962 5.88274 38.6261 7.9691 38.8483 9.17149Z" fill="#ED9951"/>
<path d="M31.8588 12.8702C31.5984 15.2183 28.5655 16.4719 27.0759 16.6494C29.0898 16.6494 30.5516 16.1187 31.029 15.8533C32.7703 14.9291 32.8206 12.8757 32.6297 11.9661C32.1436 10.9907 30.2894 8.6719 27.904 8.00024C29.8953 9.64919 31.9179 12.1583 31.8588 12.8702Z" fill="#ED9951"/>
<path d="M43.6623 5.82966C43.8637 7.65613 42.4228 8.98846 41.6763 9.03055C44.3897 9.34351 44.7421 7.04852 44.4765 5.82966C43.789 4.08188 41.9888 2.9106 41.4106 2.58301C41.9384 3.12473 43.454 3.95011 43.6623 5.82966Z" fill="#ED9951"/>
<path d="M22.5588 13.3552C21.8481 12.1308 22.1245 11.2102 22.3515 10.9045L23.6547 13.5107C23.3191 13.4595 22.63 13.3552 22.5588 13.3552Z" fill="#ED9951"/>
<path d="M30.8639 10.7326C30.1521 9.50826 29.1192 7.57933 30.008 6.12622L31.9593 10.8882C31.6242 10.8369 30.935 10.7326 30.8639 10.7326Z" fill="#ED9951"/>
<path d="M38.152 8.04781C37.4419 6.82347 35.9315 5.34656 37.2961 3.44141L39.2474 8.20337C38.9124 8.1503 38.2232 8.04781 38.152 8.04781Z" fill="#ED9951"/>
<path d="M23.9655 16.0876C23.6219 18.0971 20.7717 19.3087 19.3896 19.6619C17.1742 18.2874 16.3933 16.8837 16.2798 16.353C15.6874 14.0544 18.2344 12.7001 19.5821 12.3084C21.4302 11.3842 23.2744 14.4423 23.9655 16.0876Z" fill="#FFB37F"/>
<path d="M22.2921 12.1692C23.3464 14.241 25.0115 15.7801 25.7129 16.2889C26.6955 16.8013 28.2649 16.503 28.9263 16.2889C32.5513 14.3544 32.1346 12.1637 31.4732 11.309C28.6538 7.32481 26.0931 7.38155 25.1643 7.9068C22.452 8.89325 22.1194 11.159 22.2921 12.1692Z" fill="#FFB37F"/>
<path d="M37.6486 12.4803C35.9195 14.067 33.7997 12.9543 32.9542 12.2003C31.4977 10.813 30.522 9.33245 30.2147 8.76511C28.9717 6.39142 30.7338 4.93464 31.7702 4.50273C34.5185 2.6305 37.2493 5.81494 38.2719 7.64142C39.6226 9.29038 38.4194 11.5543 37.6486 12.4803Z" fill="#FFB37F"/>
<path d="M42.3135 3.37914C44.3395 5.15257 43.6711 7.40733 43.0843 8.31326C41.9941 9.62366 40.1521 8.85865 39.3674 8.31326C38.3605 7.37622 37.6348 6.22504 37.397 5.76749C36.4491 4.60534 37.2598 3.3279 37.7824 2.83192C39.5705 1.09692 41.5496 2.47321 42.3135 3.37914Z" fill="#FFB37F"/>
<path d="M22.6332 15.6501C22.3488 18.0971 19.9971 18.4284 18.8569 18.2874C17.7906 18.0513 17.8696 16.0345 18.0423 15.0571C18.5399 14.2189 19.9379 13.8639 20.5747 13.7925C21.2381 13.9041 22.2235 15.0773 22.6332 15.6501Z" fill="#FFD1B7"/>
<path d="M30.5548 12.2315C30.2232 15.1652 27.7615 15.4416 26.5722 15.2128C25.6712 14.8633 24.8743 13.5163 24.5879 12.8867C24.7771 10.0775 27.2042 9.82126 28.3934 10.0445C29.317 10.4581 30.2197 11.6733 30.5548 12.2315Z" fill="#FFD1B7"/>
<path d="M37.5305 8.6242C37.1989 10.8094 35.1816 11.5433 34.2128 11.6384C32.4716 11.0253 31.9768 9.60333 31.9473 8.96827C32.3622 7.15644 34.4906 6.79772 35.501 6.8453C36.5323 7.04478 37.284 8.11543 37.5305 8.6242Z" fill="#FFD1B7"/>
<path d="M42.6849 6.09506C42.5895 7.93066 41.0357 8.34977 40.27 8.32781C38.9437 7.72936 38.4333 6.34028 38.3447 5.72171C38.6294 4.14781 40.0825 4.01421 40.7735 4.14415C41.6277 4.35644 42.4037 5.53321 42.6849 6.09506Z" fill="#FFD1B7"/>
<path d="M0 29.8445C0.347215 40.3128 5.46863 49.3354 7.98594 52.5381C9.288 47.8401 11.7706 38.135 11.2845 36.8905C10.7984 35.646 3.55895 31.6746 0 29.8445Z" fill="#EFA963"/>
<path d="M15.3457 3.87695L70.3788 61.8918" stroke="#6C63FF" stroke-width="5.5"/>
<path d="M15.3457 60.2053L70.3794 2.19019" stroke="#6C63FF" stroke-width="5.5"/>
</svg>
