<svg width="58" height="85" viewBox="0 0 58 85" fill="none" xmlns="http://www.w3.org/2000/svg">
<path d="M47.1094 40.9562L50.9531 40.0662C50.7752 40.4688 50.5236 41.3757 50.9531 41.7824C51.3826 42.1893 55.1251 41.401 56.9429 40.9562" stroke="#003F3D" stroke-width="0.5"/>
<path d="M42.4824 38.2204L44.9134 37.6272C44.8006 37.8956 44.6415 38.5 44.9134 38.7713C45.1852 39.0425 47.5511 38.5171 48.7007 38.2204" stroke="#003F3D" stroke-width="0.5"/>
<path d="M5.39279 58.6722C2.28786 61.7527 1.15658 69.4754 0.979004 72.9518V77.3385C9.05301 82.8772 31.3905 90.7383 56.1477 77.872C55.0154 75.5346 52.4312 69.2437 51.1587 62.7801C50.894 59.0453 48.4834 51.6517 40.9637 51.9566L24.0443 52.2615L17.7205 50.7302C17.2346 51.6287 13.5355 53.8321 11.7091 54.8215C9.27398 55.6558 6.48358 57.7362 5.39279 58.6722Z" fill="url(#paint0_linear)"/>
<path d="M47.1099 62.0181C46.6472 58.4204 43.447 57.4702 41.904 57.4448L37.1318 56.7588L31.709 83.1316L32.3597 84.656C39.6625 84.3511 47.1345 81.912 50.7252 80.3876L47.1099 62.0181Z" fill="url(#paint1_linear)"/>
<path d="M19.2431 37.1726C19.2431 41.2159 19.4961 46.3982 19.6234 48.4841C20.5966 51.7571 24.4938 52.736 26.3202 52.8162L40.855 38.2155C42.1941 35.2634 42.3271 25.8613 42.2244 21.5293C43.6864 19.989 43.5433 15.9672 43.2902 14.1488C44.3256 13.0578 44.6351 11.2339 44.6597 10.4584C44.5382 2.88547 37.7603 0.617866 34.3866 0.430664C24.7064 0.430664 20.5619 5.72536 19.7 8.3727C14.4029 9.14285 13.839 13.2395 14.2207 15.1917C14.2207 15.8335 15.9445 21.5026 16.8078 24.2568C15.1636 25.0269 14.7529 26.931 14.7529 27.7866C14.9351 31.0598 16.7572 31.8779 17.6451 31.8779C18.802 33.3541 19.1924 36.0229 19.2431 37.1726Z" fill="#040047"/>
<path d="M20.2325 30.9151V49.4465C20.9021 51.3077 24.1645 52.5752 25.7118 52.9763L26.3206 52.6554L29.5165 51.9335L40.2466 37.333C41.4034 35.6002 41.5408 21.7966 41.4642 15.1115C33.8548 17.2292 26.6243 15.0846 23.962 13.7476C23.5354 15.8013 21.1971 16.8496 20.0807 17.117C20.3844 17.8872 20.5622 23.2138 20.6129 25.781C20.4914 26.1661 20.3092 26.1019 20.2325 26.0215C19.2579 24.8021 18.0504 24.7113 17.5688 24.8183C15.2551 25.4601 15.3375 28.0271 15.6672 29.2305C17.1885 32.2469 18.9383 31.3966 19.6237 30.5942C19.9896 30.4659 20.1819 30.7548 20.2325 30.9151Z" fill="white"/>
<path d="M37.0506 17.4381C33.6407 18.1439 29.9474 16.2882 28.5273 15.272C33.9459 16.6839 39.3586 15.8603 41.3889 15.272C41.6318 31.5091 40.6774 36.745 40.1713 37.3333C39.8662 36.884 38.9276 36.3972 38.4967 36.21C38.5574 35.055 38.0137 34.4452 37.7361 34.2848C38.1005 33.5147 37.7867 33.1081 37.5828 33.0012C36.4881 32.6804 36.1121 32.2258 36.0615 32.0386C36.0615 31.3968 36.8728 31.1294 37.2791 31.0759C40.3231 30.1774 39.2067 28.7761 38.2682 28.1878L38.8004 27.1449C39.9573 25.733 39.7389 24.8987 39.4859 24.658L37.5828 23.214L37.0506 17.4381Z" fill="#E3E2FF"/>
<path d="M25.7882 52.8158C26.397 51.789 26.9031 49.607 27.081 48.6444C27.6898 42.2907 28.0962 39.9536 28.2234 39.5793C29.1359 35.0868 31.6984 33.108 32.8654 32.6801C34.8133 32.5517 36.2132 33.8033 36.6701 34.4451L39.7142 38.6165L41.007 45.4354C41.1299 50.313 41.9209 59.1802 42.3012 63.0041C42.5442 65.5712 41.6924 66.9083 41.2355 67.2559C40.3837 66.5499 38.3447 66.32 37.4308 66.2932L35.3007 66.4537H26.1685C21.2373 66.903 21.0695 63.2715 21.6017 61.3996C21.9676 59.4744 23.1751 57.1746 23.7333 56.2655C24.1642 55.5435 25.1794 53.8427 25.7882 52.8158Z" fill="#E3E2FF" stroke="#003F3D" stroke-width="0.5"/>
<path d="M25.2548 57.7097C22.9411 61.3037 23.6323 64.7157 24.2657 65.9727C22.8051 65.7801 22.0835 64.5554 21.9071 63.9671C21.359 62.491 22.6923 59.0735 23.4284 57.5492C25.437 54.4686 26.4479 52.3615 26.7009 51.6929C27.6149 49.0617 27.9446 45.3018 27.9952 43.7508C28.604 36.1778 31.5454 33.4823 32.9408 33.0812C34.1585 32.8245 35.5279 33.7765 36.0615 34.2846C35.6349 34.1562 34.5142 35.1403 34.0066 35.6484C29.745 36.4827 28.9337 44.7136 29.0595 48.7248C28.938 50.3934 26.4724 55.4099 25.2548 57.7097Z" fill="white"/>
<path d="M14.221 61.8008C11.4808 57.2441 6.88946 58.0837 4.93621 59.0731C2.74451 60.7417 2.39961 64.4213 2.50098 66.0526C3.35331 80.4926 21.7798 83.6749 30.8859 83.4608C32.4694 82.3699 33.7274 78.9951 34.1584 77.4441L40.1698 55.8643C41.0838 52.1419 40.5516 50.0882 40.1698 49.5267C40.1452 49.6336 40.0946 49.8796 40.0946 50.008C40.0946 50.1685 39.9428 50.3289 39.9428 50.4091C39.9428 50.4733 39.4858 50.5963 39.2573 50.6498H38.1916L36.8221 50.5696L35.1475 49.8476L32.4838 48.0024H32.2568L31.7998 48.8046L26.0154 66.8548L25.1781 68.7801L23.5802 71.3473C20.3539 68.6518 15.9954 63.8598 14.221 61.8008Z" fill="url(#paint2_linear)" stroke="#040047" stroke-width="0.5"/>
<path d="M18.7099 75.5188C7.44682 74.492 3.87019 66.3734 3.48972 62.4425L2.95698 64.0469C1.58767 79.209 21.2984 83.6212 30.8094 83.0596C31.6221 82.204 33.4427 79.5459 34.2352 75.7594L36.9741 65.8118L39.5612 56.6664C40.5344 54.0352 40.3724 51.6124 40.17 50.7299C37.8577 51.6926 35.2489 50.4358 34.2352 49.687C32.0429 52.5109 28.4248 67.8442 26.8529 75.1979C28.192 82.8993 24.315 80.2786 22.2109 78.0057C21.4792 83.525 19.5718 78.6474 18.7099 75.5188Z" fill="url(#paint3_linear)"/>
<path d="M25.7114 52.8162C22.7281 52.7521 20.3594 50.1154 19.5467 48.8052C18.6949 49.1261 17.9747 50.1154 17.7202 50.57C18.6949 53.458 22.3376 55.2497 24.0368 55.7844L25.7114 52.8162Z" fill="#5992F1" stroke="#040047" stroke-width="0.5"/>
<path d="M36.8222 34.4448C31.1 35.9851 31.648 44.1785 32.6372 48.0827C33.7941 49.1096 35.8591 50.008 36.7455 50.3289C38.0253 49.5587 38.8511 46.7457 39.1056 45.4354C41.7838 45.6279 42.4533 43.0554 42.4533 41.745C42.5141 40.5258 41.2111 39.0443 40.5517 38.4559C40.1858 37.365 38.7759 36.7179 38.1165 36.5307C38.3594 34.6695 37.3544 34.3646 36.8222 34.4448Z" fill="#E3E2FF" stroke="#040047" stroke-width="0.5"/>
<path d="M35.6044 48.4839L34.9189 49.1257L32.864 47.8423C31.1143 37.9769 34.462 35.6495 36.5154 34.927C36.5169 34.9268 36.5169 34.9267 36.5169 34.9265C37.8559 34.3489 37.8863 35.9694 37.7345 36.8518C39.3179 36.9802 40.0685 38.1354 40.2463 38.697C41.5247 39.4671 41.9455 40.6757 41.9961 41.1838C40.657 40.0286 38.699 40.3281 37.8863 40.6224C36.2435 41.1358 35.8329 44.8473 35.8329 46.6389C35.8936 47.5374 35.7056 48.2434 35.6044 48.4839Z" fill="white"/>
<path d="M38.4199 47.8421C38.8509 48.056 39.8053 48.7566 40.1697 49.8477M40.6266 42.3066C40.1451 42.066 39.1661 42.4029 39.1054 45.676L40.6266 42.3066Z" stroke="#003F3D" stroke-width="0.5"/>
<path d="M26.5777 49.0234C26.5661 49.0771 26.5545 49.1119 26.5488 49.1257C26.5574 49.0923 26.5676 49.0582 26.5777 49.0234C26.7006 48.4611 26.9349 45.8117 23.8085 43.0289C23.2257 42.1732 22.6371 40.7184 24.9509 41.7453L27.3094 42.7881C27.2602 44.1771 27.0448 47.3275 26.5777 49.0234Z" fill="#E3E2FF"/>
<path d="M26.0156 41.9861L27.4617 42.4673" stroke="#003F3D" stroke-width="0.5"/>
<path d="M34.9955 29.8723C35.1228 30.4073 35.117 31.5732 34.083 31.9583" stroke="#003F3D" stroke-width="0.5"/>
<path d="M27.2329 26.583L29.2126 28.2677L27.6899 29.2305" stroke="#003F3D" stroke-width="0.5"/>
<path d="M39.6379 27.1448L37.4312 28.1075L38.8006 29.0703" stroke="#003F3D" stroke-width="0.5"/>
<path d="M28.147 22.8127C27.4876 22.7592 25.8636 22.9249 24.646 24.0159" stroke="#003F3D" stroke-width="0.5"/>
<path d="M36.3652 23.3743L39.3342 24.3369" stroke="#003F3D" stroke-width="0.5"/>
<path d="M18.1775 27.3054C17.508 26.4068 17.2896 27.2519 17.265 27.7866C16.8384 27.7866 16.782 27.3587 16.8081 27.1448C17.051 26.118 17.8738 26.3425 18.2541 26.5832C19.1666 27.2892 19.0408 28.4284 18.8629 28.9097C18.7415 29.2306 18.3554 29.2039 18.1775 29.1504C17.7509 28.8937 17.949 28.5086 18.1023 28.3481C18.406 28.1556 18.2787 27.5728 18.1775 27.3054Z" fill="#003F3D"/>
<path d="M17.6816 50.6611C17.1755 51.4234 15.0931 53.3899 10.8126 55.1582C8.95683 56.2253 5.1005 58.573 4.52205 59.4266C3.29286 61.0018 0.863398 66.8202 0.979087 77.4912" stroke="#040047" stroke-width="0.5"/>
<path d="M41.6094 51.5835C44.477 51.4818 50.4595 53.5958 51.4428 62.8644C51.5397 64.1602 52.6576 68.947 56.3596 77.7278" stroke="#040047" stroke-width="0.5"/>
<path d="M44.6514 35.4638L48.9477 34.4255C48.7482 34.8952 48.4676 35.9532 48.9477 36.4279C49.4278 36.9025 53.61 35.9829 55.6417 35.4638" stroke="#003F3D" stroke-width="0.5"/>
<defs>
<linearGradient id="paint0_linear" x1="53.1486" y1="63.5" x2="3.3649" y2="78.485" gradientUnits="userSpaceOnUse">
<stop stop-color="#5992F1"/>
<stop offset="1" stop-color="#6C63FF"/>
</linearGradient>
<linearGradient id="paint1_linear" x1="52.6745" y1="62" x2="21.247" y2="83.4277" gradientUnits="userSpaceOnUse">
<stop stop-color="#6C63FF"/>
<stop offset="1" stop-color="#5992F1"/>
</linearGradient>
<linearGradient id="paint2_linear" x1="2.87258" y1="64" x2="41.7656" y2="64" gradientUnits="userSpaceOnUse">
<stop stop-color="#6C63FF"/>
<stop offset="1" stop-color="#5992F1"/>
</linearGradient>
<linearGradient id="paint3_linear" x1="37.971" y1="65" x2="10.9605" y2="76.4386" gradientUnits="userSpaceOnUse">
<stop stop-color="#5992F1"/>
<stop offset="1" stop-color="#6C63FF"/>
</linearGradient>
</defs>
</svg>
