<svg width="57" height="86" viewBox="0 0 57 86" fill="none" xmlns="http://www.w3.org/2000/svg">
<path d="M9.8658 60.819L0.864001 60.3307C-0.756654 55.1867 0.676174 48.4144 1.59501 45.6705C5.69424 46.8852 10.9154 47.4458 13.0132 47.5742C14.1643 46.1748 16.7939 44.0931 17.9653 43.2275C18.8042 42.2201 23.3247 40.7338 25.4797 40.1157C28.2121 38.9022 32.2618 37.0386 33.9446 36.2586C34.6871 36.2372 34.9853 36.8326 35.0424 37.1322C34.8482 38.141 33.8228 39.9524 33.3355 40.7338L30.6272 43.4081L29.3581 45.542L25.3083 50.9952C25.203 51.1236 24.9771 51.3952 24.9187 51.458C24.8603 51.5196 24.8946 52.1524 24.9187 52.4601C24.7639 52.5805 24.4504 52.836 24.4301 52.8976C24.406 52.9752 24.3578 53.6695 24.3083 53.7204C24.2689 53.7618 24.0316 54.0468 23.9187 54.1833V55.2375L23.8451 55.4689L23.4301 55.881C20.2585 56.7292 20.1608 64.9851 20.039 65.0882C19.9172 65.1912 19.7458 65.1136 19.7458 65.0882V64.6507V64.0072C19.7458 63.6995 19.624 63.6473 19.5999 63.4426C19.5758 63.2366 19.0872 63.2366 18.8676 63.159C18.6925 63.0974 18.1607 63.3222 17.917 63.4426V62.9797C17.917 62.7937 17.8193 62.6278 17.7698 62.5676C17.681 62.4994 17.4678 62.3563 17.3307 62.3362C17.1607 62.3108 17.2584 62.0271 17.2089 61.8211C17.1606 61.6164 17.3307 61.488 17.3307 61.385V60.9475C17.3307 60.7936 16.7939 60.716 16.7215 60.716H16.2329C16.1682 60.5876 16.0235 60.3093 15.9652 60.2277C15.8915 60.1247 15.526 59.8157 15.4042 59.6364C15.2824 59.4558 14.9651 59.4036 14.8915 59.4036C14.8331 59.4036 14.3305 59.6792 14.0869 59.8157L13.5983 59.3019L12.55 59.1467L12.1591 59.4036H11.574L10.8418 60.2277H9.8658V60.819Z" fill="#FFB37F"/>
<path d="M10.0678 61.0829L9.87236 60.8769L9.79874 60.7739C9.79112 60.6722 9.78478 60.4448 9.82286 60.3632C9.87235 60.2602 9.87235 60.2856 9.89646 60.2602C9.92057 60.2347 9.99418 60.2347 10.116 60.2347C10.2378 60.2347 10.3597 60.2602 10.6529 60.2347C10.946 60.2093 10.7747 60.2093 10.8965 60.1571C11.0184 60.1063 10.9701 60.0541 11.092 59.9003C11.2138 59.7451 11.2379 59.7451 11.3356 59.6167C11.4334 59.4882 11.4334 59.5136 11.507 59.4628C11.5793 59.412 11.677 59.3598 11.7989 59.3598C11.922 59.3598 12.1161 59.3089 12.1898 59.2822C12.2634 59.2568 12.2875 59.2059 12.3611 59.2059C12.4334 59.2059 12.4829 59.1538 12.6289 59.1283C12.7748 59.1029 12.8725 59.1538 13.0439 59.2059C13.2139 59.2568 13.483 59.2822 13.5312 59.2822C13.5705 59.2822 13.7266 59.4374 13.8002 59.5136C13.8485 59.5484 13.9614 59.622 14.0198 59.6434C14.0921 59.6688 14.1175 59.6434 14.1899 59.6434C14.2635 59.6434 14.3117 59.5912 14.3853 59.5404C14.4589 59.4882 14.5313 59.5136 14.5808 59.4628C14.629 59.412 14.7508 59.3598 14.8003 59.3598H15.1658C15.2394 59.3598 15.313 59.4628 15.3613 59.5136C15.4095 59.5658 15.6049 59.7464 15.629 59.7973C15.6544 59.8481 15.8981 60.0033 15.9222 60.0287C15.9463 60.0541 16.044 60.2856 16.0682 60.311C16.0935 60.3378 16.2395 60.62 16.3854 60.62H16.6545C16.7522 60.62 16.9223 60.6722 16.9718 60.6722C17.02 60.6722 17.2637 60.7739 17.2637 60.8006C17.2637 60.8261 17.3373 61.0053 17.3132 61.0575C17.2929 61.099 17.2725 61.3318 17.2637 61.4428C17.2395 61.4856 17.1862 61.582 17.1659 61.6234C17.1418 61.6743 17.1659 61.9833 17.1659 62.0609C17.1659 62.1372 17.2154 62.2148 17.2637 62.2924C17.3132 62.3686 17.3373 62.3178 17.5568 62.394C17.7764 62.4716 17.6787 62.4462 17.7282 62.497C17.7764 62.5492 17.8741 62.7031 17.8982 62.8061C17.9223 62.9091 17.9477 62.9599 17.9718 63.0375C17.9909 63.0991 17.9312 63.3372 17.8982 63.4496C17.9553 63.4402 18.0987 63.4081 18.2155 63.3466C18.3614 63.269 18.3614 63.269 18.435 63.2181C18.5087 63.166 18.581 63.166 18.6787 63.166H19.0201H19.1914C19.2155 63.166 19.3628 63.1914 19.411 63.2181C19.4592 63.2436 19.5823 63.3212 19.6064 63.3212C19.6305 63.3212 19.7042 63.5526 19.7283 63.578C19.7524 63.6034 19.8019 63.7573 19.8019 63.8349C19.8019 63.9125 19.826 64.0155 19.8019 64.0663C19.7816 64.1078 19.7765 64.3406 19.7765 64.4516V65.0175L19.826 65.1982L19.7042 65.455C19.6547 65.558 19.5569 65.6865 19.4846 65.7895C19.411 65.8925 19.3628 65.9688 19.2651 66.0718C19.1673 66.1748 18.996 66.2524 18.8983 66.33C18.8006 66.4062 18.581 66.6377 18.4845 66.7153C18.3868 66.7929 18.2891 66.9213 18.1419 67.1006C18.0251 67.2451 17.9629 67.4016 17.9477 67.4605C17.9883 67.5555 18.0695 67.7642 18.0695 67.8471C18.0695 67.9501 18.0937 68.0531 18.0695 68.1816C18.0454 68.31 17.85 68.413 17.7764 68.4384C17.7028 68.4639 17.6063 68.3863 17.4591 68.31C17.3132 68.2324 17.3855 67.9234 17.3855 67.8471V66.8691C17.3703 66.8865 17.2548 66.9213 16.9223 66.9213C16.6545 66.9213 16.605 66.7929 16.5568 66.7661C16.5073 66.7407 16.459 66.5347 16.459 66.4838C16.459 66.433 16.2877 66.2002 16.3131 66.0718C16.3372 65.9433 16.459 65.7373 16.5568 65.6356C16.6342 65.5527 16.8652 65.344 16.9718 65.249H16.459H15.9222C15.7763 65.249 15.5072 65.146 15.459 65.1206C15.4095 65.0951 15.313 64.9667 15.1417 64.6322C14.9704 64.2978 14.9704 64.2978 14.9222 64.2202C14.8739 64.1439 14.6049 64.0155 14.5567 63.9888C14.5072 63.9633 14.214 63.7319 14.1899 63.7065C14.1658 63.681 13.9462 63.4496 13.898 63.269C13.8485 63.0897 13.8002 62.9091 13.8002 62.7553C13.8002 62.6001 13.7025 62.7031 13.6289 62.6522C13.5553 62.6001 13.1162 62.6522 12.8484 62.6522C12.5806 62.6522 12.6289 62.6001 12.4575 62.5492C12.2875 62.497 12.3357 62.4208 12.2634 62.3432C12.1897 62.2656 12.2875 62.2402 12.2634 62.0342C12.238 61.8295 12.1415 61.9579 12.0438 61.9057C11.9461 61.8549 11.922 61.9057 11.5552 61.9057H11.1897L10.3597 61.3144C10.2785 61.2542 10.1059 61.1244 10.0678 61.0829Z" fill="white"/>
<path d="M23.9429 54.1833V55.1091C25.6016 51.735 28.4723 48.1656 29.7008 46.8023V46.6485V46.2886C29.7008 46.1334 29.6272 46.211 29.6272 46.0572V45.4913C29.6272 45.3106 29.7249 45.1046 29.7985 44.9508C29.8708 44.7969 29.7985 44.5654 29.7985 44.4624V43.9741C29.7985 43.8912 29.9927 43.6303 30.0904 43.5112V42.6108C29.9774 42.6791 29.7249 42.8316 29.6272 42.8931C29.5053 42.9707 29.334 43.0737 29.0903 43.253C28.8467 43.4336 28.7731 43.6397 28.6271 43.8965C28.5104 44.1026 28.5789 44.2216 28.6271 44.2564C28.5459 44.2818 28.3492 44.3394 28.2121 44.3594C28.0421 44.3849 27.9202 44.4103 27.773 44.4624C27.6271 44.5133 27.4075 44.7193 27.2857 44.8732C27.1638 45.0284 27.0661 45.1568 26.9684 45.2598C26.8707 45.3628 26.7971 45.3882 26.7489 45.4391C26.6994 45.4913 26.4316 45.4912 26.3339 45.5167C26.2361 45.5421 26.0661 45.5943 25.9925 45.6197C25.9189 45.6451 25.8465 45.799 25.7488 45.9796C25.6511 46.1602 25.6016 46.4171 25.6016 46.4947C25.6016 46.5709 25.6752 46.9575 25.7488 47.086C25.8072 47.189 25.8706 47.2479 25.8948 47.2653C25.9519 47.3683 26.0991 47.5944 26.2361 47.6773C26.4075 47.7803 26.6511 47.8833 26.7489 47.9088C26.8466 47.9342 26.8466 48.2687 26.8466 48.3195C26.8466 48.3717 26.7247 48.6794 26.6511 48.86C26.5775 49.0406 26.4316 49.0138 26.2856 49.169C26.1384 49.3229 26.0661 49.3737 25.943 49.6319C25.8211 49.8888 25.8465 50.0172 25.8211 50.2233C25.8021 50.3878 25.5039 50.7892 25.3579 50.9684C25.2767 51.0541 25.0901 51.2467 24.9924 51.3283C24.8706 51.4314 24.9429 51.5598 24.8947 51.6628C24.8554 51.7458 24.9112 52.0227 24.9429 52.1525C24.9264 52.2889 24.8706 52.5739 24.7729 52.6154C24.6751 52.6555 24.5203 52.7866 24.4556 52.8468L24.3337 53.7204L23.9429 54.1833Z" fill="white"/>
<path d="M11.0372 55.3407C6.21588 57.5629 1.7905 56.5582 0.181265 55.7782C0.0442015 57.0331 0.578498 59.3182 0.864048 60.3042L9.71989 60.8447C9.75162 60.8193 9.8265 60.7524 9.86584 60.6908C9.91534 60.6132 9.86584 60.4326 9.86584 60.3042C9.86584 60.1758 9.98769 60.2534 10.2567 60.3042C10.5245 60.3564 10.574 60.3042 10.7441 60.2534C10.9154 60.2012 10.89 60.1758 10.9395 60.0995C10.9789 60.0366 11.1185 59.9015 11.1832 59.8413C11.2974 59.7303 11.5398 59.5028 11.5982 59.4814C11.6718 59.456 11.866 59.4814 12.0614 59.4306C12.2569 59.3784 12.2074 59.3784 12.3787 59.3021C12.5157 59.2406 12.6147 59.2071 12.6477 59.1991C12.7696 59.1898 13.0373 59.1777 13.1351 59.1991C13.2569 59.2245 13.6224 59.4306 13.6478 59.4306C13.6668 59.4306 13.8826 59.6701 13.9892 59.7905C14.1021 59.7477 14.3648 59.646 14.5006 59.5844C14.6377 59.5229 14.9816 59.456 15.1352 59.4306L15.3789 59.5844C15.502 59.662 15.6479 59.8935 15.7456 59.9697C15.8434 60.0473 16.0388 60.3818 16.0388 60.4072C16.0388 60.4326 16.2089 60.6641 16.2825 60.7163C16.3548 60.7671 16.4525 60.7163 16.6721 60.7163C16.8916 60.7163 17.0135 60.8193 17.1112 60.8193C17.1899 60.8193 17.2901 60.9557 17.3308 61.0253V61.4106L17.1848 61.6166V61.8227V62.2334C17.1848 62.311 17.3308 62.311 17.4044 62.3618C17.478 62.414 17.648 62.4394 17.7216 62.4649C17.7952 62.4903 17.8917 62.8247 17.9412 62.8769C17.9805 62.917 17.9577 63.1846 17.9412 63.3131L17.9894 63.4161L18.7953 63.1338C19.8296 62.9692 19.8436 64.1278 19.7218 64.7285C19.7027 65.3252 19.9578 65.166 20.0885 65.0108C20.4007 57.9134 22.4465 55.9842 23.4301 55.9066C23.5278 55.8384 23.7322 55.6912 23.7715 55.6498C23.821 55.5989 23.8933 55.4437 23.8933 55.3675C23.8933 55.2899 23.9428 55.0839 23.8933 55.033C23.8451 54.9808 23.9428 54.2356 23.9428 54.1835C23.9428 54.1433 24.17 53.8918 24.2842 53.7728L24.406 53.0784C24.439 52.9834 24.5139 52.7894 24.552 52.7694C24.6015 52.7439 24.7969 52.5633 24.8452 52.5125C24.8934 52.4603 24.9188 52.3319 24.9188 52.281C24.9188 52.2289 24.8452 51.8436 24.8452 51.766C24.8452 51.7044 24.8934 51.5345 24.9188 51.4582L25.1865 51.2268L25.4556 50.7893L26.8453 48.9123L26.8948 48.6808L26.8707 48.4748C26.8948 48.4052 26.943 48.2581 26.943 48.2179C26.943 48.1658 27.0166 47.9865 27.0166 47.9597C27.0166 47.9397 26.9671 47.8661 26.943 47.8313L26.7234 47.9089C25.4163 48.5671 24.8934 49.8113 24.7969 50.3518C23.9187 51.6897 21.6978 53.3955 20.6977 54.0805C19.624 55.8919 20.251 57.2873 20.6977 57.7582C18.8435 59.1737 17.9653 57.6298 17.7458 57.3729C17.5706 57.1669 17.3472 56.8753 17.2584 56.7562C17.0871 56.3361 16.7165 55.429 16.5997 55.1615C16.4525 54.827 16.3307 54.8016 16.0629 54.5434C15.7939 54.2865 15.4284 54.0805 15.1847 54.0805C14.9397 54.0805 14.4042 54.055 14.2811 54.0805C14.1592 54.1072 13.7455 54.5955 13.4029 54.9554C13.13 55.2431 12.8178 55.0758 12.696 54.9554L11.0372 55.3407Z" fill="#FF9557"/>
<path d="M21.2842 55.2644L20.7233 55.6497C20.3565 56.4979 20.7233 56.91 20.9428 57.0893C21.1624 57.2699 21.1624 57.0638 21.2842 56.91C21.406 56.7561 21.2842 56.7815 21.4784 56.4217C21.552 56.241 21.7957 56.1126 21.7957 55.932V55.5467C21.7957 55.4651 21.6827 55.3233 21.6256 55.2644H21.2842Z" fill="#5992F1"/>
<path d="M32.6772 73.9357C31.2862 74.8093 30.4968 76.198 29.7734 77.176C29.4803 76.867 29.3749 76.3265 29.3584 76.095C29.0665 75.6629 29.0742 74.8695 29.1148 74.527L29.2861 73.5758C29.3635 73.0808 29.432 72.6326 29.4562 72.4694C29.1643 72.1603 29.0094 71.775 28.9688 71.6211C29.2023 71.292 29.0983 71.0552 29.017 70.9776C28.2759 71.4914 28.2365 70.5067 28.3102 69.9488C28.4079 69.435 29.0501 69.3401 29.3584 69.3575C29.8661 68.8638 30.4968 68.7741 30.7494 68.7915C30.8052 69.1046 31.5718 69.225 32.0033 69.2518C32.0223 69.2451 32.0439 69.237 32.0667 69.229C32.4183 69.1059 33.0097 69.1768 33.2622 69.229C33.9069 69.0644 34.506 69.4511 34.7255 69.6665L34.8486 69.435H35.7992L36.5315 69.9742L38.4592 69.7428C38.8298 70.3194 38.6052 70.7462 38.4592 70.8746C35.8969 70.8746 35.6608 71.1743 35.4578 71.3629C34.9311 71.3843 35.0923 72.1095 35.2382 72.4694C34.7306 72.6139 34.9133 73.438 35.0682 73.8327C34.5796 74.0788 34.6532 74.5524 34.7509 74.7585C34.4577 74.82 34.3689 75.1103 34.36 75.2468C34.4184 75.5345 34.6608 75.6923 34.775 75.7351C35.0288 76.6609 34.6697 77.0302 34.4577 77.0984C34.2039 77.0984 34.1405 76.3104 34.1405 75.9158C32.9894 76.574 32.9132 75.7097 33.0186 75.196C32.6086 74.8869 32.62 74.2273 32.6772 73.9357Z" fill="white" stroke="white"/>
<path d="M20.8193 66.477L13.4521 75.632C15.5601 79.9332 21.6658 83.6819 24.4553 85.0198C25.548 83.8879 28.4238 79.3018 29.7247 77.1505C29.6346 76.919 29.4556 76.4347 29.4556 76.3531C29.4556 76.2501 29.1637 75.8634 29.1637 75.5303V74.5523C29.2361 74.0894 29.3972 73.1476 29.4556 73.086C29.5292 73.0098 29.4556 72.6753 29.5534 72.5201C29.6511 72.3663 29.1637 72.2124 29.0419 71.8258C28.9188 71.4405 29.0419 71.6719 29.1637 71.3629C29.2856 71.0552 29.0419 71.1314 29.0419 71.0284C29.0419 70.9267 28.6992 71.209 28.5292 71.1314C28.3579 71.0552 28.3579 70.8237 28.2601 70.4892C28.1637 70.1548 28.2601 69.9742 28.3579 69.8203C28.4556 69.6665 28.6028 69.538 29.0419 69.4083C29.2615 69.4083 29.3833 69.4083 29.5534 69.2544C29.7247 69.1005 29.7006 69.1005 30.4316 68.8169C31.0179 68.7407 30.6511 68.9199 30.8707 69.1005C31.0471 69.2437 31.1715 69.3654 31.2121 69.4083C31.2946 69.3574 31.5103 69.2544 31.7248 69.2544C31.9938 69.2544 32.2375 69.1005 32.4812 69.1005C32.7249 69.1005 32.6766 69.3574 32.9444 69.538C33.2135 69.7173 33.0916 69.3574 33.164 69.2544C33.2376 69.1514 33.7744 69.2544 34.0676 69.2544C34.3011 69.2544 34.6196 69.6317 34.7504 69.8203L34.8963 69.538H35.7745L36.5309 69.9742L38.531 69.7173C41.3612 68.853 44.4438 66.9907 45.6305 66.1679C45.7612 66.0569 46.0505 65.8081 46.1673 65.705C46.3145 65.5766 46.5087 65.4482 46.7777 65.3973C47.0455 65.3452 47.1432 65.602 47.2651 65.602C47.3869 65.602 47.6065 65.9887 47.7537 65.9887H48.3387L48.7296 65.602C48.689 65.2689 48.6065 64.5478 48.6065 64.3418C48.6065 64.0849 48.5101 64.0341 48.5101 63.9056C48.5101 63.8026 48.656 63.7076 48.7296 63.6742L49.4606 62.7738L52.1689 63.1591L52.8276 62.0018C52.7946 61.9256 52.7248 61.7557 52.7057 61.6928C52.6816 61.6165 52.3402 61.4614 52.1689 61.2821C51.9988 61.1015 51.5838 60.767 51.4861 60.6907C51.3884 60.6131 50.6802 60.2787 50.3642 60.1757C50.0469 60.0726 50.3388 59.8158 50.3642 59.7395C50.3833 59.6766 50.5178 59.3355 50.5838 59.1736C50.4937 59.0786 50.2754 58.8699 50.1193 58.787C49.9251 58.6839 49.8515 58.6331 49.802 58.5823C49.7639 58.5408 49.5583 58.7013 49.4606 58.787L48.6065 59.1736C48.5748 59.0612 48.5101 58.8284 48.5101 58.787C48.5101 58.7468 48.6395 58.4792 48.7042 58.3495L48.2651 58.221L48.1192 57.6043L47.5087 57.3728C47.2168 57.2083 47.062 56.7213 47.0214 56.4979C47.939 56.2517 51.4696 57.4237 53.1207 58.0418C55.1501 58.3495 55.9509 57.0036 56.0968 56.2932L51.5585 54.467L54.2909 49.7858C54.8962 48.3249 54.0396 47.5315 53.5357 47.3175C53.8086 46.4947 53.9253 45.7227 53.9495 45.4404C53.6956 44.4518 52.9989 44.223 52.6816 44.231C52.2717 45.506 50.6244 47.6947 49.8515 48.6286C48.505 48.8145 47.7943 48.3115 47.6064 48.0372C50.7881 43.7574 52.3149 41.5312 52.023 41.0161C51.7006 40.4515 50.4454 42.1051 50.0469 42.6363C49.6078 42.5333 49.2664 42.6363 49.1192 42.6884C48.6319 43.3052 47.9326 43.348 47.4846 43.356C46.5087 44.4879 46.3145 43.8283 46.3386 43.356C45.421 44.92 43.2242 46.4947 42.2394 47.086C40.7761 46.9 37.7594 46.888 36.4332 46.9054L38.5805 41.9419C38.0335 40.6255 37.0348 40.2442 36.6045 40.2188C23.4883 50.836 20.6163 62.1477 20.8193 66.477Z" fill="#FFB37F"/>
<path d="M33.0423 68.8425C32.9649 68.9054 32.7009 69.074 32.5791 69.1516C32.5791 69.177 32.5994 69.2492 32.6768 69.3322C32.7745 69.4352 32.7745 69.486 32.9446 69.5636C33.1159 69.6399 33.0423 69.5636 33.1159 69.486C33.1896 69.4084 33.2137 69.3322 33.3114 69.2292C33.4091 69.1261 33.5551 69.2292 33.6287 69.2292C33.701 69.2292 34.0919 69.3054 34.1896 69.3322C34.2873 69.3576 34.531 69.6399 34.5792 69.7683C34.6186 69.8713 34.7582 69.8125 34.8242 69.7683C34.8648 69.7255 34.965 69.6252 35.0437 69.5636C35.1414 69.486 35.4092 69.5369 35.5311 69.486C35.6529 69.4352 35.8966 69.6145 35.9702 69.6399C36.0286 69.6613 36.3852 69.8713 36.5565 69.9744L38.3612 69.7683C41.5226 68.7609 44.477 67.0002 45.5583 66.2457L46.0457 65.7573C46.0863 65.6971 46.1637 65.5259 46.1434 65.3198C46.1193 65.063 46.0457 64.9078 46.0457 64.7793V64.2656C45.9403 64.2308 45.6941 64.1826 45.5583 64.2656C45.4213 64.3472 45.1916 64.6429 45.0951 64.7793C44.4847 65.0884 43.2359 65.7159 43.1191 65.7573C43.0011 65.7975 40.5162 66.3233 39.2877 66.5801C38.9551 66.6658 38.2635 66.8424 38.1657 66.8624C38.068 66.8838 36.889 67.0604 36.3116 67.1461C35.8407 67.308 34.8673 67.6545 34.7506 67.7374C34.6046 67.8404 33.9459 68.1749 33.7264 68.3288C33.5068 68.4826 33.1401 68.7663 33.0423 68.8425Z" fill="#FF9557"/>
<path d="M51.3643 55.7527C49.3337 55.3005 46.9072 54.2784 45.9477 53.8235C45.8665 53.7727 45.6838 53.6697 45.6063 53.6697C45.5086 53.6697 45.265 53.8757 45.1672 53.9787C45.0695 54.0817 45.0454 54.7493 45.0454 54.8523C45.0454 54.9353 45.0936 55.4865 45.1177 55.7527L46.6559 56.6009C47.826 56.1487 51.5026 57.3902 53.1931 58.0672C54.3645 58.2317 55.178 57.6899 55.4382 57.3983C55.0473 56.8845 52.5598 56.0872 51.3643 55.7527Z" fill="#FF9557"/>
<path d="M40.6783 51.9973C39.2734 51.7298 37.3926 52.8469 36.6286 53.4382C36.4331 53.0676 36.4001 52.4268 36.409 52.1525C38.0677 50.6501 40.2062 49.8287 41.0679 49.6066C43.0198 48.5363 45.3461 49.3658 46.2649 49.9143C47.397 50.408 50.9327 50.5658 52.5584 50.5832C52.6181 50.8508 52.2094 51.2093 51.9975 51.3552C50.4949 51.5197 48.2003 51.3886 47.2409 51.303C46.0695 50.5417 44.9641 51.1237 44.5567 51.509L41.0996 52.083C41.8852 52.2515 41.1923 52.2047 40.6783 52.1525L41.0996 52.083C40.9892 52.0589 40.8509 52.0308 40.6783 51.9973Z" fill="#FF9758"/>
<path d="M48.4122 62.9275V63.9563C48.3792 64.1369 48.3145 64.5022 48.3145 64.5222C48.3145 64.5423 47.8424 65.3878 47.6063 65.8079L47.3867 65.448V63.3128C47.5048 62.8606 48.119 62.8673 48.4122 62.9275Z" fill="#FDB27B"/>
<path d="M47.5584 48.0627C49.2412 46.3141 51.8759 42.0703 52.0713 41.3251C52.1196 40.4247 51.169 41.1873 51.0472 41.4014L50.0953 42.56L46.5584 47.3938C45.387 47.2506 45.1268 47.454 45.1433 47.5744C45.5139 47.5945 46.9404 47.8995 47.5584 48.0627Z" fill="#F49B61"/>
<path d="M46.1929 61.4105C45.7437 61.2661 45.3388 61.6928 45.1929 61.9243C45.3312 62.0621 45.6218 62.3364 45.6802 62.3364C45.7386 62.3364 45.7855 62.3016 45.802 62.2855C45.8274 62.2253 45.8858 62.1049 45.9239 62.1049C45.9734 62.1049 46.1929 62.0541 46.3389 62.1049C46.4861 62.1557 46.6562 62.2334 46.8757 62.3364C47.0953 62.4394 47.4125 62.6187 47.5585 62.6708C47.7057 62.7217 48.0471 62.7993 48.1448 62.8501C48.2425 62.9023 48.5344 62.7217 48.608 62.6187C48.6816 62.517 48.4621 62.3364 48.4126 62.2855C48.3732 62.2441 47.99 62.0273 47.8034 61.9243C47.4532 61.8132 46.6422 61.555 46.1929 61.4105Z" fill="#F77F3A"/>
<path d="M46.7284 65.3199V65.1661L46.5697 64.445C46.5659 64.4276 46.5583 64.3888 46.5583 64.3688C46.5583 64.342 46.5672 64.0611 46.5583 64.1106L46.4365 64.3942C46.4428 64.3581 46.3629 64.0076 46.1916 64.0076C46.0558 64.0076 45.8667 63.9915 45.8743 64.0343V64.2658C46.0507 64.5333 45.6954 65.748 45.6802 66.1172C45.7119 66.0998 46.2258 65.649 46.2652 65.6289C46.3134 65.6022 46.6801 65.4483 46.7284 65.3975C46.7677 65.356 46.7449 65.3279 46.7284 65.3199Z" fill="#F67D36" fill-opacity="0.86"/>
<path d="M44.4607 62.1568L44.3134 62.7214C44.1675 63.777 43.8984 63.4679 43.557 63.674C43.2842 63.8385 42.9225 64.5302 42.7766 64.8566L42.3869 64.7028C42.1674 64.5997 42.2156 64.6506 42.0938 64.5997C41.9719 64.5476 41.7765 64.5476 41.581 64.5997C41.3856 64.6506 41.5087 64.7536 41.3856 64.9851C41.2638 65.2165 41.0937 65.2673 40.9224 65.2673C40.7523 65.2673 40.5328 65.2165 40.4109 65.1135C40.3132 65.0319 40.0606 65.08 39.9464 65.1135C39.8335 65.3021 39.5911 65.6955 39.5314 65.757C39.1659 66.3229 39.3855 66.7858 39.4832 66.8367C39.5809 66.8888 39.9705 66.6052 40.1419 66.5276C40.3132 66.4514 40.3855 66.4514 40.5328 66.3738C40.6787 66.2962 40.581 66.3229 40.85 66.3738C41.1178 66.4259 41.1914 66.2962 41.3856 66.3738C41.581 66.4514 41.6052 66.2453 41.7283 66.1677C41.8501 66.0915 41.9719 65.963 42.3374 66.0393C42.7029 66.1169 42.557 66.1677 42.7029 66.1677C42.8502 66.1677 43.0456 66.1677 43.1421 66.0393C43.2398 65.9109 43.3134 65.963 43.557 65.963C43.802 65.963 43.8502 65.9363 44.2157 65.963C44.5825 65.9885 44.6802 65.8078 44.7767 65.757C44.8744 65.7048 44.9239 65.448 45.0216 65.2673C45.1193 65.0881 44.9962 65.1389 45.0216 64.9851C45.0406 64.862 45.0787 64.7456 45.094 64.7028H45.5331H45.6803C45.7374 64.6506 45.8656 64.5168 45.9239 64.3937C45.9976 64.2399 45.9239 64.2131 45.9239 64.1368C45.9239 64.0593 46.1194 64.0084 46.1917 64.0084C46.2653 64.0084 46.2895 64.1101 46.3631 64.2653C46.4367 64.4191 46.4608 64.3937 46.6803 64.4445C46.8999 64.4967 46.8022 64.4713 46.8504 64.3937C46.8999 64.3161 46.8999 64.3161 46.8999 64.2131C46.8999 64.1101 46.9481 63.9308 46.9735 63.7248C46.9925 63.5602 46.9316 63.5027 46.8999 63.4933C46.8187 63.3997 46.6169 63.1843 46.4608 63.0826C46.2653 62.9528 46.1194 62.9274 45.9976 62.8244C45.8998 62.7428 45.9074 62.6532 45.9239 62.6197V62.3882C45.8338 62.3107 45.6308 62.13 45.5331 62.027C45.4112 61.8986 45.2412 61.924 45.1676 61.8986C45.0939 61.8732 44.8503 61.9508 44.7284 61.9762C44.6307 61.9963 44.5089 62.1046 44.4607 62.1568Z" fill="white"/>
<path d="M36.8724 43.8713C37.7316 43.0485 37.5882 41.2652 37.4093 40.4758C37.7405 40.6618 38.4093 41.4284 38.7748 42.0197C38.2291 42.5749 36.7265 46.3918 35.8229 48.1912C35.8152 48.6634 35.8038 49.6575 35.8229 49.8635C35.8432 50.0695 35.5881 50.7545 35.4573 51.0716L33.7009 51.7151C33.1539 49.5344 35.5881 45.577 36.8724 43.8713Z" fill="#FD995D"/>
<path d="M38.1413 42.5587C37.9268 41.7974 36.7504 41.2824 36.1894 41.1191C35.5841 41.3452 34.7173 42.6363 34.3594 43.253C34.9254 43.336 36.1399 44.3166 36.6768 44.7969C37.0676 44.4878 37.8151 43.1767 38.1413 42.5587Z" fill="#FFD1B7"/>
<path d="M48.9732 58.2479C48.7041 58.2734 48.8019 58.2988 48.6318 58.3496H48.4846C48.4605 58.3162 48.3881 58.2372 48.2904 58.1958C48.1686 58.1449 48.2409 58.1182 48.2409 57.8104C48.2409 57.5629 48.1927 57.6218 48.1686 57.682C48.1115 57.6552 47.9731 57.5937 47.8754 57.5536C47.7777 57.5121 47.6876 57.4666 47.6559 57.4505L47.2168 57.0906L47.0708 56.4979C48.378 56.2303 51.6815 57.4157 53.1689 58.0419H54.3403C54.292 58.1101 54.1397 58.2881 53.9253 58.4526C53.8034 58.5557 53.7793 58.5557 53.6816 58.6333C53.5839 58.7109 53.5103 58.5557 53.3402 58.5557C53.1689 58.5557 53.2184 58.4526 53.047 58.4526C52.877 58.4526 52.877 58.5557 52.5838 58.6333C52.2906 58.7109 52.3148 58.6333 52.1929 58.5557C52.0711 58.4794 51.901 58.3496 51.6561 58.4526C51.4124 58.5557 51.8274 58.5557 51.4619 58.7109C51.0951 58.8647 51.1929 58.5811 51.0469 58.5557C50.901 58.5302 50.901 58.5557 50.5101 58.6333C50.1192 58.7109 50.3146 58.5302 50.1928 58.3496C50.071 58.1703 50.1928 58.2479 50.1928 58.0419C50.1928 57.8358 50.2169 57.9643 50.1928 57.8104C50.1687 57.6552 50.0951 57.8867 49.8755 58.0419C49.656 58.1957 49.7055 58.1182 49.51 58.2479C49.3146 58.3764 49.241 58.2212 48.9732 58.2479Z" fill="white"/>
<path d="M51.999 49.0661C52.3112 48.963 52.9902 47.7376 53.291 47.137C53.5842 47.2814 53.7302 47.4888 53.7556 47.6253L52.8519 49.2721C52.5016 49.2921 52.1374 49.1436 51.999 49.0661Z" fill="#FF9357"/>
<path d="M50.3647 48.7063C51.1046 48.8347 52.6378 49.1384 52.8522 49.323C52.2024 49.8207 50.7937 50.3933 50.3647 48.7063Z" fill="#FDCEB2"/>
<path d="M45.5088 52.1526C47.2068 51.4943 47.0292 51.1411 46.7284 51.0461C45.7525 50.6969 44.9072 51.1919 44.6064 51.4836C44.6547 51.604 44.7575 51.8542 44.7765 51.8944C44.8019 51.9465 45.4111 52.1258 45.5088 52.1526Z" fill="#5992F1"/>
<path d="M41.6301 50.6087C41.6098 50.4856 41.2468 50.1298 41.0678 49.9666C40.9549 50.0696 40.7074 50.3104 40.6287 50.4549C40.531 50.6355 40.531 50.7372 40.361 51.1238C40.1896 51.5091 40.531 51.3298 40.531 51.4837C40.531 51.6375 40.8001 52.075 40.7265 52.2034C40.6681 52.3064 40.5729 52.5379 40.531 52.6409C40.6376 52.8897 40.7848 53.4128 40.531 53.5158C40.215 53.6443 40.4092 53.6951 40.361 54.0042C40.3115 54.3119 40.1655 54.4925 39.8482 54.5955C39.531 54.6985 39.3609 54.8778 39.0918 55.136C38.8241 55.3928 39.0677 55.6243 39.0918 55.8557C39.1172 56.0872 39.2137 56.2664 39.3609 56.5501C39.5068 56.8323 39.531 56.55 39.8482 56.7039C40.1655 56.8591 40.3115 56.8323 40.531 56.8069C40.7506 56.7815 41.3369 56.5501 41.8979 56.5501C42.4588 56.5501 42.5806 56.5755 42.8497 56.5501C43.1175 56.5246 42.9956 56.344 43.4347 56.1126C43.8739 55.8811 44.0452 56.035 44.2648 56.1126C44.4843 56.1902 44.728 55.9841 44.9958 55.8557C45.2648 55.7273 45.3372 55.5989 45.3625 55.3928C45.3867 55.1868 45.4844 54.9808 45.4844 54.3895C45.4844 53.7981 45.4844 54.1326 46.143 53.7981C46.4844 53.6175 46.1671 53.5667 46.6063 52.9753C46.9235 52.7947 46.7522 52.7947 46.7522 52.6409C46.7522 52.487 46.558 52.3586 46.289 52.2034C46.0212 52.0496 46.0212 52.2034 45.8016 52.2034C45.6252 52.2034 45.3372 52.0148 45.2153 51.9211C45.2559 51.869 45.3676 51.7405 45.4844 51.6375C45.6011 51.5345 45.5326 51.2522 45.4844 51.1238C45.4603 51.089 45.3714 51.0408 45.2153 51.1238C45.0211 51.2268 44.9958 51.4061 44.728 51.4837C44.4589 51.5613 44.728 51.2 44.8498 51.0208C44.9716 50.8402 44.9958 50.6087 44.9958 50.4549C44.9958 50.301 44.8016 50.1726 44.728 50.095C44.6544 50.0174 44.4348 49.9666 44.2648 49.9666C44.0934 49.9666 43.9957 49.9666 43.6302 50.2743C43.2634 50.5833 43.4106 50.2743 43.3129 50.2743C43.2152 50.2743 43.0439 50.2234 42.752 50.2743C42.4588 50.3264 42.4106 50.6087 42.2634 50.7371C42.1174 50.8669 41.9956 50.9686 41.776 50.9178C41.5565 50.8669 41.6542 50.7639 41.6301 50.6087Z" fill="white"/>
<path d="M27.1388 72.0064C25.7923 77.1505 20.3161 79.8757 17.7461 80.5955C18.8985 81.9133 22.683 84.0766 24.4318 84.9944C25.9141 83.3475 28.578 79.0783 29.7253 77.1505C29.6923 77.0983 29.6276 76.9859 29.6276 76.9444C29.6276 76.8923 29.5298 76.5578 29.5298 76.507C29.5298 76.4561 29.3839 76.1725 29.3103 76.0695C29.238 75.9665 29.1884 75.6842 29.1884 75.6066V75.2213C29.1884 75.1798 29.238 74.4667 29.2621 74.1149C29.2862 73.9182 29.3446 73.4981 29.3839 73.3951C29.4232 73.2921 29.4981 73.1463 29.5298 73.086V72.6753V72.3917C29.4156 72.298 29.1745 72.088 29.1148 72.0064C29.0425 71.9034 29.0425 71.8525 29.0425 71.5181C29.0907 71.4151 29.1148 71.312 29.1884 71.2599C29.2621 71.209 29.1402 71.0806 29.1148 71.003C29.0907 70.9267 28.9207 71.0284 28.8229 71.0806C28.7443 71.1221 28.5628 71.098 28.4816 71.0806L28.2366 70.2324C28.2455 70.1976 28.2658 70.1133 28.2861 70.0518C28.3102 69.9742 28.4079 69.7949 28.4079 69.7695C28.4079 69.7481 28.6846 69.5541 28.8229 69.4604C27.0462 68.4316 26.9929 70.4638 27.1388 72.0064Z" fill="#FF9557"/>
<path d="M46.4126 57.7075C46.4506 57.7075 46.509 57.8279 46.5344 57.8868C46.0065 57.8052 46.2336 59.1042 46.4126 59.7651C47.056 60.917 50.8113 61.9766 52.6083 62.3619C52.5842 62.4302 52.5208 62.5934 52.4624 62.6964C52.3888 62.8248 52.1692 63.1593 52.0969 63.1847C52.0372 63.2061 51.6819 63.1245 51.5106 63.0817L49.5587 62.774H49.3886L48.3391 62.4649C48.1639 62.1773 46.6727 61.6422 45.9481 61.4107C44.9721 60.8448 43.387 60.3311 43.5571 60.3043C43.7284 60.2789 43.8502 60.0996 43.9721 60.0474C44.0939 59.9966 44.1916 59.8682 44.363 59.7651C44.533 59.6621 44.6548 59.5337 44.8262 59.4053C44.9975 59.2755 45.0457 59.1738 45.1917 59.044C45.3389 58.9156 45.509 58.6333 45.6067 58.5049C45.7044 58.3765 45.8504 58.0928 45.8999 57.9898C45.9392 57.9082 46.0623 57.8186 46.1194 57.7838C46.2006 57.7584 46.3732 57.7075 46.4126 57.7075Z" fill="#FD9854"/>
<path d="M47.3872 57.2952C47.075 57.8919 46.6714 57.9213 46.509 57.8611L46.4113 57.7072C46.1384 57.7487 45.9721 57.8959 45.9239 57.9641L45.6307 58.4792L45.2411 58.9929L44.802 59.4304L44.387 59.7381L44.1674 59.8933C44.1179 59.9361 44.0164 60.0271 43.9961 60.0471C43.9771 60.0685 43.939 60.0726 43.9237 60.0726C43.9072 60.09 43.8692 60.1247 43.8501 60.1247C43.8311 60.1247 43.7765 60.1756 43.7524 60.201L43.5824 60.304L43.557 60.3562C43.109 60.4793 42.6216 60.2358 42.4351 60.0993C42.9034 59.9134 45.3464 57.9815 46.509 57.0383C46.4315 56.7507 45.3058 56.2329 44.7525 56.0095C44.8667 55.9319 45.1091 55.7781 45.1675 55.7781C46.4557 56.1487 47.1841 56.9447 47.3872 57.2952Z" fill="#FF7C3B"/>
<path d="M42.4595 60.0725C42.4011 58.427 44.1105 56.7467 44.9722 56.1125C46.0268 56.4831 46.4368 56.8845 46.5091 57.0383C44.1676 58.9728 42.8338 59.8678 42.4595 60.0725Z" fill="#FF9756"/>
<path d="M35.2375 55.9333L34.1639 53.7727L33.7983 53.3606C33.8313 53.3004 33.9113 53.1653 33.9697 53.1038C34.042 53.0262 34.1638 52.8723 34.287 52.8215C34.4088 52.7693 34.6766 52.8215 34.8225 52.8215H35.4089L36.409 52.2034C36.975 54.0764 36.645 59.8933 36.409 62.5677C36.1361 63.3905 36.197 65.9966 36.263 67.1966C36.0676 67.1966 35.3035 67.5231 34.9456 67.6863L35.2375 55.9333Z" fill="#5992F1"/>
<path d="M47.5088 64.5477C47.4708 63.9724 48.1599 63.9135 48.5089 63.9564L48.5825 64.137C48.632 64.5999 48.7285 65.535 48.7285 65.5765C48.7285 65.6179 48.6802 65.6447 48.6561 65.6541L48.3871 65.9618L48.0216 65.9885L47.5825 65.8079L47.5088 64.5477Z" fill="#FFCFB6"/>
<path d="M48.4124 62.4902C48.7449 62.5852 49.4175 62.7739 49.4366 62.7739L48.7043 63.6475C48.5101 63.7304 48.4771 63.8883 48.4848 63.9565H48.4124V62.9277C47.7284 62.7632 47.4441 63.1164 47.387 63.3144V65.4482L47.3147 65.5767L47.2169 65.5512L47.0697 65.4228L46.9238 65.3706H46.7042L46.6801 65.3452C46.6154 65.2676 46.4847 65.0937 46.4847 65.0108C46.4847 64.9291 46.3704 64.7365 46.3146 64.6509L46.4847 64.2656L46.6065 63.8789C46.5494 63.7853 46.4111 63.5766 46.3146 63.4936C46.1915 63.3906 45.7778 63.2876 45.68 63.2622C45.6014 63.2421 45.7118 62.5852 45.7778 62.2588C45.8755 61.9096 46.1763 61.9243 46.3146 61.9765C47.1332 62.4287 47.9898 62.6789 48.3147 62.7485L48.3883 62.6963L48.4124 62.4902Z" fill="#FF9457"/>
<path d="M47.8274 57.5012L47.3388 57.2952C47.222 57.7273 46.7537 57.8531 46.5342 57.8611C46.0659 57.9226 46.1763 58.7963 46.2905 59.2244C46.5431 60.767 50.6081 61.9765 52.6082 62.3872C50.4367 61.8735 50.6081 60.1502 50.5103 60.0994C50.4126 60.0472 50.2172 59.9696 50.0712 59.8934C49.9253 59.8158 49.7298 59.6873 49.4367 59.5589C49.1448 59.4305 49.0712 59.405 48.9976 59.3529C48.9252 59.302 48.7298 59.302 48.6803 59.2753C48.6422 59.2552 48.5825 59.2324 48.5584 59.2244V59.0184V58.6331V58.3494C48.5013 58.3334 48.3782 58.2879 48.3389 58.2477C48.3008 58.2063 48.2412 58.1273 48.217 58.0925V57.8611V57.6551L47.8274 57.5012Z" fill="#FEB27E"/>
<path d="M53.0236 61.6928C52.9449 61.6313 51.3154 60.6051 50.5107 60.0994C50.5882 61.8266 51.9258 62.3444 52.5845 62.3872C52.7634 62.1825 53.101 61.7557 53.0236 61.6928Z" fill="#FECFB5"/>
<path d="M49.5101 58.6079L48.9238 59.3022C49.1586 59.3424 49.9163 59.7825 50.2665 59.9966L50.6802 59.2247C50.4074 58.8541 49.7868 58.6587 49.5101 58.6079Z" fill="#FFB277"/>
<path d="M49.3147 59.4561L49.5101 58.5825L49.1929 58.9678L48.9238 59.3276L49.3147 59.4561Z" fill="#FF7C3B"/>
<path d="M52.9976 55.0583C53.0953 55.6751 53.8758 57.1922 56.0715 56.2932C55.5105 55.9065 53.9545 55.2644 52.9976 55.0583Z" fill="#FED0B6"/>
<path d="M53.7553 47.625C54.6132 48.0571 54.2756 49.4338 53.9989 50.0693C53.8226 49.8018 53.1449 49.4432 52.8276 49.2974L53.7553 47.625Z" fill="#F8CFBD"/>
<path d="M35.8241 48.1658L34.9459 48.2688C34.8888 48.3972 34.7454 48.6956 34.6286 48.8601C34.5106 49.0247 34.5791 49.0153 34.6286 48.9886C34.5626 49.0407 34.4281 49.1638 34.4091 49.2468C34.3837 49.3484 34.3113 49.6321 34.3113 49.8114C34.3113 49.992 34.3596 50.1726 34.3113 50.2742C34.2619 50.3773 34.1159 50.6863 33.9941 50.8402C33.8722 50.9954 33.6527 51.2001 33.6527 51.3298C33.6527 51.4583 33.5055 51.6897 33.5055 51.8957V52.4603C33.5055 52.5433 33.3265 52.7011 33.2377 52.7694C32.4077 54.5701 33.4331 53.952 33.6527 53.8236C33.8722 53.6952 34.0182 53.5159 34.2136 53.3353C34.4091 53.1547 34.4332 53.0008 34.6286 53.0008C34.8228 53.0008 35.0919 53.053 35.2378 53.0008C35.385 52.95 35.5069 52.8724 35.8241 52.6409C36.1402 52.4095 36.1896 52.4871 36.4574 52.3586C36.7265 52.2289 37.2138 52.3586 37.5311 52.3586C37.8484 52.3586 37.9943 52.3841 38.3116 52.3586C38.6289 52.3319 38.6048 52.281 38.8484 52.1004C39.0439 51.9573 38.9297 51.766 38.8484 51.6897C38.7672 51.6041 38.6048 51.386 38.6048 51.2V50.6863C38.6048 50.5833 38.7266 50.4549 38.8484 50.1726C38.9703 49.8889 39.0198 49.7605 39.0198 49.2468C38.9221 49.117 38.6784 48.9886 38.6048 48.9886H37.9943H37.3115C37.1364 48.9886 37.0438 48.7665 37.0184 48.6541C37.0184 48.5604 36.9308 48.3517 36.5793 48.2688C36.229 48.1872 35.9295 48.1658 35.8241 48.1658Z" fill="white"/>
<path d="M51.9979 51.3552C52.7593 50.7786 52.852 49.7605 52.8038 49.323C52.9395 49.323 53.1692 49.4434 53.267 49.5036C53.1299 50.6756 51.5511 53.164 50.7782 54.261L50.0219 53.8757L51.6324 51.8957C50.9686 52.0388 48.5256 51.8863 47.3872 51.7927C47.3491 51.6067 46.9316 51.604 46.7285 51.5344C46.9722 51.3298 46.8504 51.1237 46.7285 51.0461L46.8021 51.0716L46.9722 51.1492L47.2171 51.2776C48.603 51.4007 50.9813 51.406 51.9979 51.3552Z" fill="#FF7B39"/>
<path d="M46.6802 52.6917C47.5 52.384 47.5254 51.972 47.3871 51.7927C48.6358 51.9359 50.8187 51.9118 51.754 51.8957L50.0458 53.8757C49.2653 53.5252 47.4442 52.9406 46.6802 52.6917Z" fill="#FF955A"/>
<path d="M53.7299 45.3376C53.5738 45.1316 53.1283 44.9603 52.9253 44.9001C52.8859 45.1677 52.3072 46.0747 52.0229 46.4948C52.5293 46.5149 53.1613 47.0861 53.4126 47.3684C53.7058 46.6901 53.7464 45.7309 53.7299 45.3376Z" fill="#FFD2B6"/>
<path d="M47.5087 43.383C46.553 44.555 46.298 43.9048 46.2891 43.4338C46.2878 43.4004 46.4363 43.2024 46.4845 43.1248C46.534 43.0485 46.5822 42.9455 46.68 42.7903C46.7777 42.6365 46.8754 42.6619 47.0696 42.4826C47.265 42.302 47.265 42.2766 47.4605 42.0451C47.6559 41.8137 47.4605 41.7883 47.5087 41.7107C47.5582 41.6331 47.7777 41.4284 47.8755 41.2999C47.9732 41.1702 47.8019 41.2732 47.9237 41.0939C48.0455 40.9133 48.3146 40.7594 48.3869 40.5788C48.4605 40.3996 48.4846 40.3995 48.6065 40.2965C48.7296 40.1935 48.5341 40.1681 48.8019 40.0397C49.071 39.9112 49.071 39.8336 49.2169 39.756C49.3629 39.6784 49.4847 39.756 49.6319 39.4992C49.7779 39.2423 49.7296 39.3707 49.8756 39.2423C50.0215 39.1139 50.0469 39.1393 50.2665 39.0363C50.486 38.9333 50.4124 38.9587 50.5584 38.9078C50.7056 38.8557 50.632 38.8557 50.8998 38.7272C51.1688 38.5988 50.9975 38.651 51.1193 38.5212C51.2424 38.3928 51.217 38.4449 51.3643 38.3419C51.5102 38.2389 51.5838 38.2389 51.7057 38.2643C51.8275 38.2897 51.8275 38.3165 51.8275 38.4449C51.8275 38.5734 51.9011 38.6764 51.9252 38.7794C51.9442 38.861 52.0305 38.8985 52.0712 38.9078C52.1042 38.9252 52.1879 38.9747 52.2666 39.0363C52.3643 39.1139 52.3148 39.1647 52.3884 39.2931C52.462 39.4216 52.3643 39.5246 52.3148 39.6022C52.2666 39.6784 52.2425 39.653 52.1689 39.756C52.0953 39.8591 52.1689 39.9875 52.1689 40.0397C52.1689 40.0798 52.2666 40.0905 52.3148 40.0905L52.4367 40.3474L52.4862 40.5026C52.5255 41.1608 52.226 41.308 52.0712 41.2999C52.0128 41.0524 51.8846 40.9909 51.8275 40.9909C51.4366 40.8049 50.4771 42.0277 50.0469 42.6619L49.1433 42.7395C48.7537 43.2947 47.892 43.3991 47.5087 43.383Z" fill="white"/>
<path d="M20.4059 66.9907C19.8005 58.0003 22.3984 55.8036 23.7716 55.8303C21.6649 58.8338 20.9427 64.1799 20.845 66.477L20.4059 66.9907Z" fill="#5992F1"/>
<path d="M45.1437 67.3774C45.0269 67.3159 44.9152 67.4537 44.8746 67.5313H44.7528C44.6804 67.5313 44.5827 67.6852 44.4355 67.7628C44.2896 67.8404 44.2413 67.8404 44.07 67.9942C43.8987 68.1481 43.8987 68.2257 43.8264 68.2779C43.7527 68.3287 43.8022 68.6124 43.8264 68.8171C43.8505 69.0231 43.9723 68.9723 44.2413 69.2037C44.5091 69.4352 44.4114 69.2037 44.8264 69.1261C45.2414 69.0485 45.0218 68.9977 45.1437 68.8171C45.2655 68.6378 45.2896 68.6124 45.3873 68.4063C45.4851 68.2003 45.5092 68.1749 45.5828 67.9942C45.6551 67.815 45.5828 67.6852 45.5828 67.6089C45.5828 67.5313 45.2896 67.4537 45.1437 67.3774Z" fill="white"/>
<path d="M39.8484 43.1515C39.79 43.0485 39.3534 43.0391 39.1415 43.0485C39.1745 43.0471 39.1567 43.0672 38.8242 43.1515C38.4092 43.2558 38.7265 43.3053 38.4092 43.6143C38.092 43.922 38.3851 43.8712 38.8242 44.2057C39.0197 44.5401 38.9702 44.3595 39.2392 44.7715C39.507 45.1823 39.3369 45.0284 39.4588 45.0538C39.5806 45.0792 39.6288 44.9508 39.8484 44.7715C40.0679 44.5909 40.0933 44.6164 40.2151 44.3595C40.337 44.1026 40.4106 43.9488 40.4347 43.8712C40.4588 43.7936 40.3128 43.6906 40.2151 43.5113C40.1174 43.3307 39.922 43.2799 39.8484 43.1515Z" fill="white"/>
<path d="M42.3852 44.6431H42.0197H41.8978C41.8166 44.7019 41.6389 44.8893 41.5805 45.1568C41.5069 45.4913 41.6542 45.4137 41.8978 45.5422C42.1415 45.672 42.1174 45.5689 42.5565 45.0792C42.6301 44.9762 42.4588 44.9508 42.4829 44.8224C42.5032 44.7193 42.4258 44.6591 42.3852 44.6431Z" fill="white"/>
<path d="M27.5294 9.97505C26.9824 15.6944 25.415 24.1028 24.6992 27.5919L10.3545 27.6428C9.16276 27.6628 8.80106 29.0395 8.76807 29.7258H53.0956C53.0373 28.4094 52.258 27.7538 51.876 27.5919H37.6772C37.0338 25.4313 36.1251 19.3534 35.7507 16.584C35.2545 12.9491 34.1985 5.35008 33.9447 4.03362C33.6909 2.71717 33.1883 1.95995 32.9688 1.74455C32.7746 1.50508 32.1109 1.01408 31.0169 0.973947C29.9242 0.932473 29.3264 1.47029 29.164 1.74455C28.4216 2.67035 27.7642 7.61775 27.5294 9.97505Z" fill="#CBD0CA"/>
<path d="M52.7309 28.9807H9.25684V29.5464H52.7309V28.9807Z" fill="#A0AAA1"/>
<path d="M28.7236 6.09106V7.1948H33.3342L33.4078 6.09106C33.5246 7.548 35.0018 17.5593 35.7252 22.3836C35.9397 23.882 36.6441 26.5484 36.9702 27.6936H25.6016C25.7577 26.1551 26.3326 23.8205 26.6016 22.8452C27.207 19.3962 28.268 10.2385 28.7236 6.09106Z" fill="#A0AAA1"/>
<path d="M29.6016 47.1116C30.0508 45.3215 29.7894 20.6995 29.6016 8.61187V8.45801H32.7007C32.7984 9.56843 32.5294 17.304 32.3834 21.0339C32.3834 26.2596 32.9203 36.4301 33.188 40.8624L33.2858 43.0739L32.9685 43.4592L32.3834 44.0773L30.7729 45.7229L29.6016 47.1116Z" fill="#5992F1"/>
<path d="M33.0664 23.4514C33.3012 22.4842 33.2783 17.9221 33.2377 15.7615C33.2301 15.3093 33.5271 15.7441 33.6768 16.0183C33.4814 17.4592 33.5956 18.9843 33.6768 19.5676C34.0068 20.658 34.1718 22.3704 34.2137 23.0915C33.7835 24.0173 33.2695 23.7163 33.0664 23.4514Z" fill="#5992F1"/>
<path d="M33.164 35.1777C33.3404 32.0097 32.961 26.8977 32.749 24.737C33.6031 23.965 33.7745 33.9175 33.7008 34.5356C33.6425 35.0292 33.3188 35.1697 33.164 35.1777Z" fill="#5992F1"/>
<path d="M29.0903 8.53418V7.55762H32.9941V8.53418H29.0903Z" fill="#D2D7D1"/>
<path d="M33.3599 7.22314H28.7734V7.58325H33.3599V7.22314Z" fill="#C4C4C4"/>
<path d="M15.989 27.0515V27.6174H17.9891V27.0515H20.2342C20.2532 21.2906 19.0704 19.8845 18.4765 19.9019C17.1109 19.5313 16.2492 19.7467 15.989 19.9019C14.5638 20.0664 14.0942 24.737 14.0371 27.0515H15.989Z" fill="#CCD1CB"/>
<path d="M19.6974 27.0767L18.7214 25.7335C15.3621 25.8539 14.56 23.3882 14.6463 22.0103C14.159 24.017 14.0371 25.6626 14.0371 27.0767H19.6974Z" fill="#9EA89F"/>
<path d="M15.5045 27.0769L15.6961 21.47C15.5806 22.4426 14.7379 25.6133 14.3306 27.0769H15.5045Z" fill="#7E8A80"/>
<path d="M18.5222 27.0769L18.3306 21.47C18.4461 22.4426 19.29 25.6133 19.6973 27.0769H18.5222Z" fill="#7E8A80"/>
<path d="M17.356 21.47H16.7217V27.0764H17.356V21.47Z" fill="#7E8A80"/>
<path d="M18.2587 22.9885C18.3361 21.486 17.3145 21.0418 16.7941 21.007C16.5745 20.108 17.4045 20.108 17.5264 20.108C19.029 20.005 19.128 21.9329 18.9897 22.9109C18.7701 23.3484 18.331 22.9885 18.2587 22.9885Z" fill="#EBEDEA"/>
<path d="M43.9958 27.0249V27.5908H45.9959V27.0249H48.241C48.26 21.264 47.0785 19.8579 46.4845 19.8753C45.1177 19.5047 44.256 19.7201 43.9958 19.8753C42.5706 20.0398 42.1011 24.7104 42.0439 27.0249H43.9958Z" fill="#CCD1CB"/>
<path d="M47.7042 27.05L46.7282 25.7055C43.3689 25.8273 42.5681 23.3616 42.6544 21.9836C42.1658 23.9891 42.0439 25.6359 42.0439 27.05H47.7042Z" fill="#9EA89F"/>
<path d="M43.5126 27.0503L43.7042 21.4434C43.5887 22.4146 42.7448 25.5867 42.3374 27.0503H43.5126Z" fill="#7E8A80"/>
<path d="M46.5305 27.0503L46.3389 21.4434C46.4543 22.4146 47.297 25.5867 47.7043 27.0503H46.5305Z" fill="#7E8A80"/>
<path d="M45.3628 21.4434H44.7285V27.0498H45.3628V21.4434Z" fill="#7E8A80"/>
<path d="M46.2648 22.9605C46.3435 21.4594 45.3218 21.0152 44.8015 20.9804C44.5819 20.0801 45.4107 20.08 45.5338 20.08C47.0364 19.9784 47.1354 21.9062 46.9971 22.8842C46.7775 23.3217 46.3384 22.9605 46.2648 22.9605Z" fill="#EBEDEA"/>
</svg>
