<svg width="89" height="87" viewBox="0 0 89 87" fill="none" xmlns="http://www.w3.org/2000/svg">
<path d="M88.3737 84.911C88.3737 84.2513 87.5079 82.8123 87.0752 82.1753H84.4084C84.0188 82.6421 83.7049 84.1936 83.5967 84.911C83.7452 85.587 85.3436 86.5606 86.1243 86.9629C86.7274 86.9025 88.3737 85.7359 88.3737 84.911Z" fill="#6C63FF"/>
<path d="M87.052 83.6637C86.627 83.5163 85.5495 83.3298 84.6404 83.7643C85.1196 84.0326 86.2729 84.3879 87.052 83.6637Z" fill="white"/>
<path d="M87.2378 84.8588C86.8128 84.7114 85.7353 84.5249 84.8262 84.9594C85.3054 85.2277 86.4587 85.5829 87.2378 84.8588Z" fill="white"/>
<path d="M73.718 86.1785V82.9399H69.9614C67.9579 83.6479 65.5554 85.394 64.6047 86.1785H73.718Z" fill="#6C63FF"/>
<path d="M70.0078 84.207C70.0448 84.0945 69.5054 83.4896 69.2425 83.2214L68.8251 83.4226L68.4309 83.6237C69.2101 84.1709 69.8609 84.254 70.0078 84.207Z" fill="white"/>
<path d="M69.0086 84.7099C69.0458 84.5973 68.5062 83.9923 68.2435 83.7241L67.8278 83.9454L67.48 84.1667C68.2591 84.714 68.8619 84.7569 69.0086 84.7099Z" fill="white"/>
<path d="M68.269 34.8616C67.9164 36.5996 67.5036 38.6971 67.3413 39.5286L69.5211 42.3449L69.8458 45.2416L69.1501 53.9521L68.6862 56.889L70.6573 66.5449C71.0747 67.8525 71.9466 70.5481 72.0951 70.8699C72.2435 71.1918 72.7908 79.0372 73.0458 82.9197H73.7878L75.1097 67.4501C75.1283 66.1627 74.0044 63.239 73.44 61.9382L73.7878 46.509C74.0739 46.3883 74.7387 46.1509 75.1097 46.167C75.5735 46.1871 75.8749 46.3682 76.4314 46.509C76.8768 46.6217 77.127 47.3739 77.1966 47.736L78.6344 57.6132C78.8972 58.3709 79.446 59.9226 79.5387 60.0674C79.6315 60.2123 81.3244 65.7872 82.1591 68.5566L83.481 72.4389L86.8434 82.1552H87.3767C87.4881 81.5597 87.0366 72.8414 86.797 68.5566C86.5929 66.1747 84.5323 62.3339 83.5274 60.7112V45.3824C83.4532 42.2604 81.2857 37.2554 80.2114 35.1432C75.5549 37.541 70.3095 35.9546 68.269 34.8616Z" fill="#323045"/>
<path d="M74.1825 68.6368L73.2549 82.8992H70.1243L68.8027 66.7257C68.4686 64.1186 67.7205 61.3211 67.388 60.2482C65.162 47.3738 66.4605 41.0573 67.388 39.5083C70.3562 40.6992 77.0503 39.696 80.0262 39.0457C81.0836 40.3169 81.8118 42.6599 82.0437 43.6724V61.0328C83.7689 63.5755 85.3597 66.9335 85.9394 68.2948L86.8669 82.1951H83.8291C81.3804 70.3346 79.4078 64.5129 78.7275 63.0846C76.2464 54.0524 75.11 46.6094 75.0173 46.6094C74.9431 46.6094 74.6463 46.3077 73.6956 46.6094L72.3737 47.7761V52.3123V56.8486C72.3737 60.0873 72.4897 62.6756 72.7215 63.4669C74.1316 66.1223 74.283 68.0199 74.1825 68.6368Z" fill="#3F4055"/>
<path d="M80.2577 35.3242C79.9795 32.54 81.6723 27.5929 82.5535 25.4672V27.5593L88.629 27.9817C88.2766 24.3447 87.0135 21.4909 86.426 20.5186C83.736 17.5735 80.5438 16.3142 79.2838 16.0527C78.7459 17.6782 76.5088 18.9965 75.4577 19.4525C72.8419 19.388 71.2759 17.5615 70.8198 16.6562C66.9611 17.8149 64.3422 24.6894 63.5151 27.9817L68.7559 28.2834C69.0342 28.9755 68.64 33.0108 68.4081 34.942C72.3967 37.4846 77.9698 36.2563 80.2577 35.3242Z" fill="#6C63FF"/>
<path d="M87.9799 34.0368V29.3901H87.0754C86.975 29.6649 86.7739 30.2953 86.7739 30.6171C86.7739 31.0194 86.5884 32.9908 86.5189 33.373C86.4493 33.7552 81.4868 31.965 81.3245 31.9448C81.1622 31.9247 69.7763 31.4418 69.6372 31.4418C74.1823 32.858 82.229 34.6536 85.8001 35.2035C87.4512 35.6702 87.9412 34.6202 87.9799 34.0368Z" fill="#FC9D97"/>
<path d="M83.6664 28.6858L83.5505 30.4762C80.7214 30.5231 74.3768 30.5889 71.6313 30.4762C71.2286 30.5058 70.3289 30.7436 69.6259 31.4417L67.5733 31.5021C67.0168 31.4216 67.3414 30.0202 67.5733 29.3296H64.1877C63.1303 31.5182 63.3914 33.5005 63.6542 34.2179C67.1419 34.7651 72.8062 33.5206 75.1098 32.9304C73.7647 32.6086 70.8935 31.804 69.6259 31.4417C73.6722 32.3537 82.6276 34.3064 86.0781 34.8214C86.5806 34.9622 87.5391 34.9501 87.3536 33.7753V29.3296L83.6664 28.6858Z" fill="#FFBD93"/>
<path d="M68.7562 31.462C67.643 31.2367 67.5194 30.0137 67.5967 29.4302C66.9288 30.9268 67.2412 31.4352 67.4807 31.5022L68.7562 31.462Z" fill="#FC9D97"/>
<path d="M82.2986 27.6801C83.4302 27.5996 87.2378 27.9953 89.0002 28.2031C88.9538 28.6189 88.8287 29.4504 88.6988 29.4504C88.5688 29.4504 84.3778 28.7798 82.2986 28.4445V27.6801Z" fill="white"/>
<path d="M68.7787 29.4705V28.1628L63.2134 28.022V29.3498L68.7787 29.4705Z" fill="white"/>
<path d="M83.3184 30.4963C82.7851 29.0684 81.069 29.9131 81.0227 29.9734L80.9067 30.4963H83.3184Z" fill="#FDC18D"/>
<path d="M77.4745 15.5901C78.3463 15.6545 79.0745 15.9657 79.3295 16.1131C78.9214 17.7707 76.516 19.0568 75.3643 19.4927C72.6186 19.2191 71.1748 17.5414 70.796 16.7368C70.5101 16.9513 70.1096 17.2357 70.796 16.6562C71.4824 16.0769 73.2464 15.7042 74.0424 15.5901V13.7595C75.0071 13.3734 76.6396 12.4185 77.3354 11.9492L77.4745 15.5901Z" fill="#FBBD8E"/>
<path d="M81.046 14.0414C80.7909 14.0816 77.5677 14.6248 77.4749 14.6248L77.3358 11.9292C77.4439 11.8821 77.6742 11.7762 77.73 11.728C77.7856 11.6796 77.9232 11.547 77.9851 11.4866L78.7271 11.1445L79.7473 10.4405C79.902 10.1589 80.2113 9.55141 80.2113 9.37437C80.2113 9.1531 80.2576 8.95195 80.2113 8.79103C80.1741 8.6622 80.1338 8.32157 80.1185 8.1673C80.0258 8.0265 79.7845 7.72077 79.5618 7.62419C79.3393 7.52761 78.99 7.58396 78.843 7.62419L78.4488 7.44315C78.2401 7.34923 77.7856 7.14143 77.6372 7.06097C77.4517 6.96039 76.8951 6.83969 76.8023 6.77935C76.7281 6.73098 75.9675 6.4507 75.5965 6.3167L73.7877 5.49182C71.3066 4.34525 70.5644 2.85657 70.5644 2.95715C70.5412 4.6671 68.7326 6.09528 68.6399 6.19586C68.5471 6.29658 69.0109 14.1219 68.1991 13.8604C67.8948 13.7623 66.4832 9.23356 68.0136 5.49182C68.1688 5.11274 68.2223 5.10963 68.2223 4.78779V3.82225C68.2223 3.72153 68.2919 3.07784 68.3614 2.95715C68.4312 2.83646 68.5703 2.51461 68.5935 2.35369C68.6167 2.19277 68.9413 1.73011 69.1268 1.46861C69.3123 1.20697 69.8456 0.945473 70.2166 0.74432C70.5876 0.543167 71.005 0.382245 71.0978 0.382245C71.1721 0.382245 72.1335 0.234782 72.6051 0.160976L73.95 0.0402832C74.5531 0.0670543 75.8006 0.128733 75.9675 0.160976C76.1762 0.201207 77.1503 0.321899 77.3358 0.382245C77.4841 0.43061 78.1861 0.777892 78.5184 0.945471L80.1881 2.35369C80.7059 2.98392 81.751 4.26479 81.788 4.34525C81.8252 4.42571 82.3292 5.47851 82.5764 5.9947C82.6615 6.3167 82.8455 7.00062 82.9012 7.16154C82.9568 7.32246 83.0325 8.18077 83.0635 8.58973V10.9232C83.048 11.453 82.994 12.5728 82.9012 12.8142C82.7853 13.116 82.5532 13.4177 82.2286 13.639C81.904 13.8604 81.3011 14.0012 81.046 14.0414Z" fill="#3E0727"/>
<path d="M68.1528 13.136V10.561C68.2377 10.6147 68.4217 10.7301 68.4775 10.7622C68.547 10.8024 68.6861 10.8829 68.7789 10.9432C68.8531 10.9916 68.9489 11.1244 68.9876 11.1848L69.1035 11.5871C70.3326 14.0011 71.9558 14.4236 72.2804 14.4236C72.5403 14.4236 73.5944 14.0212 74.0892 13.8201V14.8259C73.9423 14.8595 73.5511 14.9265 73.1617 14.9265C72.6746 14.9265 72.1877 14.9667 71.9558 14.9265C71.7239 14.8862 71.0283 14.8259 70.7732 14.8259C70.5182 14.8259 70.2863 14.7052 69.9383 14.6247C69.5905 14.5443 69.0803 14.5443 68.8021 14.4236C68.5238 14.3029 68.4775 14.2626 68.3847 14.1822C68.292 14.1017 68.1528 13.8603 68.1528 13.639V13.136Z" fill="#3E0727"/>
<path d="M80.211 9.45483C80.5079 7.73291 79.3531 7.34258 78.8893 7.70466C78.5369 7.41506 75.9443 6.33682 74.692 5.85391C72.874 5.27456 71.1828 3.62778 70.5644 2.87671C70.6108 3.78204 69.8456 4.86826 69.7528 4.92861C69.2705 5.47571 68.5469 6.32336 68.2454 6.69889C67.7817 7.58396 68.1063 9.91748 68.1063 9.91748C69.6089 13.4097 71.5615 14.3767 72.35 14.4236C73.6671 14.1822 76.2689 12.7406 77.4051 12.0498C79.5758 11.1648 80.1802 9.95106 80.211 9.45483Z" fill="#FCBC90"/>
<path d="M79.2603 8.26758C78.9511 8.42851 78.379 9.0724 78.5645 10.3599C79.1057 10.2929 80.0024 9.78047 79.2603 8.26758Z" fill="#FF9895"/>
<path d="M74.4145 9.45459C73.9662 9.45459 73.6029 9.04934 73.6029 8.54944C73.6029 8.04954 73.9662 7.64429 74.4145 7.64429C74.8627 7.64429 75.2261 8.04954 75.2261 8.54944C75.2261 9.04934 74.8627 9.45459 74.4145 9.45459Z" fill="#15191C"/>
<path d="M69.66 9.45483C69.3014 9.45483 69.0107 9.13058 69.0107 8.73059C69.0107 8.3306 69.3014 8.00635 69.66 8.00635C70.0186 8.00635 70.3093 8.3306 70.3093 8.73059C70.3093 9.13058 70.0186 9.45483 69.66 9.45483Z" fill="#15191C"/>
<path d="M79.0165 7.24731C78.46 7.49534 77.4443 8.42608 77.8339 10.1641" stroke="#3E0727" stroke-width="3"/>
<path d="M77.0344 8.87134C77.3127 8.42866 78.0964 7.52747 79.0055 7.46313" stroke="#3E0727" stroke-width="3"/>
<path d="M71.5616 9.43457C71.1055 9.82354 70.4439 10.6736 71.4457 10.9634" stroke="#FF9895"/>
<path d="M76.3157 6.47752C75.6741 6.53787 73.9272 6.47752 73.1155 7.22192C73.1697 6.53121 74.646 5.17005 76.3157 6.47752Z" fill="#3E0727"/>
<path d="M68.2227 6.63847C68.8642 6.69882 70.1009 6.74231 70.9126 7.48657C70.8584 6.796 69.5444 5.06933 68.2227 6.63847Z" fill="#3E0727"/>
<path d="M74.53 10.2319C75.5885 10.2319 76.4465 9.48756 76.4465 8.56934C76.4465 7.65111 75.5885 6.90674 74.53 6.90674C73.4716 6.90674 72.6135 7.65111 72.6135 8.56934C72.6135 9.48756 73.4716 10.2319 74.53 10.2319Z" stroke="black" stroke-width="0.5"/>
<path d="M76.2126 8.52881L78.7403 7.54321" stroke="black" stroke-width="0.5"/>
<path d="M69.3819 10.2322C70.4403 10.2322 71.2984 9.48781 71.2984 8.56958C71.2984 7.65135 70.4403 6.90698 69.3819 6.90698C68.3234 6.90698 67.4653 7.65135 67.4653 8.56958C67.4653 9.48781 68.3234 10.2322 69.3819 10.2322Z" stroke="black" stroke-width="0.5"/>
<path d="M71.3301 8.5293H72.4664" stroke="black" stroke-width="0.5"/>
<path d="M69.3349 8.64893C69.4371 8.64893 69.52 8.5681 69.52 8.46838C69.52 8.36867 69.4371 8.28784 69.3349 8.28784C69.2327 8.28784 69.1499 8.36867 69.1499 8.46838C69.1499 8.5681 69.2327 8.64893 69.3349 8.64893Z" fill="white"/>
<path d="M74.1125 8.64893C74.2147 8.64893 74.2975 8.5681 74.2975 8.46838C74.2975 8.36867 74.2147 8.28784 74.1125 8.28784C74.0103 8.28784 73.9275 8.36867 73.9275 8.46838C73.9275 8.5681 74.0103 8.64893 74.1125 8.64893Z" fill="white"/>
<path d="M75.2953 19.5129L74.762 24.1802" stroke="#005957" stroke-width="0.5"/>
<path d="M76.2926 20.76C76.5744 20.76 76.8028 20.5619 76.8028 20.3175C76.8028 20.0731 76.5744 19.875 76.2926 19.875C76.0109 19.875 75.7825 20.0731 75.7825 20.3175C75.7825 20.5619 76.0109 20.76 76.2926 20.76Z" fill="#FFC927"/>
<path d="M76.2926 20.76C76.5744 20.76 76.8028 20.5619 76.8028 20.3175C76.8028 20.0731 76.5744 19.875 76.2926 19.875C76.0109 19.875 75.7825 20.0731 75.7825 20.3175C75.7825 20.5619 76.0109 20.76 76.2926 20.76Z" fill="#005957"/>
<path d="M76.0604 22.4497C76.3422 22.4497 76.5706 22.2516 76.5706 22.0072C76.5706 21.7628 76.3422 21.5647 76.0604 21.5647C75.7787 21.5647 75.5503 21.7628 75.5503 22.0072C75.5503 22.2516 75.7787 22.4497 76.0604 22.4497Z" fill="#005957"/>
<path d="M75.7824 23.8982C76.0641 23.8982 76.2925 23.7001 76.2925 23.4557C76.2925 23.2113 76.0641 23.0132 75.7824 23.0132C75.5006 23.0132 75.2722 23.2113 75.2722 23.4557C75.2722 23.7001 75.5006 23.8982 75.7824 23.8982Z" fill="#005957"/>
<path d="M69.2429 35.4451C69.1888 35.8407 68.8533 36.6238 67.9443 36.5916" stroke="white" stroke-width="2"/>
<path d="M70.0746 35.793C69.9822 36.2519 69.4097 37.1603 67.8582 37.1229" stroke="white" stroke-width="2"/>
<path d="M0.626221 84.911C0.626221 84.2513 1.49184 82.8123 1.92473 82.1753H4.59148C4.98107 82.6421 5.29495 84.1936 5.40322 84.911C5.25472 85.587 3.6563 86.5606 2.87559 86.9629C2.27255 86.9025 0.626221 85.7359 0.626221 84.911Z" fill="#5992F1"/>
<path d="M1.94775 83.6637C2.37281 83.5163 3.45037 83.3298 4.35948 83.7643C3.8802 84.0326 2.72694 84.3879 1.94775 83.6637Z" fill="white"/>
<path d="M1.76245 84.8588C2.1875 84.7114 3.26506 84.5249 4.17416 84.9594C3.69488 85.2277 2.54163 85.5829 1.76245 84.8588Z" fill="white"/>
<path d="M15.2817 86.1785V82.9399H19.0383C21.0418 83.6479 23.4443 85.394 24.395 86.1785H15.2817Z" fill="#5992F1"/>
<path d="M18.9921 84.207C18.9549 84.0945 19.4943 83.4896 19.7573 83.2214L20.1746 83.4226L20.5688 83.6237C19.7897 84.1709 19.1389 84.254 18.9921 84.207Z" fill="white"/>
<path d="M19.9906 84.7099C19.9534 84.5973 20.4931 83.9923 20.7558 83.7241L21.1715 83.9454L21.5193 84.1667C20.7401 84.714 20.1374 84.7569 19.9906 84.7099Z" fill="white"/>
<path d="M20.7308 34.8616C21.0834 36.5996 21.4962 38.6971 21.6585 39.5286L19.4787 42.3449L19.154 45.2416L19.8497 53.9521L20.3136 56.889L18.3425 66.5449C17.9251 67.8525 17.0532 70.5481 16.9047 70.8699C16.7563 71.1918 16.209 79.0372 15.954 82.9197H15.212L13.8901 67.4501C13.8715 66.1627 14.9954 63.239 15.5598 61.9382L15.212 46.509C14.9259 46.3883 14.2611 46.1509 13.8901 46.167C13.4263 46.1871 13.1249 46.3682 12.5684 46.509C12.123 46.6217 11.8727 47.3739 11.8032 47.736L10.3654 57.6132C10.1026 58.3709 9.5538 59.9226 9.46105 60.0674C9.3683 60.2123 7.67542 65.7872 6.84066 68.5566L5.51879 72.4389L2.15639 82.1552H1.62307C1.51173 81.5597 1.96321 72.8414 2.20276 68.5566C2.40685 66.1747 4.46749 62.3339 5.47241 60.7112V45.3824C5.54658 42.2604 7.71412 37.2554 8.78843 35.1432C13.4449 37.541 18.6903 35.9546 20.7308 34.8616Z" fill="#323045"/>
<path d="M14.8174 68.6368L15.7451 82.8992H18.8756L20.1973 66.7257C20.5313 64.1186 21.2795 61.3211 21.6119 60.2482C23.838 47.3738 22.5394 41.0573 21.6119 39.5083C18.6437 40.6992 11.9496 39.696 8.97378 39.0457C7.91635 40.3169 7.18815 42.6599 6.95627 43.6724V61.0328C5.231 63.5755 3.64026 66.9335 3.06057 68.2948L2.13306 82.1951H5.17082C7.61951 70.3346 9.59217 64.5129 10.2725 63.0846C12.7535 54.0524 13.8899 46.6094 13.9827 46.6094C14.0568 46.6094 14.3537 46.3077 15.3044 46.6094L16.6262 47.7761V52.3123V56.8486C16.6262 60.0873 16.5103 62.6756 16.2784 63.4669C14.8684 66.1223 14.717 68.0199 14.8174 68.6368Z" fill="#3F4055"/>
<path d="M8.74213 35.3242C9.02039 32.54 7.32751 27.5929 6.44638 25.4672V27.5593L0.37085 27.9817C0.723269 24.3447 1.98632 21.4909 2.57386 20.5186C5.2638 17.5735 8.45604 16.3142 9.71602 16.0527C10.2539 17.6782 12.491 18.9965 13.5422 19.4525C16.1579 19.388 17.724 17.5615 18.1801 16.6562C22.0388 17.8149 24.6576 24.6894 25.4847 27.9817L20.2439 28.2834C19.9657 28.9755 20.3599 33.0108 20.5918 34.942C16.6031 37.4846 11.03 36.2563 8.74213 35.3242Z" fill="#5992F1"/>
<path d="M1.02026 34.0368V29.3901H1.92476C2.02518 29.6649 2.2262 30.2953 2.2262 30.6171C2.2262 31.0194 2.4117 32.9908 2.48126 33.373C2.55082 33.7552 7.51334 31.965 7.67566 31.9448C7.83797 31.9247 19.2238 31.4418 19.363 31.4418C14.8178 32.858 6.77116 34.6536 3.20008 35.2035C1.54898 35.6702 1.05897 34.6202 1.02026 34.0368Z" fill="#FC9D97"/>
<path d="M5.33374 28.6858L5.44968 30.4762C8.27876 30.5231 14.6233 30.5889 17.3689 30.4762C17.7716 30.5058 18.6713 30.7436 19.3743 31.4417L21.4269 31.5021C21.9834 31.4216 21.6588 30.0202 21.4269 29.3296H24.8125C25.8699 31.5182 25.6087 33.5005 25.346 34.2179C21.8583 34.7651 16.194 33.5206 13.8904 32.9304C15.2354 32.6086 18.1066 31.804 19.3743 31.4417C15.328 32.3537 6.37258 34.3064 2.92204 34.8214C2.41958 34.9622 1.46104 34.9501 1.64654 33.7753V29.3296L5.33374 28.6858Z" fill="#FFBD93"/>
<path d="M20.2439 31.462C21.3571 31.2367 21.4807 30.0137 21.4035 29.4302C22.0713 30.9268 21.759 31.4352 21.5194 31.5022L20.2439 31.462Z" fill="#FC9D97"/>
<path d="M6.70159 27.6801C5.57 27.5996 1.76244 27.9953 0 28.2031C0.0463754 28.6189 0.171522 29.4504 0.301441 29.4504C0.431361 29.4504 4.62237 28.7798 6.70159 28.4445V27.6801Z" fill="white"/>
<path d="M20.2209 29.4705V28.1628L25.7863 28.022V29.3498L20.2209 29.4705Z" fill="white"/>
<path d="M5.68115 30.4963C6.21447 29.0684 7.93053 29.9131 7.9769 29.9734L8.09284 30.4963H5.68115Z" fill="#FDC18D"/>
<path d="M11.5249 15.5901C10.6532 15.6545 9.92499 15.9657 9.66992 16.1131C10.0781 17.7707 12.4835 19.0568 13.6352 19.4927C16.3809 19.2191 17.8247 17.5414 18.2035 16.7368C18.4894 16.9513 18.8899 17.2357 18.2035 16.6562C17.5171 16.0769 15.7531 15.7042 14.9571 15.5901V13.7595C13.9924 13.3734 12.3599 12.4185 11.6641 11.9492L11.5249 15.5901Z" fill="#FBBD8E"/>
<path d="M8.00041 14.0011C8.25548 14.0414 11.4787 14.5845 11.5715 14.5845L11.7106 11.8889C11.6024 11.8418 11.372 11.7359 11.3164 11.6877C11.2607 11.6394 11.1231 11.5067 11.0614 11.4463L10.3192 11.1042L9.29893 10.4002C9.14429 10.1186 8.83517 9.51113 8.83517 9.33409C8.83517 9.11282 8.7888 8.91167 8.83517 8.75074C8.87217 8.62192 8.91241 8.28129 8.92792 8.12702C9.02068 7.98621 9.26176 7.68049 9.48443 7.58391C9.7071 7.48732 10.0564 7.54368 10.2032 7.58391L10.5974 7.40287C10.8063 7.30895 11.2607 7.10114 11.4092 7.02068C11.5947 6.92011 12.1512 6.79941 12.2439 6.73906C12.3181 6.6907 13.0787 6.41042 13.4497 6.27641L15.2585 5.45154C17.7398 4.30497 18.4818 2.81629 18.4818 2.91687C18.505 4.62681 20.3138 6.055 20.4065 6.15558C20.4993 6.2563 20.8239 14.1218 20.8239 13.8402C20.8239 13.5586 22.3545 9.37432 20.8239 5.63258C20.6688 5.25349 20.8239 5.06935 20.8239 4.7475V3.78197C20.8239 3.68125 20.7543 3.03756 20.6848 2.91687C20.6152 2.79617 20.4761 2.47433 20.4529 2.31341C20.4297 2.15248 20.1051 1.68983 19.9196 1.42834C19.7341 1.16669 19.2006 0.90519 18.8296 0.704037C18.4586 0.502884 18.0412 0.341962 17.9485 0.341962C17.8743 0.341962 16.9127 0.194499 16.4413 0.120693L15.0962 0C14.4933 0.0267711 13.2458 0.0884495 13.0787 0.120693C12.87 0.160924 11.8961 0.281616 11.7106 0.341962C11.5621 0.390327 10.8603 0.737609 10.5279 0.905187L8.85836 2.31341C8.34039 2.94378 7.29541 4.22451 7.25824 4.30497C7.22124 4.38543 6.71725 5.43823 6.46985 5.95442C6.38477 6.27641 6.20081 6.96034 6.14523 7.12126C6.08947 7.28218 6.01377 8.14048 5.98291 8.54944V10.883C5.99843 11.4128 6.05248 12.5326 6.14523 12.7739C6.26116 13.0757 6.49304 13.3774 6.81767 13.5988C7.1423 13.8201 7.74518 13.9609 8.00041 14.0011Z" fill="#3E0727"/>
<path d="M20.8934 13.0957V10.5208C20.8083 10.5744 20.6244 10.6898 20.5688 10.7219C20.4992 10.7621 20.3599 10.8426 20.2672 10.903C20.193 10.9513 20.0972 11.0841 20.0585 11.1445L19.9425 11.5468C18.7136 13.9608 17.0903 14.3833 16.7657 14.3833C16.506 14.3833 15.4516 13.981 14.957 13.7798V14.7856C15.1038 14.8192 15.4949 14.8862 15.8845 14.8862C16.3715 14.8862 16.8584 14.9264 17.0903 14.8862C17.3222 14.8459 18.018 14.7856 18.273 14.7856C18.5281 14.7856 18.76 14.6649 19.1078 14.5844C19.4556 14.504 19.9657 14.504 20.244 14.3833C20.5224 14.2626 20.5688 14.2224 20.6615 14.1419C20.7543 14.0614 20.8934 13.82 20.8934 13.5988V13.0957Z" fill="#3E0727"/>
<path d="M8.83513 9.41455C8.53829 7.69263 9.5802 7.34859 10.1446 7.46929C10.497 7.17969 13.1018 6.29654 14.354 5.81363C16.172 5.23428 17.8633 3.58749 18.4817 2.83643C18.4354 3.74176 19.2006 4.82798 19.2933 4.88832C19.7756 5.43558 20.4991 6.28308 20.8007 6.65861C21.2644 7.54368 20.9398 9.8772 20.9398 9.8772C19.437 13.3694 17.4845 14.3364 16.6961 14.3833C15.379 14.1419 12.7772 12.7003 11.6408 12.0096C9.4704 11.1245 8.86599 9.91077 8.83513 9.41455Z" fill="#FCBC90"/>
<path d="M9.78631 8.22729C10.0954 8.38838 10.6674 9.03211 10.4819 10.3196C9.94095 10.2526 9.04429 9.74019 9.78631 8.22729Z" fill="#FF9895"/>
<path d="M14.6322 9.41431C15.0804 9.41431 15.4438 9.00906 15.4438 8.50916C15.4438 8.00925 15.0804 7.604 14.6322 7.604C14.1839 7.604 13.8206 8.00925 13.8206 8.50916C13.8206 9.00906 14.1839 9.41431 14.6322 9.41431Z" fill="#15191C"/>
<path d="M19.3861 9.41431C19.7447 9.41431 20.0355 9.09005 20.0355 8.69007C20.0355 8.29008 19.7447 7.96582 19.3861 7.96582C19.0275 7.96582 18.7368 8.29008 18.7368 8.69007C18.7368 9.09005 19.0275 9.41431 19.3861 9.41431Z" fill="#15191C"/>
<path d="M9.88892 7.09961C10.4454 7.34764 11.4611 8.27838 11.0715 10.0164" stroke="#3E0727" stroke-width="2"/>
<path d="M12.2009 8.50781C11.9226 8.06513 11.1388 7.16395 10.2297 7.09961" stroke="#3E0727" stroke-width="3"/>
<path d="M16.7144 9.06226C17.4589 9.52334 18.5388 10.5311 16.9036 10.8745" stroke="#FF9895" stroke-width="0.5"/>
<path d="M12.7307 6.437C13.3723 6.49734 15.1192 6.43699 15.9308 7.1814C15.8767 6.49068 14.4004 5.12952 12.7307 6.437Z" fill="#3E0727"/>
<path d="M20.8235 6.59819C20.1819 6.65854 18.9451 6.70202 18.1335 7.44629C18.1876 6.75571 19.5016 5.02905 20.8235 6.59819Z" fill="#3E0727"/>
<path d="M15.2119 11.386C15.7529 11.7012 17.1783 12.2188 18.5511 11.7683C18.4507 12.5863 17.642 13.655 15.2119 11.386Z" fill="white"/>
<path d="M37.032 54.2813C37.1458 54.2813 37.2412 54.3168 37.3185 54.3878C37.3957 54.4548 37.4344 54.5397 37.4344 54.6422V58.0619C37.4344 58.1644 37.3913 58.2512 37.3048 58.3222C37.2184 58.3892 37.1117 58.4228 36.9843 58.4228C36.8569 58.4228 36.7524 58.3892 36.6706 58.3222C36.5887 58.2512 36.5478 58.1644 36.5478 58.0619V55.2575L36.125 55.4823C36.0568 55.5178 35.984 55.5356 35.9068 55.5356C35.793 55.5356 35.6953 55.4981 35.6135 55.4232C35.5363 55.3482 35.4976 55.2653 35.4976 55.1747C35.4976 55.1115 35.5158 55.0524 35.5521 54.9972C35.593 54.942 35.6454 54.8985 35.709 54.867L36.7388 54.3345C36.816 54.2991 36.9139 54.2813 37.032 54.2813ZM44.5102 54.2754C44.624 54.2754 44.7217 54.3109 44.8035 54.3819C44.8899 54.4489 44.9331 54.5338 44.9331 54.6363V58.0619C44.9331 58.1644 44.8945 58.2512 44.8171 58.3222C44.7399 58.3892 44.6376 58.4228 44.5102 58.4228C44.383 58.4228 44.2784 58.3892 44.1965 58.3222C44.1193 58.2552 44.0806 58.1684 44.0806 58.0619V55.6776L42.9553 57.1685C42.91 57.2158 42.8576 57.2553 42.7984 57.2868C42.7394 57.3145 42.6781 57.3263 42.6143 57.3223C42.5553 57.3263 42.4962 57.3145 42.437 57.2868C42.378 57.2553 42.3257 57.2158 42.2801 57.1685L41.1548 55.6243V58.0619C41.1548 58.1684 41.1185 58.2552 41.0457 58.3222C40.9731 58.3892 40.8776 58.4228 40.7593 58.4228C40.6457 58.4228 40.5525 58.3892 40.4797 58.3222C40.407 58.2512 40.3706 58.1644 40.3706 58.0619V54.6363C40.3706 54.5376 40.4115 54.4529 40.4933 54.3819C40.5798 54.3109 40.6821 54.2754 40.8002 54.2754C40.8684 54.2754 40.9366 54.2912 41.0048 54.3227C41.073 54.3504 41.1253 54.3878 41.1617 54.4351L42.6484 56.4171L44.1761 54.4351C44.2126 54.3878 44.2603 54.3504 44.3193 54.3227C44.3831 54.2912 44.4466 54.2754 44.5102 54.2754ZM49.1638 56.7662C49.1592 56.8608 49.1161 56.9378 49.0342 56.9969C48.9524 57.0561 48.8569 57.0857 48.7478 57.0857H46.4972C46.5518 57.3183 46.6768 57.5017 46.8723 57.6359C47.0677 57.766 47.2883 57.8311 47.5339 57.8311C47.7202 57.8311 47.8656 57.8174 47.9703 57.7897C48.0748 57.7582 48.1567 57.7266 48.2158 57.6951C48.2794 57.6596 48.3226 57.6359 48.3454 57.6241C48.4273 57.5886 48.5045 57.5708 48.5773 57.5708C48.6728 57.5708 48.7546 57.6004 48.8228 57.6596C48.891 57.7187 48.9251 57.7878 48.9251 57.8666C48.9251 57.9731 48.8613 58.0697 48.7342 58.1565C48.6068 58.2472 48.4363 58.3241 48.2227 58.3873C48.0089 58.4504 47.793 58.4819 47.5748 58.4819C47.1929 58.4819 46.8587 58.4129 46.5722 58.2749C46.2902 58.1369 46.072 57.9475 45.9175 57.7069C45.7629 57.4624 45.6857 57.1882 45.6857 56.8845C45.6857 56.5453 45.7675 56.2475 45.9312 55.9911C46.0948 55.7348 46.3107 55.5396 46.5791 55.4054C46.8473 55.2674 47.1337 55.1983 47.4384 55.1983C47.7384 55.1983 48.0203 55.2693 48.284 55.4113C48.5522 55.5533 48.7659 55.7446 48.9251 55.9852C49.0842 56.2259 49.1638 56.4862 49.1638 56.7662ZM47.4384 55.8491C46.9108 55.8491 46.5995 56.0641 46.504 56.494H48.2909V56.4526C48.2726 56.287 48.1794 56.145 48.0112 56.0266C47.843 55.9083 47.652 55.8491 47.4384 55.8491ZM51.6059 57.7542C51.6694 57.7542 51.7262 57.7819 51.7763 57.837C51.8309 57.8884 51.8582 57.9573 51.8582 58.0441C51.8582 58.1506 51.79 58.2413 51.6536 58.3163C51.5216 58.3873 51.3716 58.4228 51.2035 58.4228C50.9215 58.4228 50.6828 58.3714 50.4874 58.2689C50.2964 58.1624 50.2009 57.9395 50.2009 57.6004V55.9675H49.8872C49.7781 55.9675 49.6871 55.936 49.6144 55.8728C49.5416 55.8097 49.5053 55.7308 49.5053 55.6361C49.5053 55.5455 49.5416 55.4705 49.6144 55.4113C49.6871 55.3482 49.7781 55.3167 49.8872 55.3167H50.2009V54.938C50.2009 54.8355 50.2395 54.7506 50.3169 54.6836C50.3987 54.6126 50.4986 54.5771 50.617 54.5771C50.7305 54.5771 50.826 54.6126 50.9034 54.6836C50.9806 54.7506 51.0193 54.8355 51.0193 54.938V55.3167H51.5035C51.6127 55.3167 51.7035 55.3482 51.7763 55.4113C51.849 55.4745 51.8855 55.5533 51.8855 55.648C51.8855 55.7387 51.849 55.8156 51.7763 55.8787C51.7035 55.9379 51.6127 55.9675 51.5035 55.9675H51.0193V57.5708C51.0193 57.6536 51.0442 57.7147 51.0944 57.7542C51.1443 57.7897 51.2125 57.8075 51.299 57.8075C51.3353 57.8075 51.3852 57.7996 51.449 57.7838C51.5035 57.7641 51.5557 57.7542 51.6059 57.7542ZM55.8772 56.7662C55.8726 56.8608 55.8294 56.9378 55.7476 56.9969C55.6657 57.0561 55.5703 57.0857 55.4611 57.0857H53.2106C53.2651 57.3183 53.3901 57.5017 53.5857 57.6359C53.7811 57.766 54.0017 57.8311 54.2472 57.8311C54.4336 57.8311 54.579 57.8174 54.6837 57.7897C54.7882 57.7582 54.87 57.7266 54.9292 57.6951C54.9928 57.6596 55.0359 57.6359 55.0588 57.6241C55.1406 57.5886 55.2178 57.5708 55.2906 57.5708C55.3861 57.5708 55.468 57.6004 55.5362 57.6596C55.6044 57.7187 55.6385 57.7878 55.6385 57.8666C55.6385 57.9731 55.5747 58.0697 55.4475 58.1565C55.3201 58.2472 55.1496 58.3241 54.936 58.3873C54.7222 58.4504 54.5064 58.4819 54.2881 58.4819C53.9062 58.4819 53.572 58.4129 53.2856 58.2749C53.0036 58.1369 52.7854 57.9475 52.6309 57.7069C52.4762 57.4624 52.399 57.1882 52.399 56.8845C52.399 56.5453 52.4808 56.2475 52.6445 55.9911C52.8082 55.7348 53.024 55.5396 53.2924 55.4054C53.5606 55.2674 53.847 55.1983 54.1517 55.1983C54.4518 55.1983 54.7336 55.2693 54.9974 55.4113C55.2656 55.5533 55.4792 55.7446 55.6385 55.9852C55.7975 56.2259 55.8772 56.4862 55.8772 56.7662ZM54.1517 55.8491C53.6242 55.8491 53.3129 56.0641 53.2174 56.494H55.0042V56.4526C54.986 56.287 54.8927 56.145 54.7246 56.0266C54.5563 55.9083 54.3654 55.8491 54.1517 55.8491ZM58.4556 55.1983C58.592 55.1983 58.7055 55.2319 58.7966 55.2989C58.8921 55.3659 58.9398 55.4449 58.9398 55.5356C58.9398 55.6579 58.9033 55.7505 58.8307 55.8136C58.7579 55.8728 58.6714 55.9024 58.5715 55.9024C58.5033 55.9024 58.4259 55.8886 58.3397 55.861C58.326 55.857 58.2941 55.8491 58.2442 55.8373C58.1987 55.8255 58.1487 55.8196 58.0941 55.8196C57.9758 55.8196 57.8623 55.8511 57.7531 55.9142C57.644 55.9774 57.553 56.074 57.4803 56.2041C57.4121 56.3303 57.378 56.4822 57.378 56.6597V58.0619C57.378 58.1644 57.3393 58.2512 57.2621 58.3222C57.1847 58.3892 57.087 58.4228 56.9689 58.4228C56.8505 58.4228 56.7528 58.3892 56.6756 58.3222C56.5982 58.2512 56.5597 58.1644 56.5597 58.0619V55.6184C56.5597 55.5159 56.5982 55.431 56.6756 55.364C56.7528 55.293 56.8505 55.2575 56.9689 55.2575C57.087 55.2575 57.1847 55.293 57.2621 55.364C57.3393 55.431 57.378 55.5159 57.378 55.6184V55.6953C57.4826 55.5337 57.6326 55.4113 57.8282 55.3285C58.0236 55.2417 58.2328 55.1983 58.4556 55.1983Z" fill="#323045"/>
<path d="M32.9264 55.3166C33.0355 55.3166 33.1264 55.3481 33.1992 55.4113C33.272 55.4704 33.3083 55.5473 33.3083 55.642C33.3083 55.7367 33.272 55.8155 33.1992 55.8786C33.1264 55.9378 33.0355 55.9674 32.9264 55.9674H31.9716V56.7424C31.9716 56.8529 31.9285 56.9436 31.842 57.0146C31.7602 57.0856 31.6557 57.1211 31.5283 57.1211C31.401 57.1211 31.2942 57.0856 31.2078 57.0146C31.1259 56.9436 31.085 56.8529 31.085 56.7424V55.9674H30.1507C30.0416 55.9674 29.9507 55.9359 29.8779 55.8727C29.8051 55.8096 29.7688 55.7307 29.7688 55.6361C29.7688 55.5414 29.8051 55.4645 29.8779 55.4053C29.9507 55.3462 30.0416 55.3166 30.1507 55.3166H31.085V54.435C31.085 54.3246 31.1259 54.2339 31.2078 54.1629C31.2942 54.0919 31.4033 54.0564 31.5351 54.0564C31.6625 54.0564 31.767 54.0919 31.8488 54.1629C31.9307 54.2339 31.9716 54.3246 31.9716 54.435V55.3166H32.9264Z" fill="#323045"/>
<path d="M33.5882 57.8311H29.6667V58.8665H33.5882V57.8311Z" fill="#323045"/>
<path d="M25.4895 48.2173V54.7251" stroke="#323045"/>
<path d="M62.0615 48.3652V54.8731" stroke="#323045"/>
<path d="M25.5747 51.5452H62.1465" stroke="#323045"/>
</svg>
