<svg width="65" height="87" viewBox="0 0 65 87" fill="none" xmlns="http://www.w3.org/2000/svg">
<path d="M26.2334 49.4481L25.9875 36.2693C26.3958 36.6425 27.2452 37.4236 27.3763 37.5614C27.5403 37.7337 29.5014 40.3177 29.8277 40.49C30.1541 40.6622 31.4625 42.4711 31.7888 42.7295C32.1152 42.988 32.1971 43.5048 32.6055 43.8493C33.0153 44.1938 33.1777 44.3661 34.4861 44.6246C35.793 44.883 35.3027 44.7967 36.4457 44.7967C37.5901 44.7967 37.836 44.7106 38.2443 44.7967C38.6527 44.883 38.4887 45.3998 38.4887 45.9166C38.4887 46.4333 38.4887 47.1225 38.2443 47.7254C37.9985 48.3283 38.3263 49.4481 38.4887 49.9649C38.6527 50.4817 38.979 51.1709 38.979 51.4293C38.979 51.6361 38.216 52.2044 37.836 52.4628C37.237 52.9223 35.6782 54.0306 34.2402 54.7886C32.443 55.736 29.1735 54.2718 28.9291 54.2718C28.7324 54.2718 27.05 52.5491 26.2334 51.6877V49.4481Z" fill="white"/>
<path d="M29.175 45.3998C28.1289 42.7812 28.7383 40.9207 29.175 40.3176C29.6653 40.6909 30.7427 41.4891 31.1346 41.6958C31.6249 41.9542 31.7068 42.5573 32.0347 43.2463C32.361 43.9355 33.0957 43.8492 33.9138 44.1077C34.5665 44.3144 35.6022 44.5384 36.0373 44.6245H38.4068C38.3531 45.1987 38.2443 46.4162 38.2443 46.6919C38.2443 47.0364 38.0804 48.9314 38.0804 49.2759C38.0804 49.6204 38.4887 51.257 38.7346 51.257C37.8196 53.1176 35.8466 53.9273 34.9763 54.0996C34.0598 51.6877 33.8855 48.5581 33.9138 47.2948C31.4296 47.2258 29.7189 46.0027 29.175 45.3998Z" fill="#E3E2FF"/>
<path d="M10.6266 60.2152C5.33196 62.6959 1.7346 72.1565 0.999935 76.0326C5.91759 81.7665 26.5598 86.2225 32.5251 86.1651C47.6893 86.6475 60.0863 81.0596 64.5569 77.4465C63.548 74.6614 60.3545 67.2267 58.9165 64.2636C57.4784 61.3006 55.4309 58.7796 54.586 57.8895C52.1018 54.8576 47.5045 53.8698 45.5166 53.755C43.2277 53.6862 41.4856 52.3195 40.9402 51.6016C39.5022 56.632 34.7574 58.0906 32.5251 58.2341C27.752 58.7164 24.7075 54.7599 23.7821 52.7215C22.736 53.6172 14.5757 58.0905 10.6266 60.2152Z" fill="url(#paint0_linear)"/>
<path d="M25.9056 50.568L23.7001 52.7213C26.1842 57.6138 30.5088 58.4924 32.3611 58.3201C38.1789 57.6309 40.4782 53.4964 40.9402 51.5154L39.3069 50.1372C37.8689 53.9961 34.0763 54.9608 32.3611 54.9608C28.7653 55.0986 26.5598 52.0897 25.9056 50.568Z" fill="#5D87F4" stroke="#040047" stroke-width="0.5"/>
<path d="M26.5598 37.0447L26.6418 51.2572L25.9056 50.5682L25.5793 38.3368C25.3825 36.1316 24.5719 33.9726 24.1904 33.1686C21.4439 32.6173 20.7585 30.1252 20.7585 28.9479C20.6273 26.1916 22.4468 24.8707 23.3723 24.555C22.0654 22.7633 21.0312 18.6403 20.6765 16.8028C19.7615 14.1842 20.4589 12.0366 20.9224 11.2901C22.1637 8.80925 24.9802 8.1317 26.2335 8.10296C27.1484 4.86433 30.3732 2.67634 31.8709 1.98733C35.0733 0.264647 40.1236 -0.0512654 42.2486 0.00623065C43.7999 0.0635696 47.4941 0.850288 49.8471 3.53768C52.2002 6.22522 52.4609 9.7108 52.2985 11.1177C52.2985 12.7716 51.4268 13.8167 50.9916 14.1325L51.0721 14.7354C51.3999 19.3524 50.3374 21.7125 49.7652 22.3155V27.139C49.5044 32.7207 49.1661 36.2408 49.0305 37.3031C48.3763 41.2309 45.5434 43.591 44.2097 44.2802C42.5094 45.2449 39.9597 45.3137 38.8972 45.2276L38.8167 45.4861C38.5544 47.4155 38.7615 49.5057 38.8972 50.3097L38.3264 51.3433C38.0641 51.2745 37.781 50.9127 37.6722 50.7403C37.5411 48.3974 37.781 46.089 37.9181 45.2276C34.2567 45.5033 31.3254 44.1366 30.3181 43.4189C29.9917 42.8675 30.3449 42.6149 30.564 42.5574C31.3478 42.9708 31.3806 42.8445 31.2986 42.7297C29.795 41.765 27.5135 38.5377 26.5598 37.0447Z" fill="#040047"/>
<path d="M26.4777 35.6666V31.7904C26.3466 31.446 25.9338 31.7043 25.743 31.8764C24.1083 33.1168 22.6643 31.8191 22.1472 31.0151C21.0355 29.3614 21.6837 27.3401 22.1472 26.5361C23.6508 24.6757 25.1157 25.4164 25.6611 26.0193C26.8368 27.8109 30.0736 32.3359 31.5444 34.3745C31.4133 39.336 31.8156 41.6099 32.0347 42.1267C30.2688 40.7485 27.5939 37.2457 26.4777 35.6666Z" fill="white"/>
<path d="M42.2487 43.7634C47.4122 43.3499 48.5939 36.8724 48.5403 33.6853C45.6642 32.1693 42.3291 31.7903 41.0222 31.7903C37.4919 31.7903 33.6144 33.0536 32.1153 33.6853C31.9857 41.7477 33.2598 43.7634 33.914 43.7634C37.2475 44.5214 40.8583 44.0791 42.2487 43.7634Z" fill="#E3E2FF"/>
<path d="M31.7068 33.0823L26.886 26.3636C27.0827 20.782 26.6416 17.7212 26.3957 16.8886C28.6832 17.2331 30.1272 15.0797 30.5638 13.96C39.7151 17.1988 46.6877 16.2282 49.0288 15.3381C49.2255 21.8845 48.8396 29.723 48.6205 32.8239C45.5492 30.8944 42.384 30.5843 41.1859 30.6704C36.6751 30.8772 32.9869 32.3645 31.7068 33.0823Z" fill="white"/>
<path d="M45.5986 18.0088C41.8716 19.1113 37.0732 16.688 35.2209 15.4246C42.2158 16.2516 47.5314 15.7404 49.029 15.3384C49.035 15.5065 49.0335 15.5754 49.0305 15.5993C49.3569 19.5973 48.8934 28.8629 48.6207 32.9104C48.4911 32.5659 45.679 31.4174 44.2902 31.0154L45.5986 18.0088Z" fill="#E3E2FF"/>
<path d="M41.5126 1.815C35.221 0.0922484 30.2363 6.12203 30.1543 6.20812C30.1543 7.3108 30.9173 7.06965 31.2988 6.81122C34.1093 3.98579 39.334 3.50916 41.5946 3.62399C42.6407 3.00377 41.9761 2.15967 41.5126 1.815Z" fill="#FFFFFD"/>
<path d="M45.4348 5.08789C46.2922 5.08789 46.9873 4.35522 46.9873 3.45142C46.9873 2.54762 46.2922 1.81494 45.4348 1.81494C44.5774 1.81494 43.8823 2.54762 43.8823 3.45142C43.8823 4.35522 44.5774 5.08789 45.4348 5.08789Z" fill="#FFFFFD"/>
<path d="M38.6528 39.1118C42.4439 38.4228 43.4468 34.1733 43.4736 32.1349C44.9772 32.0659 47.4778 33.1971 48.5403 33.7715C48.5403 40.4556 45.2171 43.0455 43.5556 43.5048C39.6989 44.3317 36.5561 44.194 35.4653 44.0216C34.3551 43.8839 33.7501 43.6771 33.5862 43.5909L33.2598 43.1603V42.9019C32.9334 39.6631 34.5399 39.0258 35.3848 39.1118H38.6528Z" fill="#B8B9FF" stroke="#B8B9FF"/>
<path d="M33.7499 35.0632C36.1208 34.5433 42.1874 33.8155 47.4775 35.0632" stroke="#003F3D" stroke-width="0.5"/>
<path d="M33.5862 36.7864C35.8453 36.2663 41.6228 35.5381 46.6597 36.7864" stroke="#003F3D" stroke-width="0.5"/>
<path d="M33.5863 38.509C35.7322 37.9889 41.2206 37.2609 46.0071 38.509" stroke="#003F3D" stroke-width="0.5"/>
<path d="M33.5861 40.4038C35.5636 39.8836 40.6184 39.1556 45.0264 40.4038" stroke="#003F3D" stroke-width="0.5"/>
<path d="M33.5861 42.1267C35.2804 41.6067 39.6139 40.8784 43.3916 42.1267" stroke="#003F3D" stroke-width="0.5"/>
<path d="M36.6917 21.1956C35.9555 21.3965 34.3059 22.0052 33.5861 22.832" stroke="#003F3D" stroke-width="0.5"/>
<path d="M34.7304 26.1914C35.0568 26.8518 36.0373 27.8281 37.3457 26.4498" stroke="#003F3D" stroke-width="0.5"/>
<path d="M45.2708 22.7461C45.7894 22.7461 46.9383 22.9357 47.3958 23.6936" stroke="#003F3D" stroke-width="0.5"/>
<path d="M44.1277 26.8808C44.3989 27.5698 45.2707 28.4311 46.5791 26.364" stroke="#003F3D" stroke-width="0.5"/>
<path d="M13.8128 71.4927C11.722 72.2507 9.62532 77.9393 8.97261 80.6669C10.6863 81.8451 15.1853 82.662 17.3922 83.4946C17.7186 79.5668 15.2016 71.4927 13.8128 71.4927Z" fill="url(#paint1_linear)"/>
<path d="M35.2208 57.1082L33.75 55.2132C37.1492 54.3863 38.6527 52.5144 38.9791 51.6816L39.8777 53.0598C38.7675 55.4716 36.3102 56.7637 35.2208 57.1082Z" fill="#6B65FE"/>
<path d="M39.0611 62.3625C38.93 59.8129 36.8705 58.2196 35.9451 57.7316C38.167 56.9046 39.9329 54.7251 40.45 53.7488C41.3649 55.1959 44.8625 57.2804 46.4972 58.1417C49.6341 59.3133 52.8708 62.018 54.0957 63.2238C57.8868 67.634 59.0223 77.1204 58.9687 80.8242C51.7412 84.5944 43.183 85.4416 39.6706 85.9297C39.7347 72.1479 39.3606 64.8604 39.0611 62.3625Z" fill="url(#paint2_linear)"/>
<path d="M14.467 72.5161C14.3851 75.215 14.172 80.9919 13.9768 82.5078" stroke="#003F3D" stroke-width="0.5"/>
<path d="M51.2195 64.8792C51.6979 70.2625 52.8155 81.4437 53.4548 83.1018" stroke="#003F3D" stroke-width="0.5"/>
<path d="M23.6511 52.7832C21.4903 54.2233 15.7084 57.7945 9.8668 60.5593C7.65534 62.104 2.80326 67.3614 1.07463 76.033" stroke="#040047" stroke-width="0.5"/>
<path d="M64.5569 77.4465C62.6688 72.341 58.3726 61.7215 56.2863 60.0878C55.3177 58.5431 52.5459 55.265 49.2078 54.511C48.4627 54.3016 46.6298 53.8512 45.2588 53.7255C44.2902 53.6207 42.0549 53.05 40.8627 51.6047" stroke="#040047" stroke-width="0.5"/>
<path d="M24.3111 28.4448C23.6211 27.519 23.3961 28.3898 23.3708 28.9409C22.9312 28.9409 22.8731 28.4999 22.8999 28.2795C23.1502 27.2213 23.9981 27.4527 24.3901 27.7008C25.3303 28.4283 25.1992 29.6021 25.0174 30.0982C24.8907 30.4289 24.4944 30.4013 24.3111 30.3463C23.8715 30.0817 24.0756 29.6849 24.2321 29.5195C24.5465 29.3211 24.4154 28.7203 24.3111 28.4448Z" fill="#003F3D"/>
<defs>
<linearGradient id="paint0_linear" x1="56.0194" y1="60" x2="15.6062" y2="82.6324" gradientUnits="userSpaceOnUse">
<stop stop-color="#6C63FF"/>
<stop offset="1" stop-color="#5992F1"/>
</linearGradient>
<linearGradient id="paint1_linear" x1="18.0752" y1="72" x2="5.67557" y2="82.3509" gradientUnits="userSpaceOnUse">
<stop stop-color="#6C63FF"/>
<stop offset="1" stop-color="#5992F1"/>
</linearGradient>
<linearGradient id="paint2_linear" x1="54.5963" y1="56.5" x2="41.6157" y2="87.5302" gradientUnits="userSpaceOnUse">
<stop stop-color="#6C63FF"/>
<stop offset="1" stop-color="#5992F1"/>
</linearGradient>
</defs>
</svg>
