<svg width="90" height="89" viewBox="0 0 90 89" fill="none" xmlns="http://www.w3.org/2000/svg">
<path d="M24.5868 81.3108C9.68513 68.0292 7.04708 46.7387 7.59072 37.7544L55.3168 37.8506L72.227 10.3101L89.0513 36.5813V81.3108H24.5868Z" fill="white"/>
<path d="M88.1577 34.1822C85.6856 35.3535 82.7213 35.1915 81.5482 34.9637L64.5521 8.0088L47.7279 35.6472H0.00168024C-0.135695 18.3013 8.18493 4.65507 12.3624 0H67.299C76.5696 10.7043 85.0676 27.2485 88.1577 34.1822Z" fill="url(#paint0_linear)"/>
<path d="M17.1453 79.4973H81.4622V34.4741L64.5521 8.00879L47.7277 35.7451H0.259033" stroke="#040047" stroke-width="0.5"/>
<path d="M17.3887 79.4973C26.4562 86.5018 56.6157 94.941 81.9132 79.4973H17.3887Z" fill="#59B1F1"/>
<path d="M66.8697 0.195801C60.8038 8.98438 48.2257 28.1076 46.4401 34.28H0.0874023" stroke="#040047" stroke-width="0.5"/>
<path d="M87.4709 34.1821L66.9555 2.93018L64.4661 8.00886L81.5479 34.572C82.99 35.1981 86.0975 34.572 87.4709 34.1821Z" fill="#040047"/>
<path d="M63.436 10.2554L78.9727 34.67L79.3161 79.0095" stroke="#040047" stroke-width="0.5"/>
<path d="M44.0137 35.6487L43.8607 79.0111" stroke="#040047" stroke-width="0.5"/>
<path d="M45.6235 35.3101L45.4705 78.6724" stroke="#040047" stroke-width="0.5"/>
<path d="M42.125 35.6487L41.9719 79.0111" stroke="#5992F1" stroke-width="0.5"/>
<path d="M42.125 35.6487L41.9719 79.0111" stroke="#040047" stroke-width="0.5"/>
<path d="M18.3992 43.7878H9.07251V59.3437H18.3992V43.7878Z" fill="#040047" stroke="#5992F1" stroke-width="0.5"/>
<path d="M35.5666 43.592H26.24V59.1479H35.5666V43.592Z" fill="#040047" stroke="#5992F1" stroke-width="0.5"/>
<path d="M75.905 43.1664V42.238H75.0244H64.2087H63.3281V43.1664V58.9882V59.9165H64.2087H75.0244H75.905V58.9882V43.1664Z" fill="#040047" stroke="#5992F1" stroke-width="0.5"/>
<path d="M64.2087 43.1665L75.0244 58.9883" stroke="#5992F1" stroke-width="0.5"/>
<path d="M64.2087 58.9883L75.0244 43.1665" stroke="#5992F1" stroke-width="0.5"/>
<path d="M59.373 40.92V40.498H58.9728H48.4632H48.0682L48.063 40.915L47.5853 79.0028L47.5798 79.4417L47.9961 79.4315L58.9833 79.1243L59.373 79.1125V78.7024V40.92Z" fill="#5992F1" stroke="#040047" stroke-width="0.5"/>
<path d="M57.828 43.2628L57.827 42.8425H57.4277H49.8739H49.4777L49.4737 43.2594L49.1302 78.8086L49.1262 79.2356H49.5305H57.5135H57.9149L57.9138 78.8119L57.828 43.2628Z" fill="#5992F1" stroke="#040047" stroke-width="0.5"/>
<path d="M55.9963 47.3035H51.1333V54.8511H55.9963V47.3035Z" fill="#5992F1" stroke="#040047" stroke-width="0.5"/>
<path d="M51.2471 58.1089H50.217V61.6248H51.2471V58.1089Z" fill="#040047"/>
<defs>
<linearGradient id="paint0_linear" x1="10.8243" y1="-2.27859" x2="45.9771" y2="33.7975" gradientUnits="userSpaceOnUse">
<stop stop-color="#6C63FF"/>
<stop offset="1" stop-color="#5992F1"/>
</linearGradient>
</defs>
</svg>
