<svg width="101" height="101" viewBox="0 0 101 101" fill="none" xmlns="http://www.w3.org/2000/svg">
<path d="M75.75 48.9219C75.75 48.9219 80.4844 48.9219 80.4844 52.0781C80.4844 55.2344 75.75 56.8125 75.75 56.8125V48.9219Z" fill="#F2A283"/>
<path d="M80.4844 99.4219H42.6094C42.6094 98.1662 43.1082 96.962 43.996 96.0742C44.8839 95.1863 46.0881 94.6875 47.3438 94.6875L75.75 85.2188H80.4844V99.4219Z" fill="#34C1AD"/>
<path d="M65.7289 44.1875H79.2219C80.7654 44.2088 82.2431 44.8155 83.3564 45.8848C84.4696 46.9541 85.1353 48.4063 85.2188 49.9477V53.6562C85.2188 56.4495 84.6191 58.4853 82.2203 60.0319L75.75 63.125V85.2188L47.3438 94.6875V83.4513C41.4739 82.8026 36.0588 79.9824 32.1622 75.5448L39.4531 72.5938C39.4506 71.7574 39.1173 70.9561 38.5259 70.3647C37.9346 69.7733 37.1332 69.44 36.2969 69.4375H27.8697C26.7709 67.4342 25.8925 65.3177 25.25 63.125L21.6361 61.3259C20.8252 60.9192 20.1434 60.2949 19.6668 59.523C19.1903 58.751 18.9378 57.8617 18.9375 56.9545V56.8914C18.9403 55.8333 19.2834 54.8042 19.9159 53.9561C21.6992 51.5889 25.25 46.5547 25.25 44.1875V26.8281C26.6921 26.2879 28.0016 25.445 29.0905 24.3561C30.1794 23.2672 31.0223 21.9577 31.5625 20.5156C41.0312 20.5156 51.6994 44.1875 63.125 44.1875H65.7289ZM75.75 48.9219V56.8125C75.75 56.8125 80.4844 55.2344 80.4844 52.0781C80.4844 48.9219 75.75 48.9219 75.75 48.9219Z" fill="#F2C4B2"/>
<path d="M80.4844 74.8662V75.75H75.75V63.125L82.2203 60.0319C84.6191 58.4853 85.2188 56.4495 85.2188 53.6562V49.9476C85.1353 48.4063 84.4696 46.9541 83.3564 45.8848C82.2431 44.8155 80.7654 44.2088 79.2219 44.1875H63.125C51.6994 44.1875 41.0312 20.5156 31.5625 20.5156C31.0223 21.9577 30.1794 23.2672 29.0905 24.3561C28.0016 25.445 26.6921 26.2879 25.25 26.8281V25.25C25.2593 22.1146 25.9079 19.0141 27.156 16.1379C28.4042 13.2617 30.2257 10.6702 32.5094 8.52186C37.2424 4.03727 43.5222 1.5502 50.0423 1.57811H64.9241C81.3681 1.57811 94.6875 14.2978 94.6875 29.9844V42.6094C94.6875 47.3437 92.4939 57.6962 86.7969 63.125L84.335 65.5869C81.8732 68.048 80.4884 71.3852 80.4844 74.8662Z" fill="#5E3616"/>
<path d="M33.1406 26.8281C33.1406 26.8281 37.875 28.4062 39.4531 31.5625C40.9429 34.542 46.6652 43.138 61.9067 44.0912C50.9403 42.5226 40.6935 20.5156 31.5625 20.5156C31.0223 21.9577 30.1794 23.2672 29.0905 24.3561C28.0016 25.445 26.6921 26.2879 25.25 26.8281V32.7224C27.6345 31.9918 32.0075 30.2258 33.1406 26.8281Z" fill="#F2A283"/>
<path d="M62.7983 76.214C58.0339 79.4254 52.828 81.9272 47.3438 83.6407V94.6876L67.8594 87.8496V78.7264C67.8586 78.1395 67.6941 77.5643 67.3845 77.0657C67.0748 76.567 66.6323 76.1646 66.1065 75.9036C65.5808 75.6426 64.9927 75.5334 64.4083 75.5883C63.8239 75.6431 63.2663 75.8598 62.7983 76.214Z" fill="#F2A283"/>
<path d="M20.5156 56.8125H18.9375C18.9375 56.8393 18.9375 56.8646 18.9375 56.8914V56.9545C18.9378 57.8617 19.1903 58.751 19.6668 59.523C20.1434 60.2949 20.8252 60.9192 21.6361 61.3259L25.25 63.125V48.9219C25.25 48.9219 23.6719 56.8125 20.5156 56.8125Z" fill="#F2A283"/>
<path d="M80.4844 37.8751H77.3281C51.1312 36.4958 43.0008 9.81126 41.369 3.10107C38.069 4.26819 35.0507 6.11495 32.5094 8.52193C30.2257 10.6703 28.4042 13.2618 27.156 16.138C25.9079 19.0142 25.2593 22.1147 25.25 25.2501V26.8282C26.6921 26.288 28.0016 25.4451 29.0905 24.3562C30.1794 23.2673 31.0223 21.9577 31.5625 20.5157C41.0312 20.5157 51.6994 44.1876 63.125 44.1876H79.2219C80.7654 44.2089 82.2431 44.8156 83.3564 45.8849C84.4696 46.9542 85.1353 48.4063 85.2188 49.9477V42.6094C85.2188 41.3538 84.7199 40.1496 83.8321 39.2617C82.9442 38.3739 81.74 37.8751 80.4844 37.8751Z" fill="#452810"/>
<path d="M80.3423 60.9297L75.75 63.1249V75.7499H80.4844V74.8661C80.4915 72.0318 81.4167 69.2761 83.1214 67.0118C82.124 66.371 81.3317 65.457 80.839 64.3787C80.3463 63.3004 80.1739 62.1032 80.3423 60.9297Z" fill="#452810"/>
<path d="M77.3281 96.2656H59.6358C59.0263 96.2712 58.4316 96.0777 57.9422 95.7145C57.4527 95.3514 57.0951 94.8384 56.9237 94.2535C56.7523 93.6685 56.7764 93.0437 56.9925 92.4738C57.2085 91.9038 57.6047 91.42 58.1208 91.0957L47.3438 94.6875C46.0881 94.6875 44.8839 95.1863 43.996 96.0742C43.1082 96.9621 42.6094 98.1663 42.6094 99.4219H80.4844V93.1094C80.4844 93.9465 80.1518 94.7493 79.5599 95.3412C78.968 95.9331 78.1652 96.2656 77.3281 96.2656Z" fill="#107C82"/>
<path d="M20.5156 74.1719L6.3125 78.9062" stroke="black" stroke-width="2" stroke-linejoin="round"/>
<path d="M20.5156 85.2188L6.3125 89.9531" stroke="black" stroke-width="2" stroke-linejoin="round"/>
<path d="M20.5156 79.959L14.2031 82.0626" stroke="black" stroke-width="2" stroke-linejoin="round"/>
<path d="M28.4062 77.3281L23.6719 78.9062" stroke="black" stroke-width="2" stroke-linejoin="round"/>
<path d="M12.625 70.4902L6.3125 72.5939" stroke="black" stroke-width="2" stroke-linejoin="round"/>
<path d="M20.5156 67.8594L15.7812 69.4375" stroke="black" stroke-width="2" stroke-linejoin="round"/>
<path d="M75.75 56.8125V48.9219C75.75 48.9219 80.4844 48.9219 80.4844 52.0781C80.4844 55.2344 75.75 56.8125 75.75 56.8125Z" stroke="black" stroke-width="2" stroke-linejoin="round"/>
<path d="M25.25 26.8281V25.25C25.25 12.1768 36.3537 1.57812 50.0487 1.57812H64.9288C81.3634 1.57812 94.6875 14.2962 94.6875 29.9844V42.6094C94.6875 47.3438 92.4876 57.6931 86.7969 63.125L84.3271 65.5948C81.8667 68.0555 80.4845 71.3928 80.4844 74.8726V75.75H75.75" stroke="black" stroke-width="2" stroke-linejoin="round"/>
<path d="M41.0312 37.875L31.5625 44.1875L41.0312 50.5" stroke="black" stroke-width="2" stroke-linejoin="round"/>
<path d="M61.5469 89.9531L75.75 85.2188H80.4844V99.4219H42.6094C42.6094 98.1662 43.1082 96.962 43.996 96.0742C44.8839 95.1863 46.0881 94.6875 47.3438 94.6875L52.0781 93.1094" stroke="black" stroke-width="2" stroke-linejoin="round"/>
<path d="M55.2344 92.0569L58.3906 91.0059" stroke="black" stroke-width="2" stroke-linejoin="round"/>
<path d="M75.75 82.0625V63.125L82.2203 60.0366C84.6191 58.49 85.2188 56.4448 85.2188 53.6562V49.9508C85.1353 48.4091 84.4698 46.9566 83.3566 45.8868C82.2434 44.817 80.7656 44.2096 79.2219 44.1875H63.125C51.7025 44.1875 41.0312 20.5156 31.5625 20.5156C31.0223 21.9577 30.1794 23.2672 29.0905 24.3561C28.0016 25.445 26.6921 26.2879 25.25 26.8281V44.1875C25.25 46.5547 21.6992 51.5857 19.9238 53.9529C19.285 54.8013 18.9389 55.8341 18.9375 56.8961V56.9498C18.9382 57.8569 19.1911 58.7459 19.6679 59.5176C20.1447 60.2893 20.8267 60.9132 21.6377 61.3196L25.25 63.125C25.8899 65.3193 26.77 67.4363 27.8744 69.4375H36.2969C37.134 69.4375 37.9368 69.77 38.5287 70.3619C39.1206 70.9539 39.4531 71.7567 39.4531 72.5938L32.1638 75.5496C36.0631 79.9834 41.4757 82.8036 47.3438 83.4591V94.6875" stroke="black" stroke-width="2" stroke-linejoin="round"/>
</svg>
