<svg width="100" height="100" viewBox="0 0 100 100" fill="none" xmlns="http://www.w3.org/2000/svg">
<path d="M83.5938 59.375C84.7298 59.4872 85.7762 60.0416 86.5071 60.9186C87.2379 61.7956 87.5945 62.9248 87.5 64.0625C87.5945 65.2002 87.2379 66.3294 86.5071 67.2064C85.7762 68.0834 84.7298 68.6378 83.5938 68.75C83.3716 69.6251 82.8699 70.4038 82.1649 70.9678C81.4599 71.5319 80.59 71.8504 79.6875 71.875C77.3594 71.875 76.5625 70.3125 76.5625 67.1875L71.875 65.625V62.5L76.5625 60.9375C76.5625 57.8125 77.3594 56.25 79.6875 56.25C80.59 56.2746 81.4599 56.5931 82.1649 57.1572C82.8699 57.7212 83.3716 58.4999 83.5938 59.375Z" fill="#F2F2F2"/>
<path d="M94.5312 43.75C95.6673 43.8622 96.7137 44.4166 97.4446 45.2936C98.1754 46.1706 98.532 47.2998 98.4375 48.4375C98.532 49.5752 98.1754 50.7044 97.4446 51.5814C96.7137 52.4584 95.6673 53.0128 94.5312 53.125C94.3091 54.0001 93.8074 54.7788 93.1024 55.3428C92.3974 55.9069 91.5275 56.2254 90.625 56.25C88.2969 56.25 87.5 54.6875 87.5 51.5625L82.8125 50V46.875L87.5 45.3125C87.5 42.1875 88.2969 40.625 90.625 40.625C91.5275 40.6496 92.3974 40.9681 93.1024 41.5322C93.8074 42.0962 94.3091 42.8749 94.5312 43.75Z" fill="#F2F2F2"/>
<path d="M14.0621 7.81219H4.68709C4.23186 7.81199 3.78217 7.71233 3.36947 7.52019C2.95678 7.32804 2.59105 7.04805 2.29786 6.6998C2.00468 6.35155 1.79112 5.94345 1.67213 5.50405C1.55313 5.06465 1.53157 4.60455 1.60896 4.15594C1.75992 3.41082 2.1683 2.74258 2.76252 2.26835C3.35675 1.79411 4.09891 1.54412 4.85896 1.56219H5.28084C5.97401 1.56003 6.66372 1.66007 7.32771 1.85907C10.0465 2.71844 14.0621 4.65595 14.0621 7.81219Z" fill="#B3F5FF"/>
<path d="M14.0621 25L10.0465 32.8125C9.78095 33.291 9.391 33.6888 8.91792 33.9638C8.44483 34.2389 7.9062 34.3809 7.359 34.375C6.59302 34.308 5.88393 33.9431 5.38425 33.3587C4.88458 32.7743 4.63426 32.0171 4.68713 31.25C4.68984 31.1297 4.70028 31.0096 4.71838 30.8906C4.73689 30.6847 4.77349 30.4808 4.82775 30.2812C4.82775 30.2771 4.8294 30.2731 4.83233 30.2702C4.83526 30.2673 4.83923 30.2656 4.84338 30.2656C4.86004 30.1746 4.88622 30.0856 4.9215 30C5.46838 28.1719 7.37463 25 14.0621 25Z" fill="#B3F5FF"/>
<path d="M56.1716 58.9216C56.2417 59.1605 56.2541 59.4126 56.2078 59.6572C56.1616 59.9018 56.0579 60.1319 55.9054 60.3287C55.7529 60.5254 55.5558 60.6832 55.3305 60.789C55.1051 60.8948 54.8579 60.9456 54.6091 60.9373H45.3903C45.1415 60.9456 44.8943 60.8948 44.6689 60.789C44.4436 60.6832 44.2466 60.5254 44.094 60.3287C43.9415 60.1319 43.8379 59.9018 43.7916 59.6572C43.7453 59.4126 43.7577 59.1605 43.8278 58.9216C44.2044 57.6087 45.0264 56.4679 46.1527 55.6952C47.279 54.9224 48.6392 54.5661 49.9997 54.6873C51.3602 54.5661 52.7204 54.9224 53.8467 55.6952C54.973 56.4679 55.795 57.6087 56.1716 58.9216Z" fill="#D9896D"/>
<path d="M83 36.0936L78.125 42.1873L77.9531 42.2029C78.0651 41.6843 78.1227 41.1554 78.125 40.6248V39.0623C78.1225 38.2343 77.7925 37.4409 77.207 36.8553C76.6215 36.2698 75.828 35.9398 75 35.9373H71.875V29.6873C64.0625 29.6873 64.0625 17.1873 64.0625 17.1873C64.0625 17.1873 59.375 24.9998 54.6875 24.9998L56.2344 18.7811C55.7656 19.4217 48.0938 29.6873 37.5 29.6873V20.3123L28.125 28.1248V35.9373H25C24.172 35.9398 23.3785 36.2698 22.793 36.8553C22.2075 37.4409 21.8775 38.2343 21.875 39.0623V40.6248C21.9149 42.3012 22.4535 43.9277 23.4219 45.2967C22.9531 45.1092 15.625 41.9373 15.625 34.3748C15.7135 31.9657 16.3171 29.6036 17.3952 27.4474C18.4733 25.2912 20.0008 23.391 21.875 21.8748C19.2573 21.9297 16.6805 21.2198 14.4603 19.8322C12.24 18.4445 10.4727 16.4393 9.375 14.0623C9.375 14.0623 21.875 12.4998 28.125 9.37482C34.375 6.24982 37.5 1.56232 50 1.56232C53.0476 1.46911 56.0707 2.13415 58.7979 3.49774C61.5251 4.86132 63.871 6.88078 65.625 9.37482C66.2841 8.33485 67.2144 7.49432 68.3157 6.94368C69.417 6.39304 70.6475 6.15315 71.875 6.24982C76.5625 6.24982 84.375 9.37482 84.375 18.7498V32.1873C84.3753 33.6081 83.8901 34.9863 83 36.0936Z" fill="#5E3616"/>
<path d="M64.0625 17.1875C64.0625 17.1875 64.0625 29.6875 71.875 29.6875V35.9375H75C75.828 35.94 76.6215 36.27 77.207 36.8555C77.7925 37.441 78.1225 38.2345 78.125 39.0625V40.625C78.1227 41.1556 78.0651 41.6845 77.9531 42.2031C77.4188 44.0308 76.442 45.6984 75.1092 47.0584C73.7765 48.4184 72.1289 49.4288 70.3125 50C69.7667 53.1794 68.4963 56.1904 66.5995 58.7997C64.7028 61.409 62.2308 63.5466 59.375 65.0469C56.4857 66.526 53.2874 67.3005 50.0415 67.307C46.7956 67.3136 43.5942 66.552 40.699 65.0846C37.8037 63.6171 35.2967 61.4854 33.3829 58.8638C31.4692 56.2421 30.2028 53.2047 29.6875 50C27.1429 49.1721 24.9448 47.5235 23.4375 45.3125L23.4219 45.2969C22.4535 43.9279 21.9149 42.3014 21.875 40.625V39.0625C21.8775 38.2345 22.2075 37.441 22.793 36.8555C23.3785 36.27 24.172 35.94 25 35.9375H28.125V28.125L37.5 20.3125V29.6875C48.0938 29.6875 55.7656 19.4219 56.2344 18.7813L54.6875 25C59.375 25 64.0625 17.1875 64.0625 17.1875ZM54.6094 60.9375C54.8582 60.9458 55.1054 60.895 55.3308 60.7892C55.5561 60.6834 55.7531 60.5257 55.9057 60.3289C56.0582 60.1322 56.1618 59.9021 56.2081 59.6574C56.2544 59.4128 56.242 59.1607 56.1719 58.9219C55.7953 57.6089 54.9733 56.4681 53.847 55.6954C52.7207 54.9227 51.3605 54.5663 50 54.6875C48.6395 54.5663 47.2793 54.9227 46.153 55.6954C45.0267 56.4681 44.2047 57.6089 43.8281 58.9219C43.758 59.1607 43.7456 59.4128 43.7919 59.6574C43.8382 59.9021 43.9418 60.1322 44.0943 60.3289C44.2469 60.5257 44.4439 60.6834 44.6692 60.7892C44.8946 60.895 45.1418 60.9458 45.3906 60.9375H54.6094Z" fill="#F2C4B2"/>
<path d="M60.8281 75.156C60.0089 76.1651 59.0137 77.0174 57.8906 77.6716C57.4709 77.4706 57.0122 77.3639 56.5469 77.3591C56.2013 77.3547 55.8584 77.4202 55.5389 77.5518C55.2193 77.6834 54.9297 77.8783 54.6875 78.1248L53.125 79.6873L53.0781 79.656L55.5 77.2185C55.7513 76.9666 55.9416 76.6606 56.0564 76.3238C56.1711 75.987 56.2073 75.6284 56.162 75.2755C56.1168 74.9225 55.9914 74.5847 55.7954 74.2877C55.5994 73.9907 55.338 73.7426 55.0313 73.5623C54.5672 73.2902 54.0379 73.1497 53.5 73.156C53.1149 73.1512 52.7327 73.2233 52.3758 73.3682C52.019 73.5131 51.6946 73.7278 51.4219 73.9998L43.8281 81.1716L50.9219 74.1873C51.1675 73.9451 51.3506 73.6468 51.4555 73.3182C51.5603 72.9896 51.5838 72.6404 51.5239 72.3007C51.4639 71.961 51.3223 71.6409 51.1113 71.3681C50.9003 71.0952 50.6262 70.8776 50.3125 70.7341C49.8441 70.4572 49.3098 70.3115 48.7656 70.3123C48.378 70.3059 47.9929 70.3773 47.6333 70.5222C47.2737 70.6671 46.9468 70.8826 46.6719 71.156L40.7187 76.7029C40.1505 76.2427 39.6321 75.7242 39.1719 75.156C39.6185 74.8794 39.9867 74.4928 40.2411 74.0332C40.4956 73.5736 40.6277 73.0563 40.625 72.531V65.0466C43.5495 66.4555 46.7539 67.1872 50 67.1872C53.2461 67.1872 56.4505 66.4555 59.375 65.0466V72.531C59.3723 73.0563 59.5044 73.5736 59.7589 74.0332C60.0133 74.4928 60.3815 74.8794 60.8281 75.156Z" fill="#ED9776"/>
<path d="M62.5 84.3748V89.0623L60.3906 87.0935L61.8281 85.6716C62.0393 85.4664 62.2075 85.2211 62.3228 84.9502C62.4382 84.6792 62.4984 84.388 62.5 84.0935H62.5156C62.5026 84.1867 62.4974 84.2807 62.5 84.3748Z" fill="#34C1AD"/>
<path d="M62.5 84.0936C62.4984 84.3881 62.4382 84.6793 62.3228 84.9502C62.2075 85.2212 62.0393 85.4665 61.8281 85.6717L60.3906 87.0936L56.5156 83.4998L57.6719 82.5155C58.2315 81.9695 58.9838 81.6663 59.7656 81.6717C60.2973 81.6751 60.8192 81.815 61.2813 82.0779C61.6442 82.2765 61.9482 82.5675 62.1622 82.9215C62.3763 83.2756 62.4928 83.6799 62.5 84.0936Z" fill="#F2A283"/>
<path d="M58.1559 77.8124C58.4711 77.9772 58.7429 78.2139 58.9494 78.5033C59.1559 78.7928 59.2913 79.1269 59.3446 79.4784C59.3978 79.83 59.3675 80.1892 59.256 80.5268C59.1445 80.8645 58.955 81.1711 58.7028 81.4218L56.4216 83.4062L53.3278 80.5312C53.0529 80.2578 52.726 80.0422 52.3664 79.8973C52.0067 79.7524 51.6217 79.681 51.2341 79.6874C50.6899 79.6866 50.1556 79.8324 49.6872 80.1093C49.3735 80.2528 49.0994 80.4703 48.8884 80.7432C48.6774 81.0161 48.5358 81.3361 48.4758 81.6758C48.4159 82.0155 48.4394 82.3647 48.5442 82.6933C48.6491 83.022 48.8322 83.3202 49.0778 83.5624L56.2497 90.6249L48.5778 83.3749C48.3051 83.103 47.9807 82.8883 47.6239 82.7434C47.267 82.5985 46.8848 82.5263 46.4997 82.5312C45.9618 82.5249 45.4325 82.6654 44.9684 82.9374C44.6617 83.1177 44.4003 83.3659 44.2043 83.6628C44.0083 83.9598 43.8829 84.2977 43.8377 84.6506C43.7924 85.0035 43.8285 85.3621 43.9433 85.6989C44.0581 86.0357 44.2484 86.3418 44.4997 86.5937L53.1716 95.3124H53.1247L45.4528 87.6249C44.8932 87.0789 44.1409 86.7757 43.3591 86.7812C42.8274 86.7846 42.3055 86.9244 41.8434 87.1874C41.5283 87.3522 41.2565 87.5889 41.05 87.8783C40.8435 88.1678 40.7081 88.5019 40.6548 88.8534C40.6016 89.205 40.6319 89.5642 40.7434 89.9018C40.8549 90.2395 41.0444 90.5461 41.2966 90.7968L42.2966 91.8593C41.7419 91.3289 41.0014 91.0372 40.2341 91.0468C39.7024 91.0502 39.1805 91.1901 38.7184 91.453C38.4036 91.6159 38.1317 91.8511 37.9251 92.1391C37.7185 92.4272 37.583 92.7601 37.5296 93.1106C37.4763 93.4611 37.5066 93.8192 37.6182 94.1557C37.7298 94.4923 37.9194 94.7976 38.1716 95.0468L41.5778 98.4374H30.4528C28.8178 96.1704 27.9973 93.4171 28.1247 90.6249L31.2497 85.9374V74.9999C31.2835 74.1819 31.6236 73.4066 32.2025 72.8277C32.7814 72.2488 33.5567 71.9087 34.3747 71.8749C35.1927 71.9087 35.968 72.2488 36.5469 72.8277C37.1258 73.4066 37.4659 74.1819 37.4997 74.9999V79.6874L40.7184 76.703L46.6716 71.1562C46.9465 70.8828 47.2734 70.6672 47.633 70.5223C47.9926 70.3774 48.3777 70.306 48.7653 70.3124C49.3095 70.3116 49.8438 70.4574 50.3122 70.7343C50.6259 70.8778 50.9 71.0953 51.111 71.3682C51.322 71.6411 51.4636 71.9611 51.5235 72.3008C51.5835 72.6405 51.56 72.9897 51.4552 73.3183C51.3503 73.647 51.1672 73.9452 50.9216 74.1874L43.8278 81.1718L51.4216 73.9999C51.6943 73.728 52.0187 73.5133 52.3755 73.3684C52.7324 73.2235 53.1146 73.1513 53.4997 73.1562C54.0375 73.1499 54.5669 73.2903 55.0309 73.5624C55.3377 73.7427 55.5991 73.9909 55.7951 74.2878C55.9911 74.5848 56.1165 74.9227 56.1617 75.2756C56.207 75.6285 56.1708 75.9871 56.0561 76.3239C55.9413 76.6607 55.751 76.9668 55.4997 77.2187L53.0778 79.6562L53.1247 79.6874L54.6872 78.1249C54.9294 77.8784 55.219 77.6835 55.5386 77.552C55.8581 77.4204 56.201 77.3548 56.5466 77.3593C57.0119 77.3641 57.4706 77.4708 57.8903 77.6718C57.9841 77.7187 58.0622 77.7655 58.1559 77.8124Z" fill="#F2A283"/>
<path d="M42.3277 91.8904L48.437 98.4372H41.5777L38.1714 95.0466C37.9193 94.7974 37.7296 94.4921 37.6181 94.1556C37.5065 93.8191 37.4761 93.4609 37.5295 93.1104C37.5828 92.76 37.7183 92.4271 37.9249 92.139C38.1316 91.8509 38.4034 91.6158 38.7183 91.4529C39.1804 91.1899 39.7023 91.05 40.2339 91.0466C41.0013 91.037 41.7418 91.3287 42.2964 91.8591L42.3277 91.8904Z" fill="#F2BCA7"/>
<path d="M60.3904 87.0937L62.4998 89.0624V84.3749C62.4972 84.2809 62.5024 84.1868 62.5154 84.0937C62.6174 83.33 62.9848 82.6267 63.5533 82.1067C64.1218 81.5868 64.8551 81.2835 65.6248 81.2499C66.4428 81.2837 67.2181 81.6238 67.797 82.2027C68.3759 82.7816 68.716 83.5569 68.7498 84.3749V95.3124L71.8748 98.4374H48.4373L42.3279 91.8905L42.2967 91.8593L41.2967 90.7968C41.0445 90.5461 40.855 90.2395 40.7435 89.9018C40.632 89.5642 40.6017 89.205 40.6549 88.8534C40.7082 88.5019 40.8436 88.1678 41.0501 87.8783C41.2566 87.5889 41.5284 87.3522 41.8435 87.1874C42.3056 86.9244 42.8275 86.7846 43.3592 86.7812C44.141 86.7757 44.8933 87.0789 45.4529 87.6249L53.1248 95.3124H53.1717L44.4998 86.5937C44.2485 86.3418 44.0582 86.0357 43.9434 85.6989C43.8286 85.3621 43.7925 85.0035 43.8378 84.6506C43.883 84.2977 44.0084 83.9598 44.2044 83.6628C44.4004 83.3659 44.6618 83.1177 44.9685 82.9374C45.4326 82.6653 45.9619 82.5249 46.4998 82.5312C46.8849 82.5263 47.2671 82.5985 47.624 82.7434C47.9808 82.8883 48.3052 83.103 48.5779 83.3749L56.2498 90.6249L49.0779 83.5624C48.8323 83.3202 48.6492 83.022 48.5443 82.6933C48.4395 82.3647 48.416 82.0155 48.4759 81.6758C48.5359 81.3361 48.6775 81.0161 48.8885 80.7432C49.0995 80.4703 49.3736 80.2528 49.6873 80.1093C50.1557 79.8324 50.69 79.6866 51.2342 79.6874C51.6218 79.681 52.0068 79.7524 52.3665 79.8973C52.7261 80.0422 53.053 80.2578 53.3279 80.5312L56.4217 83.4062L56.5154 83.4999L60.3904 87.0937Z" fill="#F2BCA7"/>
<path d="M40.7188 76.7029L37.5 79.6873V75.7498L38.2187 75.5779C38.5615 75.5025 38.8856 75.359 39.1719 75.156C39.6321 75.7242 40.1505 76.2427 40.7188 76.7029Z" fill="#21ABAB"/>
<path d="M30.4531 98.4375H17.1875L28.125 90.625C27.9976 93.4172 28.8181 96.1705 30.4531 98.4375Z" fill="#21ABAB"/>
<path d="M31.25 77.2341V85.9373L28.125 90.6248L17.1875 98.4373H7.8125V90.2185C7.81414 88.1096 8.52559 86.0627 9.83226 84.4074C11.1389 82.752 12.9647 81.5848 15.0156 81.0935L31.25 77.2341Z" fill="#34C1AD"/>
<path d="M61.7808 75.5779L84.9839 81.0935C87.0348 81.5848 88.8606 82.7521 90.1673 84.4074C91.4739 86.0627 92.1854 88.1096 92.187 90.2185V98.4373H71.8745L68.7495 95.3123V84.3748C68.7157 83.5568 68.3756 82.7814 67.7967 82.2025C67.2178 81.6237 66.4425 81.2836 65.6245 81.2498C64.8548 81.2833 64.1215 81.5867 63.553 82.1066C62.9845 82.6265 62.6171 83.3299 62.5151 84.0935H62.4995C62.4923 83.6799 62.3758 83.2755 62.1617 82.9215C61.9477 82.5675 61.6437 82.2764 61.2808 82.0779C60.8187 81.8149 60.2968 81.675 59.7651 81.6716C58.9833 81.6662 58.231 81.9694 57.6714 82.5154L56.5151 83.4998L56.4214 83.406L58.7026 81.4216C58.9548 81.1709 59.1443 80.8643 59.2558 80.5267C59.3673 80.189 59.3976 79.8299 59.3444 79.4783C59.2911 79.1267 59.1557 78.7927 58.9492 78.5032C58.7427 78.2137 58.4709 77.977 58.1558 77.8123C58.062 77.7654 57.9839 77.7185 57.8901 77.6716C59.0132 77.0174 60.0084 76.1651 60.8276 75.156C61.1139 75.359 61.438 75.5025 61.7808 75.5779Z" fill="#34C1AD"/>
<path d="M28.125 39.0625H26.5625C26.1481 39.0625 25.7507 39.2271 25.4576 39.5201C25.1646 39.8132 25 40.2106 25 40.625V42.1875C25 43.9141 26.3984 46.875 28.125 46.875V39.0625Z" fill="#F2A283"/>
<path d="M71.875 39.0625H73.4375C73.8519 39.0625 74.2493 39.2271 74.5424 39.5201C74.8354 39.8132 75 40.2106 75 40.625V42.1875C75 43.9141 73.5938 46.875 71.875 46.875V39.0625Z" fill="#F2A283"/>
<path d="M21.875 21.875C20.0008 23.3912 18.4733 25.2914 17.3952 27.4476C16.3171 29.6038 15.7135 31.9659 15.625 34.375C15.625 41.9375 22.9531 45.1094 23.4219 45.2969C22.4535 43.9279 21.9149 42.3014 21.875 40.625V39.0625C21.8775 38.2345 22.2075 37.441 22.793 36.8555C23.3785 36.27 24.172 35.94 25 35.9375H28.125V28.125L18.75 31.25C18.5879 27.8449 19.7022 24.5018 21.875 21.875Z" fill="#3B220E"/>
<path d="M71.875 29.6875V35.9375H75C75.828 35.94 76.6215 36.27 77.207 36.8555C77.7925 37.441 78.1225 38.2345 78.125 39.0625V32.8125L71.875 29.6875Z" fill="#3B220E"/>
<path d="M50 40.625C68.75 40.625 71.875 35.9375 71.875 35.9375V29.6875C64.0625 29.6875 64.0625 17.1875 64.0625 17.1875C64.0625 17.1875 59.375 25 54.6875 25L56.2344 18.7813C55.7656 19.4219 48.0938 29.6875 37.5 29.6875V20.3125L28.125 28.125V35.9375C28.125 35.9375 31.25 40.625 50 40.625Z" fill="#AD706D"/>
<path d="M39.0625 45.3125C40.7884 45.3125 42.1875 43.2138 42.1875 40.625C42.1875 38.0362 40.7884 35.9375 39.0625 35.9375C37.3366 35.9375 35.9375 38.0362 35.9375 40.625C35.9375 43.2138 37.3366 45.3125 39.0625 45.3125Z" fill="#5E3616"/>
<path d="M37.5 20.3125L28.125 28.125V29.6875V31.25L37.5 23.4375V20.3125Z" fill="#875755"/>
<path d="M64.0625 20.3125C64.0625 20.3125 64.0625 32.8125 71.875 32.8125V29.6875C64.0625 29.6875 64.0625 17.1875 64.0625 17.1875C64.0625 17.1875 59.8922 24.1313 55.4844 24.9203L54.6875 28.125C59.375 28.125 64.0625 20.3125 64.0625 20.3125Z" fill="#875755"/>
<path d="M55.1109 23.2966L56.2344 18.781C55.7656 19.4216 48.0938 29.6873 37.5 29.6873V32.8123C45.975 32.8123 52.5688 26.2498 55.1109 23.2966Z" fill="#875755"/>
<path d="M50 50C50.8629 50 51.5625 48.6009 51.5625 46.875C51.5625 45.1491 50.8629 43.75 50 43.75C49.1371 43.75 48.4375 45.1491 48.4375 46.875C48.4375 48.6009 49.1371 50 50 50Z" fill="#D9896D"/>
<path d="M43.75 54.6873C43.757 53.0437 43.2441 51.44 42.2845 50.1056C41.3249 48.7711 39.9679 47.7744 38.4075 47.2579C36.8472 46.7414 35.1634 46.7317 33.5972 47.2301C32.031 47.7284 30.6625 48.7094 29.6875 50.0326C30.571 54.8292 33.036 59.1916 36.6891 62.4232C38.6173 62.2429 40.4091 61.3504 41.7147 59.92C43.0203 58.4896 43.746 56.6239 43.75 54.6873Z" fill="#F2A283"/>
<path d="M57.8121 56.2499C57.8152 57.7127 58.2301 59.1451 59.0093 60.3831C59.7886 61.6211 60.9007 62.6146 62.2184 63.2499C66.4654 60.0021 69.3508 55.2891 70.3121 50.0296C69.1571 49.1465 67.7776 48.6048 66.3303 48.4661C64.883 48.3274 63.4257 48.5973 62.124 49.2451C60.8223 49.8928 59.7283 50.8925 58.9661 52.1307C58.2039 53.3689 57.8041 54.796 57.8121 56.2499Z" fill="#F2A283"/>
<path d="M38.1717 95.0468L41.578 98.4374H45.3123L38.4936 91.6187C38.2196 91.802 37.9899 92.0442 37.8211 92.3274C37.6524 92.6107 37.5488 92.928 37.518 93.2562C37.4872 93.5845 37.5299 93.9155 37.6429 94.2252C37.756 94.5349 37.9366 94.8156 38.1717 95.0468Z" fill="#F2B096"/>
<path d="M65.6248 82.3765C65.6202 81.9711 65.4563 81.5839 65.1686 81.2983C64.4896 81.4291 63.8686 81.7689 63.3923 82.2701C62.916 82.7714 62.6083 83.4089 62.5123 84.0937C62.5004 84.1869 62.4962 84.281 62.4998 84.3749V89.0624L65.6248 92.1874V82.3765Z" fill="#F2B096"/>
<path d="M41.045 87.9202C40.7349 88.3501 40.5897 88.8772 40.6358 89.4052C40.682 89.9333 40.9165 90.4272 41.2966 90.7967L42.2966 91.8592L42.3278 91.8905L48.4372 98.4374H49.9997V96.8749L41.045 87.9202Z" fill="#F2B096"/>
<path d="M58.5934 89.8435L49.2184 80.4607C48.8507 80.7679 48.5973 81.19 48.4992 81.659C48.4011 82.1279 48.464 82.6163 48.6777 83.0451C48.7809 83.241 48.9191 83.4163 49.0855 83.5623L56.2496 90.6248L57.0309 91.406C57.2381 91.6132 57.5191 91.7296 57.8121 91.7296C58.1051 91.7296 58.3862 91.6132 58.5934 91.406C58.8006 91.1988 58.917 90.9178 58.917 90.6248C58.917 90.3317 58.8006 90.0507 58.5934 89.8435Z" fill="#F2B096"/>
<path d="M55.4688 96.0935C55.5714 95.9909 55.6528 95.8691 55.7084 95.7351C55.7639 95.601 55.7925 95.4574 55.7925 95.3123C55.7925 95.1672 55.7639 95.0235 55.7084 94.8894C55.6528 94.7554 55.5714 94.6336 55.4688 94.531L44.3829 83.4451C44.0033 83.8886 43.8046 84.4588 43.8263 85.0422C43.848 85.6256 44.0886 86.1794 44.5001 86.5935L53.1719 95.3123H53.1251L53.9063 96.0935C54.0089 96.1961 54.1307 96.2775 54.2647 96.3331C54.3988 96.3886 54.5425 96.4172 54.6876 96.4172C54.8327 96.4172 54.9763 96.3886 55.1104 96.3331C55.2444 96.2775 55.3662 96.1961 55.4688 96.0935Z" fill="#F2B096"/>
<path d="M38.6794 91.4813C38.2075 91.1975 37.6675 91.0474 37.1169 91.0469C36.5852 91.0503 36.0633 91.1902 35.6013 91.4531C35.2864 91.616 35.0145 91.8511 34.8079 92.1392C34.6013 92.4273 34.4658 92.7602 34.4124 93.1107C34.3591 93.4612 34.3895 93.8193 34.501 94.1558C34.6126 94.4923 34.8022 94.7977 35.0544 95.0469L36.8825 96.875H35.9372C34.694 96.875 33.5017 96.3811 32.6226 95.5021C31.7436 94.623 31.2497 93.4307 31.2497 92.1875V85.9375L28.1247 90.625C27.9973 93.4172 28.8178 96.1705 30.4528 98.4375H41.5778L38.1716 95.0469C37.9226 94.8007 37.7348 94.4997 37.623 94.168C37.5113 93.8362 37.4788 93.4829 37.5282 93.1363C37.5776 92.7897 37.7074 92.4595 37.9073 92.1721C38.1072 91.8847 38.3716 91.6481 38.6794 91.4813Z" fill="#ED9776"/>
<path d="M44.9295 82.9686C44.4647 82.6884 43.9333 82.5378 43.3906 82.5326C42.8479 82.5274 42.3137 82.6677 41.8436 82.9389C41.5368 83.1192 41.2755 83.3674 41.0795 83.6643C40.8835 83.9613 40.758 84.2991 40.7128 84.6521C40.6675 85.005 40.7037 85.3636 40.8184 85.7004C40.9332 86.0372 41.1235 86.3432 41.3748 86.5951L41.9295 87.1529C42.3693 86.9162 42.8598 86.7891 43.3592 86.7826C44.141 86.7772 44.8933 87.0804 45.4529 87.6264L53.1248 95.3123H53.1717L44.4998 86.5936C44.2521 86.3447 44.0639 86.0431 43.9493 85.7112C43.8347 85.3793 43.7966 85.0258 43.838 84.6771C43.8793 84.3285 43.9989 83.9937 44.188 83.6978C44.377 83.4019 44.6305 83.1526 44.9295 82.9686Z" fill="#ED9776"/>
<path d="M46.4995 82.531C46.8847 82.5262 47.2669 82.5984 47.6237 82.7432C47.9806 82.8881 48.3049 83.1028 48.5777 83.3748L56.2495 90.6248L49.0777 83.5623C48.8342 83.3212 48.6526 83.025 48.5483 82.6987C48.444 82.3724 48.42 82.0257 48.4785 81.6882C48.5369 81.3507 48.6761 81.0322 48.884 80.76C49.092 80.4878 49.3627 80.2699 49.673 80.1248C49.2037 79.8428 48.6671 79.6925 48.1197 79.6897C47.5722 79.687 47.0341 79.8319 46.562 80.1091C46.0924 80.3506 45.7205 80.7468 45.5093 81.2308C45.298 81.7148 45.2604 82.2568 45.4027 82.7654C45.7505 82.6196 46.1225 82.5401 46.4995 82.531Z" fill="#ED9776"/>
<path d="M41.7996 87.2201C41.3283 86.9345 40.7881 86.7827 40.2371 86.781C39.7054 86.7844 39.1836 86.9243 38.7215 87.1873C38.4064 87.352 38.1345 87.5887 37.928 87.8782C37.7215 88.1677 37.5861 88.5017 37.5329 88.8533C37.4796 89.2048 37.5099 89.564 37.6214 89.9017C37.7329 90.2393 37.9224 90.5459 38.1746 90.7966L38.773 91.4326C39.2215 91.1845 39.7246 91.0519 40.2371 91.0466C41.0044 91.037 41.745 91.3288 42.2996 91.8591L41.2996 90.7966C41.0506 90.5498 40.8626 90.2484 40.7505 89.9162C40.6384 89.584 40.6053 89.2303 40.6539 88.8831C40.7024 88.5359 40.8312 88.2048 41.0301 87.9161C41.229 87.6275 41.4925 87.3891 41.7996 87.2201Z" fill="#ED9776"/>
<path d="M34.3748 75V79.0406C34.3749 79.3496 34.4665 79.6516 34.6382 79.9085C34.8099 80.1654 35.0539 80.3656 35.3394 80.4839C35.6249 80.6021 35.939 80.633 36.242 80.5728C36.5451 80.5125 36.8235 80.3638 37.042 80.1453L37.4998 79.6875V75C37.466 74.182 37.1259 73.4067 36.547 72.8278C35.9681 72.2489 35.1928 71.9088 34.3748 71.875C33.8356 71.8838 33.3094 72.0417 32.8545 72.3312C33.3171 72.6066 33.7003 72.9973 33.9668 73.465C34.2332 73.9328 34.3738 74.4617 34.3748 75Z" fill="#F2B096"/>
<path d="M59.375 65.0466C56.4505 66.4555 53.2461 67.1872 50 67.1872C46.7539 67.1872 43.5495 66.4555 40.625 65.0466V72.531C40.6277 73.0563 40.4956 73.5736 40.2411 74.0332C39.9867 74.4928 39.6185 74.8794 39.1719 75.156C39.6321 75.7242 40.1505 76.2427 40.7187 76.7029L46.6719 71.156C46.9468 70.8826 47.2737 70.6671 47.6333 70.5222C47.9929 70.3773 48.378 70.3059 48.7656 70.3123C49.3098 70.3115 49.8441 70.4572 50.3125 70.7341C50.7997 71.0116 51.1836 71.4399 51.4063 71.9544L59.375 67.9685V65.0466Z" fill="#D9896D"/>
<path d="M83.5938 65.625C83.3716 66.5001 82.8699 67.2788 82.1649 67.8428C81.4599 68.4069 80.59 68.7254 79.6875 68.75C77.3594 68.75 76.5625 67.1875 76.5625 64.0625H71.875V65.625L76.5625 67.1875C76.5625 70.3125 77.3594 71.875 79.6875 71.875C80.59 71.8504 81.4599 71.5319 82.1649 70.9678C82.8699 70.4038 83.3716 69.6251 83.5938 68.75C84.7298 68.6378 85.7762 68.0834 86.5071 67.2064C87.2379 66.3294 87.5945 65.2002 87.5 64.0625C87.4964 63.5328 87.4159 63.0065 87.2609 62.5C87.07 63.3475 86.6093 64.1101 85.9481 64.6736C85.2869 65.237 84.4608 65.5709 83.5938 65.625Z" fill="#D4D4D4"/>
<path d="M94.5312 50C94.3091 50.8751 93.8074 51.6538 93.1024 52.2178C92.3974 52.7819 91.5275 53.1004 90.625 53.125C88.2969 53.125 87.5 51.5625 87.5 48.4375H82.8125V50L87.5 51.5625C87.5 54.6875 88.2969 56.25 90.625 56.25C91.5275 56.2254 92.3974 55.9069 93.1024 55.3428C93.8074 54.7788 94.3091 54.0001 94.5312 53.125C95.6673 53.0128 96.7137 52.4584 97.4446 51.5814C98.1754 50.7044 98.532 49.5752 98.4375 48.4375C98.4339 47.9078 98.3534 47.3815 98.1984 46.875C98.0075 47.7225 97.5468 48.4851 96.8856 49.0486C96.2244 49.612 95.3983 49.9459 94.5312 50Z" fill="#D4D4D4"/>
<path d="M26.5625 78.3481L15.0156 81.0935C12.9637 81.5821 11.1365 82.7485 9.82939 84.404C8.5223 86.0596 7.81172 88.1075 7.8125 90.2169V98.4372" stroke="black" stroke-width="2" stroke-linejoin="round"/>
<path d="M40.625 64.0625V71.875" stroke="black" stroke-width="2" stroke-linejoin="round"/>
<path d="M59.375 64.0625V72.5312C59.3749 73.2343 59.6119 73.9169 60.0477 74.4687C60.4834 75.0204 61.0926 75.4091 61.7766 75.5719L84.9844 81.0938C87.0363 81.5824 88.8635 82.7488 90.1706 84.4043C91.4777 86.0599 92.1883 88.1078 92.1875 90.2172V98.4375" stroke="black" stroke-width="2" stroke-linejoin="round"/>
<path d="M28.125 29.6875V35.9375H25C24.1712 35.9375 23.3763 36.2667 22.7903 36.8528C22.2042 37.4388 21.875 38.2337 21.875 39.0625V40.625C21.875 44.8641 25.8266 48.8406 29.6875 50C31.6813 60.0266 39.3875 67.1875 50 67.1875C60.6125 67.1875 68.3187 60.0266 70.3125 50C74.1734 48.8406 78.125 44.8641 78.125 40.625V39.0625C78.125 38.2337 77.7958 37.4388 77.2097 36.8528C76.6237 36.2667 75.8288 35.9375 75 35.9375H71.875V29.6875C64.0625 29.6875 64.0625 17.1875 64.0625 17.1875C64.0625 17.1875 59.375 25 54.6875 25L56.25 18.75C56.25 18.75 48.4375 29.6875 37.5 29.6875V20.3125L28.125 28.125V29.6875Z" stroke="black" stroke-width="2" stroke-linejoin="round"/>
<path d="M78.125 42.1873L83.0047 36.0936C83.8919 34.985 84.3752 33.6073 84.375 32.1873V18.7498C84.375 9.37482 76.5625 6.24982 71.875 6.24982C70.6475 6.15315 69.417 6.39304 68.3157 6.94368C67.2144 7.49432 66.2841 8.33485 65.625 9.37482C63.871 6.88078 61.5251 4.86132 58.7979 3.49774C56.0707 2.13415 53.0476 1.46911 50 1.56232C37.5 1.56232 34.375 6.24982 28.125 9.37482C21.875 12.4998 9.375 14.0623 9.375 14.0623C10.4727 16.4393 12.24 18.4445 14.4603 19.8322C16.6805 21.2198 19.2573 21.9297 21.875 21.8748C20.0008 23.391 18.4733 25.2912 17.3952 27.4474C16.3171 29.6036 15.7135 31.9657 15.625 34.3748C15.625 42.1873 23.4375 45.3123 23.4375 45.3123" stroke="black" stroke-width="2" stroke-linejoin="round"/>
<path d="M45.3904 60.9374C45.1424 60.9451 44.8961 60.8941 44.6716 60.7886C44.447 60.683 44.2506 60.5259 44.0983 60.33C43.946 60.1341 43.8421 59.9051 43.7951 59.6614C43.7481 59.4178 43.7594 59.1665 43.8279 58.9281C44.2062 57.6157 45.0284 56.4754 46.1541 55.702C47.2798 54.9285 48.6391 54.5699 49.9998 54.6874C51.3615 54.5684 52.7223 54.9263 53.8493 55.6999C54.9763 56.4734 55.7994 57.6146 56.1779 58.9281C56.2464 59.1665 56.2577 59.4178 56.2107 59.6614C56.1637 59.9051 56.0598 60.1341 55.9075 60.33C55.7552 60.5259 55.5588 60.683 55.3343 60.7886C55.1097 60.8941 54.8634 60.9451 54.6154 60.9374H45.3904Z" stroke="black" stroke-width="2" stroke-linejoin="round"/>
<path d="M41.5808 98.4374L38.1793 95.0546C37.9256 94.8063 37.7346 94.5014 37.6219 94.1649C37.5092 93.8284 37.478 93.4699 37.5309 93.119C37.5839 92.7681 37.7194 92.4347 37.9264 92.1464C38.1334 91.8582 38.4059 91.6232 38.7215 91.4608V91.4608C39.2884 91.1319 39.9472 90.9967 40.5979 91.0756C41.2486 91.1546 41.8558 91.4434 42.3277 91.8983L48.4371 98.4374L41.3043 90.7936C41.0506 90.5454 40.8596 90.2405 40.7469 89.904C40.6342 89.5674 40.603 89.209 40.6559 88.858C40.7089 88.5071 40.8444 88.1738 41.0514 87.8855C41.2584 87.5972 41.5309 87.3622 41.8465 87.1999C42.4134 86.871 43.0722 86.7357 43.7229 86.8147C44.3736 86.8936 44.9808 87.1824 45.4527 87.6374L53.1246 95.3124H53.1652L44.4965 86.5999C44.2457 86.3468 44.0558 86.0399 43.9414 85.7025C43.827 85.3651 43.7911 85.0061 43.8363 84.6527C43.8814 84.2993 44.0066 83.9608 44.2022 83.6631C44.3979 83.3653 44.6588 83.116 44.9652 82.9342V82.9342C45.5321 82.6051 46.1909 82.4697 46.8417 82.5487C47.4924 82.6276 48.0997 82.9166 48.5715 83.3718L56.2496 90.6249L49.0855 83.5593C48.8398 83.3177 48.6563 83.0202 48.5506 82.6923C48.445 82.3643 48.4203 82.0156 48.4788 81.6761C48.5374 81.3365 48.6773 81.0162 48.8866 80.7425C49.0959 80.4688 49.3684 80.2499 49.6808 80.1046V80.1046C50.2533 79.7681 50.9201 79.6283 51.5795 79.7064C52.2388 79.7846 52.8545 80.0764 53.3324 80.5374L62.4996 89.0624V84.3749C62.5345 83.5573 62.8749 82.7825 63.4536 82.2038C64.0322 81.6252 64.807 81.2847 65.6246 81.2499V81.2499C66.4422 81.2847 67.217 81.6252 67.7956 82.2038C68.3743 82.7825 68.7147 83.5573 68.7496 84.3749V95.3124L71.8746 98.4374" stroke="black" stroke-width="2" stroke-linejoin="round"/>
<path d="M56.25 83.5672L58.6953 81.4187C58.9489 81.1705 59.14 80.8656 59.2527 80.5291C59.3654 80.1925 59.3966 79.8341 59.3437 79.4831C59.2907 79.1322 59.1552 78.7989 58.9482 78.5106C58.7412 78.2223 58.4687 77.9873 58.1531 77.825V77.825C57.6266 77.4758 56.9973 77.3153 56.3679 77.3698C55.7385 77.4243 55.1461 77.6905 54.6875 78.125L53.125 79.6875" stroke="black" stroke-width="2" stroke-linejoin="round"/>
<path d="M59.9906 87.4999L61.8203 85.6796C62.0739 85.4314 62.265 85.1264 62.3777 84.7899C62.4904 84.4534 62.5216 84.0949 62.4687 83.744C62.4157 83.3931 62.2802 83.0598 62.0732 82.7715C61.8662 82.4832 61.5937 82.2482 61.2781 82.0859V82.0859C60.7111 81.7569 60.0524 81.6217 59.4017 81.7007C58.751 81.7796 58.1438 82.0684 57.6719 82.5234L56.25 83.7359" stroke="black" stroke-width="2" stroke-linejoin="round"/>
<path d="M53.053 79.6874L55.503 77.2249C55.7538 76.9718 55.9436 76.6649 56.058 76.3275C56.1724 75.9901 56.2084 75.6311 56.1632 75.2777C56.118 74.9243 55.9929 74.5858 55.7972 74.2881C55.6016 73.9903 55.3407 73.741 55.0343 73.5592C54.4674 73.2301 53.8086 73.0947 53.1578 73.1737C52.507 73.2526 51.8998 73.5416 51.428 73.9968L43.7499 81.2499L50.9139 74.1843C51.1597 73.9427 51.3432 73.6452 51.4489 73.3173C51.5545 72.9893 51.5791 72.6406 51.5206 72.3011C51.4621 71.9615 51.3222 71.6412 51.1129 71.3675C50.9036 71.0938 50.631 70.8749 50.3186 70.7296V70.7296C49.7462 70.3931 49.0794 70.2533 48.42 70.3314C47.7606 70.4096 47.145 70.7014 46.6671 71.1624L37.4999 79.6874V74.9999C37.465 74.1823 37.1246 73.4075 36.5459 72.8288C35.9672 72.2502 35.1925 71.9097 34.3749 71.8749V71.8749C33.5573 71.9097 32.7825 72.2502 32.2039 72.8288C31.6252 73.4075 31.2848 74.1823 31.2499 74.9999V85.9374L28.1249 90.6249C27.9992 93.4164 28.8183 96.1688 30.4499 98.4374" stroke="black" stroke-width="2" stroke-linejoin="round"/>
<path d="M28.125 90.625L17.1875 98.4375" stroke="black" stroke-width="2" stroke-linejoin="round"/>
<path d="M71.875 65.625L76.5625 67.1875C76.5625 70.3125 77.3641 71.875 79.6875 71.875C80.5906 71.8524 81.4615 71.5347 82.1669 70.9703C82.8723 70.406 83.3735 69.6261 83.5937 68.75C84.7297 68.6374 85.7758 68.0829 86.5066 67.206C87.2373 66.3291 87.5941 65.2001 87.5 64.0625C87.5941 62.9249 87.2373 61.7959 86.5066 60.919C85.7758 60.0421 84.7297 59.4876 83.5937 59.375C83.3735 58.4989 82.8723 57.719 82.1669 57.1547C81.4615 56.5903 80.5906 56.2726 79.6875 56.25C77.3641 56.25 76.5625 57.8125 76.5625 60.9375L71.875 62.5V65.625Z" stroke="black" stroke-width="2" stroke-linejoin="round"/>
<path d="M82.8125 50L87.5 51.5625C87.5 54.6875 88.3016 56.25 90.625 56.25C91.5281 56.2274 92.399 55.9097 93.1044 55.3453C93.8098 54.781 94.311 54.0011 94.5312 53.125C95.6672 53.0124 96.7133 52.4579 97.4441 51.581C98.1748 50.7041 98.5316 49.5751 98.4375 48.4375C98.5316 47.2999 98.1748 46.1709 97.4441 45.294C96.7133 44.4171 95.6672 43.8626 94.5312 43.75C94.311 42.8739 93.8098 42.094 93.1044 41.5297C92.399 40.9653 91.5281 40.6476 90.625 40.625C88.3016 40.625 87.5 42.1875 87.5 45.3125L82.8125 46.875V50Z" stroke="black" stroke-width="2" stroke-linejoin="round"/>
<path d="M65.625 37.5C65.625 37.5 56.25 39.0625 56.25 43.75C59.3093 42.8435 62.5657 42.8435 65.625 43.75" stroke="black" stroke-width="2" stroke-linejoin="round"/>
<path d="M39.0625 45.3125C40.7884 45.3125 42.1875 43.2138 42.1875 40.625C42.1875 38.0362 40.7884 35.9375 39.0625 35.9375C37.3366 35.9375 35.9375 38.0362 35.9375 40.625C35.9375 43.2138 37.3366 45.3125 39.0625 45.3125Z" stroke="black" stroke-width="2" stroke-linejoin="round"/>
<path d="M35.9375 31.25C35.9375 31.25 35.9375 34.375 40.625 34.375C41.8525 34.4717 43.083 34.2318 44.1843 33.6811C45.2856 33.1305 46.2159 32.29 46.875 31.25" stroke="black" stroke-width="2" stroke-linejoin="round"/>
<path d="M64.0625 31.25C64.0625 31.25 64.0625 34.375 59.375 34.375C58.1475 34.4717 56.917 34.2318 55.8157 33.6811C54.7144 33.1305 53.7841 32.29 53.125 31.25" stroke="black" stroke-width="2" stroke-linejoin="round"/>
<path d="M5.27791 1.56232H4.85447C4.09377 1.54545 3.35136 1.79666 2.75721 2.27199C2.16305 2.74731 1.755 3.41647 1.60447 4.16232C1.52803 4.61086 1.55046 5.07067 1.67019 5.50964C1.78992 5.9486 2.00406 6.35613 2.29766 6.70374C2.59125 7.05134 2.9572 7.33065 3.36995 7.52213C3.7827 7.71361 4.23229 7.81265 4.68729 7.81232H14.0623C14.0623 4.65138 10.0435 2.71076 7.32791 1.86232C6.66377 1.65882 5.97251 1.55766 5.27791 1.56232V1.56232Z" stroke="black" stroke-width="2" stroke-linejoin="round"/>
<path d="M10.0453 32.8125L14.0625 25C7.37813 25 5.46875 28.1703 4.91719 30C4.88282 30.0875 4.8625 30.1812 4.83594 30.2734V30.2828C4.78008 30.4843 4.74192 30.6903 4.72188 30.8984C4.6875 31.1109 4.6875 31.25 4.6875 31.25C4.63306 32.0185 4.88364 32.7774 5.38495 33.3624C5.88626 33.9473 6.5979 34.3112 7.36563 34.375C7.91151 34.3795 8.44851 34.2368 8.92009 33.9618C9.39168 33.6868 9.78039 33.2898 10.0453 32.8125Z" stroke="black" stroke-width="2" stroke-linejoin="round"/>
</svg>
