<svg width="100" height="100" viewBox="0 0 100 100" fill="none" xmlns="http://www.w3.org/2000/svg">
<path d="M75 98.4375H9.375L31.25 93.75C31.25 93.75 34.375 96.875 42.1875 96.875C50 96.875 53.125 93.75 53.125 93.75L75 98.4375Z" fill="#34C1AD"/>
<path d="M48.4375 76.5625H35.9375C35.9375 76.5625 35.9375 71.875 42.1875 71.875C48.4375 71.875 48.4375 76.5625 48.4375 76.5625Z" fill="#8F312C"/>
<path d="M12.5 57.8125C12.4985 58.8346 12.6245 59.8528 12.875 60.8437L12.5 60.9375C12.5 60.9375 7.8125 57.8125 7.8125 48.4375C7.8125 39.0625 14.0625 35.9375 14.0625 35.9375C11.4448 35.9924 8.86801 35.2825 6.64775 33.8948C4.42749 32.5072 2.66023 30.502 1.5625 28.125C8.70857 26.6273 15.5671 23.9894 21.875 20.3125C32.8125 14.0625 37.5 14.0625 43.75 14.0625C51.5625 14.0625 57.8125 21.875 57.8125 21.875C57.8125 21.875 59.2812 18.9219 65.0938 18.75C71.3906 18.5781 76.5625 26.5 76.5625 32.8125V49.8281C76.5617 50.9618 76.2539 52.074 75.6719 53.0469L71.875 59.375L71.7812 59.3594C71.8441 58.8462 71.8754 58.3296 71.875 57.8125V56.25C71.875 55.0068 71.3811 53.8145 70.5021 52.9354C69.623 52.0564 68.4307 51.5625 67.1875 51.5625H64.0625V45.3125C62.123 44.2836 60.5019 42.7436 59.375 40.8594V34.375C57.8418 33.7964 56.2767 33.306 54.6875 32.9062C50.6054 31.8394 46.4066 31.2831 42.1875 31.25C37.9684 31.2831 33.7696 31.8394 29.6875 32.9062C28.0983 33.306 26.5332 33.7964 25 34.375V39.8438L20.3125 43.75V51.5625H17.1875C15.9443 51.5625 14.752 52.0564 13.8729 52.9354C12.9939 53.8145 12.5 55.0068 12.5 56.25V57.8125Z" fill="#5E3616"/>
<path d="M42.1875 45.3125C48.0527 45.3692 53.8652 46.4261 59.375 48.4375V40.8594C60.5019 42.7436 62.123 44.2836 64.0625 45.3125V51.5625H67.1875C68.4307 51.5625 69.623 52.0564 70.5021 52.9354C71.3811 53.8145 71.875 55.0068 71.875 56.25V57.8125C71.8754 58.3296 71.8441 58.8462 71.7813 59.3594C71.5911 61.5202 70.7523 63.5732 69.3748 65.249C67.9974 66.9247 66.1457 68.1451 64.0625 68.75C63.4152 71.8155 62.0992 74.7003 60.2086 77.1986C58.318 79.6969 55.8992 81.7472 53.125 83.2031C49.7588 84.9984 46.0025 85.9375 42.1875 85.9375C38.3725 85.9375 34.6162 84.9984 31.25 83.2031C28.4758 81.7472 26.0571 79.6969 24.1664 77.1986C22.2758 74.7003 20.9599 71.8155 20.3125 68.75C18.4702 68.2347 16.8036 67.2259 15.4929 65.8325C14.1821 64.4391 13.2769 62.7141 12.875 60.8437C12.6245 59.8528 12.4986 58.8346 12.5 57.8125V56.25C12.5 55.0068 12.9939 53.8145 13.8729 52.9354C14.752 52.0564 15.9443 51.5625 17.1875 51.5625H20.3125V43.75L25 39.8438V48.4375C30.5098 46.4261 36.3223 45.3692 42.1875 45.3125ZM35.9375 76.5625H48.4375C48.4375 76.5625 48.4375 71.875 42.1875 71.875C35.9375 71.875 35.9375 76.5625 35.9375 76.5625Z" fill="#D47470"/>
<path d="M53.125 83.2031V93.75C53.125 93.75 50 96.875 42.1875 96.875C34.375 96.875 31.25 93.75 31.25 93.75V83.2031C34.6162 84.9984 38.3725 85.9375 42.1875 85.9375C46.0025 85.9375 49.7588 84.9984 53.125 83.2031Z" fill="#F2B59D"/>
<path d="M53.125 83.2031C49.7588 84.9984 46.0025 85.9375 42.1875 85.9375C38.3725 85.9375 34.6162 84.9984 31.25 83.2031V93.75C31.8726 94.2961 32.5716 94.7483 33.325 95.0922L53.125 86.6078V83.2031Z" fill="#ED9776"/>
<path d="M64.0625 45.3125C57.8125 42.1875 56.25 32.8125 56.25 32.8125C55.5622 34.854 54.3219 36.6649 52.6669 38.0441C51.012 39.4232 49.0071 40.3166 46.875 40.625L48.4219 34.4063C45.1808 38.6909 40.87 42.0479 35.9219 44.1406C33.9309 44.9023 31.8191 45.2992 29.6875 45.3125V35.9375L20.3125 43.75V51.5625H64.0625V45.3125Z" fill="#D47470"/>
<path d="M14.0625 35.9375C14.0625 35.9375 7.8125 39.0625 7.8125 48.4375C7.8125 57.8125 12.5 60.9375 12.5 60.9375L12.875 60.8437C12.6245 59.8528 12.4985 58.8346 12.5 57.8125V56.25C12.5 55.0068 12.9939 53.8145 13.8729 52.9354C14.752 52.0564 15.9443 51.5625 17.1875 51.5625H20.3125V43.75L12.5 46.875C9.375 42.1875 14.0625 35.9375 14.0625 35.9375Z" fill="#3B220E"/>
<path d="M64.0625 45.3125V51.5625H67.1875C68.4307 51.5625 69.623 52.0564 70.5021 52.9354C71.3811 53.8145 71.875 55.0068 71.875 56.25V48.4375C68.9782 48.377 66.2019 47.2665 64.0625 45.3125Z" fill="#3B220E"/>
<path d="M43.75 10.9375H40.625C40.6449 10.1353 40.833 9.34625 41.1773 8.62139C41.5216 7.89653 42.0142 7.25206 42.6234 6.72974C43.3844 5.93755 43.75 5.52192 43.75 4.68755C43.75 3.85317 43.3844 3.43755 42.6234 2.64536L44.8766 0.479736C45.4858 1.00206 45.9784 1.64653 46.3227 2.37139C46.667 3.09625 46.8551 3.88534 46.875 4.68755C46.8551 5.48976 46.667 6.27885 46.3227 7.00371C45.9784 7.72857 45.4858 8.37304 44.8766 8.89536C44.1156 9.68755 43.75 10.1032 43.75 10.9375Z" fill="#C74841"/>
<path d="M56.25 10.9375H53.125C53.1449 10.1353 53.333 9.34625 53.6773 8.62139C54.0216 7.89653 54.5142 7.25206 55.1234 6.72974C55.8844 5.93755 56.25 5.52192 56.25 4.68755C56.25 3.85317 55.8844 3.43755 55.1234 2.64536L57.3766 0.479736C57.9858 1.00206 58.4784 1.64653 58.8227 2.37139C59.167 3.09625 59.3551 3.88534 59.375 4.68755C59.3551 5.48976 59.167 6.27885 58.8227 7.00371C58.4784 7.72857 57.9858 8.37304 57.3766 8.89536C56.6156 9.68755 56.25 10.1032 56.25 10.9375Z" fill="#C74841"/>
<path d="M31.25 10.9375H28.125C28.1449 10.1353 28.333 9.34625 28.6773 8.62139C29.0216 7.89653 29.5142 7.25206 30.1234 6.72974C30.8844 5.93755 31.25 5.52192 31.25 4.68755C31.25 3.85317 30.8844 3.43755 30.1234 2.64536L32.3766 0.479736C32.9858 1.00206 33.4784 1.64653 33.8227 2.37139C34.167 3.09625 34.3551 3.88534 34.375 4.68755C34.3551 5.48976 34.167 6.27885 33.8227 7.00371C33.4784 7.72857 32.9858 8.37304 32.3766 8.89536C31.6156 9.68755 31.25 10.1032 31.25 10.9375Z" fill="#C74841"/>
<path d="M50.0001 56.25C49.9298 55.3851 50.0928 54.5172 50.472 53.7367C50.8513 52.9562 51.4329 52.2917 52.1563 51.8125C53.1269 52.2417 54.1442 52.5563 55.1876 52.75C55.9128 53.7701 56.2859 54.9988 56.2501 56.25C56.2501 58.8438 54.8438 60.9375 53.1251 60.9375C51.4063 60.9375 50.0001 58.8438 50.0001 56.25Z" fill="#5E3616"/>
<path d="M32.2187 51.8125C32.9421 52.2917 33.5237 52.9562 33.903 53.7367C34.2822 54.5172 34.4452 55.3851 34.3749 56.25C34.3749 58.8438 32.9687 60.9375 31.2499 60.9375C29.5312 60.9375 28.1249 58.8438 28.1249 56.25C28.0891 54.9988 28.4621 53.7701 29.1874 52.75C30.2308 52.5563 31.2481 52.2417 32.2187 51.8125Z" fill="#5E3616"/>
<path d="M64.0625 65.625V54.6875H65.625C66.4538 54.6875 67.2487 55.0167 67.8347 55.6028C68.4208 56.1888 68.75 56.9837 68.75 57.8125V59.5578C68.7517 60.871 68.3398 62.1513 67.5727 63.2171C66.8056 64.2829 65.7223 65.08 64.4766 65.4953L64.0625 65.625Z" fill="#B8514D"/>
<path d="M20.3125 65.625V54.6875H18.75C17.9212 54.6875 17.1263 55.0167 16.5403 55.6028C15.9542 56.1888 15.625 56.9837 15.625 57.8125V59.5578C15.6233 60.871 16.0352 62.1513 16.8023 63.2171C17.5694 64.2829 18.6527 65.08 19.8984 65.4953L20.3125 65.625Z" fill="#B8514D"/>
<path d="M42.1875 65.625C43.0504 65.625 43.75 64.2259 43.75 62.5C43.75 60.7741 43.0504 59.375 42.1875 59.375C41.3246 59.375 40.625 60.7741 40.625 62.5C40.625 64.2259 41.3246 65.625 42.1875 65.625Z" fill="#B54F4A"/>
<path d="M60.9375 42.8781C60.3591 42.2518 59.8363 41.5764 59.375 40.8594V48.4375C53.8652 46.4261 48.0527 45.3692 42.1875 45.3125C36.3223 45.3692 30.5098 46.4261 25 48.4375V39.8438L23.4375 41.1453L20.3125 43.75V46.875L23.4375 43.75V51.5625C29.4847 49.543 35.8122 48.4884 42.1875 48.4375C48.5628 48.4884 54.8903 49.543 60.9375 51.5625V45.4812C61.9206 46.0674 62.9695 46.5353 64.0625 46.875V45.3125C62.8782 44.703 61.8183 43.8773 60.9375 42.8781Z" fill="#B8514D"/>
<path d="M59.3749 54.6875C57.8684 54.6999 56.3643 54.5644 54.8843 54.2828C53.7237 54.0653 52.5922 53.714 51.5124 53.236C50.3427 52.7246 49.2794 51.9979 48.378 51.0938C48.089 50.7958 47.9302 50.3952 47.9365 49.9802C47.9428 49.5651 48.1137 49.1695 48.4116 48.8805C48.7096 48.5914 49.1102 48.4326 49.5252 48.4389C49.9403 48.4452 50.3359 48.6161 50.6249 48.9141C51.2519 49.5379 51.9901 50.0387 52.8015 50.3906C53.6615 50.7682 54.5623 51.045 55.4859 51.2156C56.7677 51.4588 58.0703 51.575 59.3749 51.5625C59.7893 51.5625 60.1868 51.7271 60.4798 52.0202C60.7728 52.3132 60.9374 52.7106 60.9374 53.125C60.9374 53.5394 60.7728 53.9369 60.4798 54.2299C60.1868 54.5229 59.7893 54.6875 59.3749 54.6875Z" fill="#3B220E"/>
<path d="M25 54.6876C24.5856 54.6876 24.1882 54.5229 23.8951 54.2299C23.6021 53.9369 23.4375 53.5395 23.4375 53.1251C23.4375 52.7107 23.6021 52.3132 23.8951 52.0202C24.1882 51.7272 24.5856 51.5626 25 51.5626C26.303 51.575 27.604 51.4593 28.8844 51.2172C29.8102 51.0461 30.7131 50.7682 31.575 50.3891C32.3857 50.0375 33.1234 49.5373 33.75 48.9141C34.038 48.616 34.4327 48.4444 34.8471 48.4372C35.2616 48.4301 35.662 48.5878 35.9602 48.8758C36.2583 49.1639 36.4299 49.5585 36.437 49.973C36.4442 50.3875 36.2864 50.7878 35.9984 51.086C35.0986 51.9932 34.0357 52.7226 32.8656 53.236C31.7833 53.7143 30.6491 54.0656 29.4859 54.2829C28.0075 54.5646 26.505 54.7002 25 54.6876Z" fill="#3B220E"/>
<path d="M59.375 48.4375C53.8652 46.4261 48.0527 45.3692 42.1875 45.3125C36.3223 45.3692 30.5098 46.4261 25 48.4375V34.375C26.5332 33.7964 28.0983 33.306 29.6875 32.9062V42.1875C33.7555 41.0592 37.9669 40.5328 42.1875 40.625C46.4081 40.5328 50.6195 41.0592 54.6875 42.1875V32.9062C56.2767 33.306 57.8418 33.7964 59.375 34.375V48.4375Z" fill="#CEE5DD"/>
<path d="M54.6875 32.9062V42.1875C50.6195 41.0592 46.4081 40.5328 42.1875 40.625C37.9669 40.5328 33.7555 41.0592 29.6875 42.1875V32.9062C33.7696 31.8394 37.9684 31.2831 42.1875 31.25C46.4066 31.2831 50.6054 31.8394 54.6875 32.9062Z" fill="#66B9DE"/>
<path d="M42.1875 42.1875C46.9181 42.1909 51.634 42.7148 56.25 43.75V33.3391C55.7703 33.1984 55.2578 33.0547 54.6875 32.9062V42.1875C50.6195 41.0592 46.4081 40.5328 42.1875 40.625C37.9669 40.5328 33.7555 41.0592 29.6875 42.1875V32.9062C29.1172 33.0625 28.6047 33.1984 28.125 33.3391V43.75C32.741 42.7148 37.4569 42.1909 42.1875 42.1875Z" fill="#55ADD4"/>
<path d="M54.6874 39.0375V32.9062C50.6053 31.8394 46.4065 31.2831 42.1874 31.25C38.6184 31.272 35.062 31.6775 31.5796 32.4594C33.3624 36.0422 42.9015 38.8094 54.6874 39.0375Z" fill="#75D5FF"/>
<path d="M95.3125 12.5V17.1875H82.8125V7.8125C82.8125 6.1549 83.471 4.56519 84.6431 3.39308C85.8152 2.22098 87.4049 1.5625 89.0625 1.5625C90.7201 1.5625 92.3098 2.22098 93.4819 3.39308C94.654 4.56519 95.3125 6.1549 95.3125 7.8125V12.5Z" fill="#D4D4D4"/>
<path d="M95.3125 44.5938C96.7277 45.8595 97.7252 47.5252 98.173 49.3703C98.6208 51.2154 98.4979 53.153 97.8204 54.9267C97.1429 56.7004 95.9428 58.2265 94.379 59.3032C92.8151 60.38 90.9612 60.9565 89.0625 60.9565C87.1638 60.9565 85.3099 60.38 83.746 59.3032C82.1822 58.2265 80.9821 56.7004 80.3046 54.9267C79.6271 53.153 79.5042 51.2154 79.952 49.3703C80.3998 47.5252 81.3973 45.8595 82.8125 44.5938V17.1875H95.3125V44.5938Z" fill="#E7544C"/>
<path d="M87.5 7.81251C87.5025 6.56969 87.8755 5.35585 88.5713 4.32606C89.2671 3.29628 90.2541 2.49731 91.4062 2.03126C90.4586 1.64464 89.4304 1.49715 88.4123 1.60177C87.3943 1.7064 86.4176 2.05993 85.5684 2.6312C84.7192 3.20247 84.0236 3.97391 83.543 4.8775C83.0624 5.78109 82.8115 6.78906 82.8125 7.81251V17.1875H87.5V7.81251Z" fill="#BFBFBF"/>
<path d="M84.375 51.5625C84.3777 50.2467 84.6573 48.9461 85.1957 47.7455C85.7341 46.5448 86.5192 45.471 87.5 44.5938V17.1875H82.8125V44.5938C81.2438 45.9912 80.1912 47.876 79.8244 49.9446C79.4575 52.0133 79.7978 54.1451 80.7904 55.9967C81.783 57.8484 83.3701 59.3119 85.2959 60.1515C87.2217 60.9911 89.3741 61.1579 91.4063 60.625C89.3963 60.106 87.6155 58.9346 86.343 57.2945C85.0705 55.6544 84.3783 53.6384 84.375 51.5625Z" fill="#C74841"/>
<path d="M95.3125 44.5938V7.8125C95.3125 6.1549 94.654 4.56519 93.4819 3.39308C92.3098 2.22098 90.7201 1.5625 89.0625 1.5625C87.4049 1.5625 85.8152 2.22098 84.6431 3.39308C83.471 4.56519 82.8125 6.1549 82.8125 7.8125V44.5938C81.3973 45.8595 80.3998 47.5252 79.952 49.3703C79.5042 51.2154 79.6271 53.153 80.3046 54.9267C80.9821 56.7004 82.1822 58.2265 83.746 59.3032C85.3099 60.38 87.1638 60.9565 89.0625 60.9565C90.9612 60.9565 92.8151 60.38 94.379 59.3032C95.9428 58.2265 97.1429 56.7004 97.8204 54.9267C98.4979 53.153 98.6208 51.2154 98.173 49.3703C97.7252 47.5252 96.7277 45.8595 95.3125 44.5938ZM89.0625 59.375C87.4807 59.378 85.9354 58.8998 84.6317 58.004C83.3279 57.1082 82.3275 55.8372 81.763 54.3595C81.1985 52.8819 81.0967 51.2675 81.4711 49.7306C81.8456 48.1938 82.6785 46.8071 83.8594 45.7547C84.0218 45.6081 84.1517 45.429 84.2405 45.229C84.3293 45.029 84.3751 44.8126 84.375 44.5938V7.8125C84.375 6.5693 84.8689 5.37701 85.7479 4.49794C86.627 3.61886 87.8193 3.125 89.0625 3.125C90.3057 3.125 91.498 3.61886 92.3771 4.49794C93.2561 5.37701 93.75 6.5693 93.75 7.8125V44.5938C93.7501 44.8127 93.7961 45.0292 93.8852 45.2292C93.9743 45.4292 94.1045 45.6082 94.2672 45.7547C95.4473 46.8076 96.2795 48.1943 96.6534 49.7311C97.0273 51.2678 96.9252 52.8819 96.3607 54.3592C95.7961 55.8366 94.7958 57.1075 93.4924 58.0032C92.189 58.899 90.6441 59.3774 89.0625 59.375Z" fill="#E3E3E3"/>
<path d="M92.1875 39.0625H95.3125V42.1875H92.1875C91.7731 42.1875 91.3757 42.0229 91.0826 41.7299C90.7896 41.4368 90.625 41.0394 90.625 40.625C90.625 40.2106 90.7896 39.8132 91.0826 39.5201C91.3757 39.2271 91.7731 39.0625 92.1875 39.0625Z" fill="#E3E3E3"/>
<path d="M92.1875 29.6875H95.3125V32.8125H92.1875C91.7731 32.8125 91.3757 32.6479 91.0826 32.3549C90.7896 32.0618 90.625 31.6644 90.625 31.25C90.625 30.8356 90.7896 30.4382 91.0826 30.1451C91.3757 29.8521 91.7731 29.6875 92.1875 29.6875Z" fill="#E3E3E3"/>
<path d="M92.1875 20.3125H95.3125V23.4375H92.1875C91.7731 23.4375 91.3757 23.2729 91.0826 22.9799C90.7896 22.6868 90.625 22.2894 90.625 21.875C90.625 21.4606 90.7896 21.0632 91.0826 20.7701C91.3757 20.4771 91.7731 20.3125 92.1875 20.3125Z" fill="#E3E3E3"/>
<path d="M92.1875 10.9375H95.3125V14.0625H92.1875C91.7731 14.0625 91.3757 13.8979 91.0826 13.6049C90.7896 13.3118 90.625 12.9144 90.625 12.5C90.625 12.0856 90.7896 11.6882 91.0826 11.3951C91.3757 11.1021 91.7731 10.9375 92.1875 10.9375Z" fill="#E3E3E3"/>
<path d="M93.6204 53.0968C94.7329 53.3547 95.3533 51.7562 95.3111 50.739C95.3444 50.0336 95.1756 49.3334 94.8247 48.7206C94.4737 48.1078 93.9551 47.6079 93.3298 47.2797C92.4542 46.8738 91.4702 46.7641 90.5267 46.9672C90.1283 47.0186 89.7536 47.1854 89.4486 47.4468C89.2889 47.5972 89.1733 47.7882 89.1141 47.9994C89.0549 48.2106 89.0544 48.4339 89.1126 48.6453C89.2097 48.8781 89.3588 49.0855 89.5486 49.2515L92.7314 52.4703C92.9638 52.7576 93.2717 52.9746 93.6204 53.0968Z" fill="white"/>
<path d="M54.6234 94.0719L53.125 93.75C53.125 93.75 50 96.875 42.1875 96.875C34.375 96.875 31.25 93.75 31.25 93.75L29.75 94.0719C29.8025 94.3654 29.9399 94.637 30.1453 94.8531C30.2922 95 33.8234 98.4375 42.1875 98.4375C50.5516 98.4375 54.0828 95 54.2297 94.8547C54.4355 94.6384 54.5725 94.366 54.6234 94.0719Z" fill="#E3E3E3"/>
</svg>
