<svg width="100" height="100" viewBox="0 0 100 100" fill="none" xmlns="http://www.w3.org/2000/svg">
<path d="M56.25 60.9375H43.75C43.75 60.9375 43.75 53.125 50 53.125C56.25 53.125 56.25 60.9375 56.25 60.9375Z" fill="#D9896D"/>
<path d="M83 36.0936L78.125 42.1873L77.9531 42.2029C78.0651 41.6843 78.1227 41.1554 78.125 40.6248V39.0623C78.1225 38.2343 77.7925 37.4409 77.207 36.8553C76.6215 36.2698 75.828 35.9398 75 35.9373H71.875V29.6873C64.0625 29.6873 64.0625 17.1873 64.0625 17.1873C64.0625 17.1873 59.375 24.9998 54.6875 24.9998L56.2344 18.7811C55.7656 19.4217 48.0938 29.6873 37.5 29.6873V20.3123L28.125 28.1248V35.9373H25C24.172 35.9398 23.3785 36.2698 22.793 36.8553C22.2075 37.4409 21.8775 38.2343 21.875 39.0623V40.6248C21.9149 42.3012 22.4535 43.9277 23.4219 45.2967C22.9531 45.1092 15.625 41.9373 15.625 34.3748C15.7135 31.9657 16.3171 29.6036 17.3952 27.4474C18.4733 25.2912 20.0008 23.391 21.875 21.8748C19.2573 21.9297 16.6805 21.2198 14.4603 19.8322C12.24 18.4445 10.4727 16.4393 9.375 14.0623C9.375 14.0623 21.875 12.4998 28.125 9.37482C34.375 6.24982 37.5 1.56232 50 1.56232C53.0476 1.46911 56.0707 2.13415 58.7979 3.49774C61.5251 4.86132 63.871 6.88078 65.625 9.37482C66.2841 8.33485 67.2144 7.49432 68.3157 6.94368C69.417 6.39304 70.6475 6.15315 71.875 6.24982C76.5625 6.24982 84.375 9.37482 84.375 18.7498V32.1873C84.3753 33.6081 83.8901 34.9863 83 36.0936Z" fill="#5E3616"/>
<path d="M59.375 65.0469C56.4857 66.526 53.2874 67.3005 50.0415 67.307C46.7956 67.3136 43.5942 66.552 40.699 65.0846C37.8037 63.6171 35.2967 61.4854 33.3829 58.8638C31.4692 56.2421 30.2028 53.2047 29.6875 50C27.1429 49.1721 24.9448 47.5235 23.4375 45.3125L23.4219 45.2969C22.4535 43.9279 21.9149 42.3014 21.875 40.625V39.0625C21.8775 38.2345 22.2075 37.441 22.793 36.8555C23.3785 36.27 24.172 35.94 25 35.9375H28.125V28.125L37.5 20.3125V29.6875C48.0938 29.6875 55.7656 19.4219 56.2344 18.7813L54.6875 25C59.375 25 64.0625 17.1875 64.0625 17.1875C64.0625 17.1875 64.0625 29.6875 71.875 29.6875V35.9375H75C75.828 35.94 76.6215 36.27 77.207 36.8555C77.7925 37.441 78.1225 38.2345 78.125 39.0625V40.625C78.1227 41.1556 78.0651 41.6845 77.9531 42.2031C77.4188 44.0308 76.442 45.6984 75.1092 47.0584C73.7765 48.4184 72.1289 49.4288 70.3125 50C69.7667 53.1794 68.4963 56.1904 66.5995 58.7997C64.7028 61.409 62.2308 63.5466 59.375 65.0469ZM43.75 60.9375H56.25C56.25 60.9375 56.25 53.125 50 53.125C43.75 53.125 43.75 60.9375 43.75 60.9375Z" fill="#F2C4B2"/>
<path d="M98.4375 96.875V98.4375H78.125C79.4802 98.4873 80.8276 98.211 82.0538 97.6318C83.2801 97.0527 84.3494 96.1876 85.1719 95.1094C86.7091 92.8721 87.5168 90.2143 87.4844 87.5H87.5L98.4375 96.875Z" fill="#21ABAB"/>
<path d="M75 98.4373H7.8125V91.781C7.81414 89.6721 8.52559 87.6252 9.83226 85.9699C11.1389 84.3145 12.9647 83.1473 15.0156 82.656L38.2187 77.1404C38.5535 77.0635 38.8713 76.9258 39.1562 76.7341C40.2698 78.6111 41.8586 80.1614 43.7624 81.2285C45.6662 82.2956 47.8177 82.8419 50 82.8123H54.0625L64.0625 92.7498L75 98.4373Z" fill="#34C1AD"/>
<path d="M28.125 39.0625H26.5625C26.1481 39.0625 25.7507 39.2271 25.4576 39.5201C25.1646 39.8132 25 40.2106 25 40.625V42.1875C25 43.9141 26.3984 46.875 28.125 46.875V39.0625Z" fill="#F2A283"/>
<path d="M71.875 39.0625H73.4375C73.8519 39.0625 74.2493 39.2271 74.5424 39.5201C74.8354 39.8132 75 40.2106 75 40.625V42.1875C75 43.9141 73.5938 46.875 71.875 46.875V39.0625Z" fill="#F2A283"/>
<path d="M21.875 21.875C20.0008 23.3912 18.4733 25.2914 17.3952 27.4476C16.3171 29.6038 15.7135 31.9659 15.625 34.375C15.625 41.9375 22.9531 45.1094 23.4219 45.2969C22.4535 43.9279 21.9149 42.3014 21.875 40.625V39.0625C21.8775 38.2345 22.2075 37.441 22.793 36.8555C23.3785 36.27 24.172 35.94 25 35.9375H28.125V28.125L18.75 31.25C18.5879 27.8449 19.7022 24.5018 21.875 21.875Z" fill="#3B220E"/>
<path d="M71.875 29.6875V35.9375H75C75.828 35.94 76.6215 36.27 77.207 36.8555C77.7925 37.441 78.1225 38.2345 78.125 39.0625V32.8125L71.875 29.6875Z" fill="#3B220E"/>
<path d="M37.5 20.3125L28.125 28.125V29.6875V31.25L37.5 23.4375V20.3125Z" fill="#D9896D"/>
<path d="M64.0625 20.3125C64.0625 20.3125 64.0625 32.8125 71.875 32.8125V29.6875C64.0625 29.6875 64.0625 17.1875 64.0625 17.1875C64.0625 17.1875 59.8922 24.1313 55.4844 24.9203L54.6875 28.125C59.375 28.125 64.0625 20.3125 64.0625 20.3125Z" fill="#D9896D"/>
<path d="M55.1109 23.2966L56.2344 18.781C55.7656 19.4216 48.0938 29.6873 37.5 29.6873V32.8123C45.975 32.8123 52.5688 26.2498 55.1109 23.2966Z" fill="#D9896D"/>
<path d="M50 50C50.8629 50 51.5625 48.6009 51.5625 46.875C51.5625 45.1491 50.8629 43.75 50 43.75C49.1371 43.75 48.4375 45.1491 48.4375 46.875C48.4375 48.6009 49.1371 50 50 50Z" fill="#D9896D"/>
<path d="M43.75 54.6873C43.757 53.0437 43.2441 51.44 42.2845 50.1056C41.3249 48.7711 39.9679 47.7744 38.4075 47.2579C36.8472 46.7414 35.1634 46.7317 33.5972 47.2301C32.031 47.7284 30.6625 48.7094 29.6875 50.0326C30.571 54.8292 33.036 59.1916 36.6891 62.4232C38.6173 62.2429 40.4091 61.3504 41.7147 59.92C43.0203 58.4896 43.746 56.6239 43.75 54.6873Z" fill="#F2A283"/>
<path d="M57.8126 56.2499C57.8156 57.7127 58.2305 59.1451 59.0098 60.3831C59.7891 61.6211 60.9012 62.6146 62.2189 63.2499C66.4659 60.0021 69.3513 55.2891 70.3126 50.0296C69.1576 49.1465 67.7781 48.6048 66.3308 48.4661C64.8835 48.3274 63.4262 48.5973 62.1245 49.2451C60.8228 49.8928 59.7288 50.8925 58.9666 52.1307C58.2044 53.3689 57.8046 54.796 57.8126 56.2499Z" fill="#F2A283"/>
<path d="M64.0626 92.7498L54.0626 82.8123H50.0001C47.8178 82.8419 45.6663 82.2956 43.7625 81.2285C41.8587 80.1614 40.2699 78.6111 39.1563 76.7341C38.8714 76.9258 38.5536 77.0635 38.2188 77.1404L31.7407 78.681C32.9892 81.8607 37.4173 87.4998 53.1251 87.4998L59.3751 98.4373H75.0001L64.0626 92.7498Z" fill="#21ABAB"/>
<path d="M65.625 85.9374L59.375 80.4499V80.6062L57.9532 79.3921C57.3936 78.8461 56.6412 78.5429 55.8594 78.5483C55.3278 78.5518 54.8059 78.6916 54.3438 78.9546C54.0289 79.1175 53.7571 79.3526 53.5504 79.6407C53.3438 79.9288 53.2083 80.2617 53.155 80.6122C53.1016 80.9627 53.132 81.3208 53.2436 81.6573C53.3551 81.9938 53.5448 82.2991 53.7969 82.5483L54.0625 82.814L64.0625 92.7499L75 98.4374H78.125C79.4803 98.4872 80.8276 98.2109 82.0539 97.6317C83.2801 97.0526 84.3494 96.1875 85.1719 95.1093C86.7091 92.872 87.5168 90.2142 87.4844 87.4999C87.4974 87.3597 87.5026 87.2188 87.5 87.078L84.375 82.8124V71.8749C84.3412 71.0569 84.0011 70.2816 83.4223 69.7027C82.8434 69.1238 82.068 68.7837 81.25 68.7499C80.4321 68.7837 79.6567 69.1238 79.0778 69.7027C78.4989 70.2816 78.1588 71.0569 78.125 71.8749V76.5624L68.9532 68.0312C68.6782 67.7578 68.3513 67.5422 67.9917 67.3973C67.6321 67.2524 67.2471 67.181 66.8594 67.1874C66.3153 67.1866 65.7809 67.3324 65.3125 67.6093C64.9988 67.7528 64.7247 67.9703 64.5137 68.2432C64.3027 68.5161 64.1611 68.8361 64.1012 69.1758C64.0412 69.5155 64.0647 69.8647 64.1696 70.1933C64.2744 70.522 64.4575 70.8202 64.7032 71.0624L71.875 78.1249L64.2032 70.8749C63.9304 70.603 63.6061 70.3883 63.2492 70.2434C62.8924 70.0985 62.5102 70.0263 62.125 70.0312C61.5872 70.0249 61.0578 70.1653 60.5938 70.4374C60.2853 70.6162 60.0222 70.8637 59.8249 71.1607C59.6276 71.4576 59.5014 71.7961 59.4561 72.1497C59.4107 72.5034 59.4475 72.8627 59.5635 73.1998C59.6795 73.537 59.8717 73.8428 60.125 74.0937L61.4297 75.4062L61.0782 75.1249C60.6153 74.6751 60.0163 74.3915 59.375 74.3187V80.4499L65.625 85.9374Z" fill="#F2BCA7"/>
<path d="M57.4688 74.6873C57.1537 74.852 56.8818 75.0887 56.6753 75.3782C56.4688 75.6677 56.3334 76.0017 56.2802 76.3533C56.2269 76.7048 56.2572 77.064 56.3687 77.4017C56.4802 77.7393 56.6698 78.0459 56.9219 78.2966L59.375 80.4498V74.3185C59.2458 74.2974 59.1153 74.2849 58.9844 74.281C58.4527 74.2844 57.9309 74.4243 57.4688 74.6873Z" fill="#F2BCA7"/>
<path d="M56.792 75.2781C56.4259 75.7035 56.2355 76.2524 56.2596 76.8131C56.2837 77.3739 56.5205 77.9044 56.9217 78.2968L63.9639 84.4796C64.4142 84.8746 64.9977 85.0835 65.5963 85.064C66.1949 85.0446 66.7637 84.7983 67.1874 84.375L56.792 75.2781Z" fill="#F2AB8F"/>
<path d="M72.6952 94.3249L65.1796 91.103C64.4416 90.7871 63.7708 90.3331 63.2031 89.7655L54.2296 80.7921C54.0464 80.6044 53.9142 80.3728 53.8459 80.1195C53.7775 79.8663 53.7751 79.5997 53.839 79.3452C53.6187 79.5484 53.4421 79.7943 53.3201 80.0679C53.198 80.3416 53.133 80.6373 53.1291 80.9369C53.1251 81.2366 53.1823 81.5338 53.2971 81.8106C53.4119 82.0874 53.582 82.3379 53.7968 82.5468L54.0624 82.8124L64.0624 92.7499L74.9999 98.4374H78.1249C79.4802 98.4872 80.8275 98.2109 82.0538 97.6317C83.28 97.0526 84.3493 96.1875 85.1718 95.1093C86.6889 92.8997 87.4932 90.2786 87.4765 87.5983C87.1746 89.5557 86.2346 91.3585 84.8026 92.7267C83.3706 94.0948 81.5268 94.9516 79.5577 95.164C77.2374 95.5608 74.8516 95.2691 72.6952 94.3249Z" fill="#F2AB8F"/>
<path d="M69.5312 82.031C69.6338 81.9284 69.7152 81.8066 69.7707 81.6726C69.8263 81.5385 69.8549 81.3949 69.8549 81.2498C69.8549 81.1047 69.8263 80.961 69.7707 80.8269C69.7152 80.6929 69.6338 80.5711 69.5312 80.4685L60.0077 70.9451C59.6208 71.3852 59.4173 71.957 59.4391 72.5426C59.4609 73.1283 59.7063 73.6833 60.1249 74.0935L61.4296 75.406L61.0781 75.1248C61.0531 75.0998 61.0218 75.0826 60.9952 75.0576L67.9687 82.031C68.0713 82.1336 68.1931 82.215 68.3271 82.2706C68.4612 82.3261 68.6048 82.3547 68.7499 82.3547C68.895 82.3547 69.0387 82.3261 69.1728 82.2706C69.3068 82.215 69.4286 82.1336 69.5312 82.031Z" fill="#F2AB8F"/>
<path d="M74.2188 78.9062C74.3215 78.8037 74.4029 78.6819 74.4584 78.5478C74.5139 78.4138 74.5425 78.2701 74.5425 78.125C74.5425 77.9799 74.5139 77.8362 74.4584 77.7022C74.4029 77.5681 74.3215 77.4463 74.2188 77.3437L64.8438 67.9688C64.4762 68.2759 64.2228 68.6981 64.1247 69.167C64.0266 69.636 64.0895 70.1243 64.3032 70.5531L71.8751 78.125L72.6563 78.9062C72.7589 79.0089 72.8807 79.0903 73.0148 79.1458C73.1488 79.2013 73.2925 79.2299 73.4376 79.2299C73.5827 79.2299 73.7264 79.2013 73.8604 79.1458C73.9945 79.0903 74.1163 79.0089 74.2188 78.9062Z" fill="#F2AB8F"/>
<path d="M53.7969 82.5466C53.5447 82.2974 53.3551 81.9921 53.2435 81.6556C53.132 81.3191 53.1016 80.9609 53.1549 80.6105C53.2083 80.26 53.3438 79.9271 53.5504 79.639C53.757 79.3509 54.0289 79.1158 54.3438 78.9529C54.8058 78.6899 55.3277 78.55 55.8594 78.5466C56.6412 78.5412 57.3935 78.8444 57.9531 79.3904L59.375 80.6044V80.4482L56.9219 78.2966C56.6697 78.0459 56.4802 77.7393 56.3687 77.4017C56.2572 77.064 56.2269 76.7048 56.2801 76.3533C56.3334 76.0017 56.4688 75.6677 56.6753 75.3782C56.8818 75.0887 57.1536 74.852 57.4688 74.6873C57.9308 74.4243 58.4527 74.2844 58.9844 74.281C59.1153 74.2849 59.2458 74.2974 59.375 74.3185V65.0466C56.4506 66.4555 53.2461 67.1872 50 67.1872C46.7539 67.1872 43.5495 66.4555 40.625 65.0466V74.0935C40.6267 74.6226 40.4925 75.1432 40.2353 75.6055C39.9782 76.0679 39.6066 76.4565 39.1562 76.7341C40.2698 78.6111 41.8586 80.1614 43.7624 81.2285C45.6662 82.2956 47.8177 82.8419 50 82.8123H54.0625L53.7969 82.5466Z" fill="#FF5D54"/>
<path d="M81.25 70.3125C81.251 70.0178 81.3353 69.7294 81.4931 69.4806C81.651 69.2318 81.876 69.0327 82.1422 68.9062C81.8553 68.806 81.5539 68.7532 81.25 68.75C80.432 68.7838 79.6567 69.1239 79.0778 69.7028C78.4989 70.2817 78.1588 71.057 78.125 71.875V76.5625L81.25 79.6875V70.3125Z" fill="#F2AB8F"/>
<path d="M59.375 65.0466C56.4506 66.4555 53.2461 67.1872 50 67.1872C46.7539 67.1872 43.5495 66.4555 40.625 65.0466V74.0935C40.6267 74.6226 40.4925 75.1432 40.2353 75.6055C39.9782 76.0679 39.6066 76.4565 39.1562 76.7341C39.6711 77.6124 40.2977 78.4202 41.0203 79.1373L59.375 68.1248V65.0466Z" fill="#E7544C"/>
<path d="M40.625 68.75V74.0937C40.6251 74.7968 40.3881 75.4794 39.9523 76.0312C39.5166 76.5829 38.9074 76.9716 38.2234 77.1344L15.0156 82.6563C12.9637 83.1449 11.1365 84.3113 9.82939 85.9668C8.5223 87.6224 7.81172 89.6703 7.8125 91.7797V98.4375" stroke="black" stroke-width="2" stroke-linejoin="round"/>
<path d="M59.375 64.0625V73.4375" stroke="black" stroke-width="2" stroke-linejoin="round"/>
<path d="M78.1248 98.4374H74.9998L64.0623 92.7561L53.8045 82.5546C53.5509 82.3063 53.3598 82.0014 53.2471 81.6649C53.1344 81.3284 53.1032 80.9699 53.1562 80.619C53.2091 80.2681 53.3447 79.9347 53.5516 79.6464C53.7586 79.3582 54.0311 79.1232 54.3467 78.9608V78.9608C54.9137 78.6319 55.5724 78.4967 56.2231 78.5756C56.8738 78.6546 57.4811 78.9434 57.953 79.3983L65.6248 85.9374L56.9295 78.2936C56.6759 78.0454 56.4848 77.7405 56.3721 77.404C56.2594 77.0674 56.2282 76.709 56.2812 76.358C56.3341 76.0071 56.4697 75.6738 56.6766 75.3855C56.8836 75.0972 57.1561 74.8622 57.4717 74.6999V74.6999C58.0387 74.371 58.6974 74.2357 59.3481 74.3147C59.9988 74.3936 60.6061 74.6824 61.078 75.1374L68.7498 82.8124H68.7905L60.1217 74.0999C59.8709 73.8468 59.6811 73.5399 59.5667 73.2025C59.4523 72.8651 59.4163 72.5061 59.4615 72.1527C59.5067 71.7993 59.6319 71.4608 59.8275 71.1631C60.0231 70.8653 60.284 70.616 60.5905 70.4342C61.1574 70.1051 61.8161 69.9697 62.4669 70.0487C63.1177 70.1276 63.725 70.4166 64.1967 70.8718L71.8748 78.1249L64.7108 71.0593C64.4651 70.8177 64.2815 70.5202 64.1759 70.1923C64.0702 69.8643 64.0456 69.5156 64.1041 69.1761C64.1626 68.8365 64.3025 68.5162 64.5118 68.2425C64.7212 67.9688 64.9937 67.7499 65.3061 67.6046C65.8785 67.2681 66.5453 67.1283 67.2047 67.2064C67.8641 67.2846 68.4797 67.5764 68.9576 68.0374L78.1248 76.5624V71.8749C78.1597 71.0573 78.5001 70.2825 79.0788 69.7038C79.6575 69.1252 80.4322 68.7847 81.2498 68.7499V68.7499C82.0674 68.7847 82.8422 69.1252 83.4209 69.7038C83.9995 70.2825 84.34 71.0573 84.3748 71.8749V82.8124L87.4998 87.0733C87.4998 93.3499 84.4014 98.4374 78.1248 98.4374Z" stroke="black" stroke-width="2" stroke-linejoin="round"/>
<path d="M28.125 29.6875V35.9375H25C24.1712 35.9375 23.3763 36.2667 22.7903 36.8528C22.2042 37.4388 21.875 38.2337 21.875 39.0625V40.625C21.875 44.8641 25.8266 48.8406 29.6875 50C31.6813 60.0266 39.3875 67.1875 50 67.1875C60.6125 67.1875 68.3187 60.0266 70.3125 50C74.1734 48.8406 78.125 44.8641 78.125 40.625V39.0625C78.125 38.2337 77.7958 37.4388 77.2097 36.8528C76.6237 36.2667 75.8288 35.9375 75 35.9375H71.875V29.6875C64.0625 29.6875 64.0625 17.1875 64.0625 17.1875C64.0625 17.1875 59.375 25 54.6875 25L56.25 18.75C56.25 18.75 48.4375 29.6875 37.5 29.6875V20.3125L28.125 28.125V29.6875Z" stroke="black" stroke-width="2" stroke-linejoin="round"/>
<path d="M78.125 42.1873L83.0047 36.0936C83.8919 34.985 84.3752 33.6073 84.375 32.1873V18.7498C84.375 9.37482 76.5625 6.24982 71.875 6.24982C70.6475 6.15315 69.417 6.39304 68.3157 6.94368C67.2144 7.49432 66.2841 8.33485 65.625 9.37482C63.871 6.88078 61.5251 4.86132 58.7979 3.49774C56.0707 2.13415 53.0476 1.46911 50 1.56232C37.5 1.56232 34.375 6.24982 28.125 9.37482C21.875 12.4998 9.375 14.0623 9.375 14.0623C10.4727 16.4393 12.24 18.4445 14.4603 19.8322C16.6805 21.2198 19.2573 21.9297 21.875 21.8748C20.0008 23.391 18.4733 25.2912 17.3952 27.4474C16.3171 29.6036 15.7135 31.9657 15.625 34.3748C15.625 42.1873 23.4375 45.3123 23.4375 45.3123" stroke="black" stroke-width="2" stroke-linejoin="round"/>
<path d="M43.75 60.9375C43.75 60.9375 43.75 53.125 50 53.125C56.25 53.125 56.25 60.9375 56.25 60.9375H43.75Z" stroke="black" stroke-width="2" stroke-linejoin="round"/>
<path d="M53.125 29.6875C53.125 33.1422 56.6188 35.9375 60.9375 35.9375" stroke="black" stroke-width="2" stroke-linejoin="round"/>
<path d="M46.875 29.6875C46.875 33.1422 43.3812 35.9375 39.0625 35.9375" stroke="black" stroke-width="2" stroke-linejoin="round"/>
<path d="M65.625 37.5L56.25 42.1875L65.625 45.3125" stroke="black" stroke-width="2" stroke-linejoin="round"/>
<path d="M34.375 37.5L43.75 42.1875L34.375 45.3125" stroke="black" stroke-width="2" stroke-linejoin="round"/>
<path d="M87.5 87.5L98.4375 96.875V98.4375" stroke="black" stroke-width="2" stroke-linejoin="round"/>
<path d="M39.0625 76.5625C40.1619 78.4856 41.756 80.0793 43.6793 81.1783C45.6026 82.2774 47.785 82.8416 50 82.8125H53.125" stroke="black" stroke-width="2" stroke-linejoin="round"/>
<path d="M20.3125 51.5625L26.5625 56.25L23.4375 59.375L29.6875 64.0625" stroke="black" stroke-width="2" stroke-linejoin="round"/>
<path d="M10.9375 62.5H20.3125L17.1875 67.1875H26.5625" stroke="black" stroke-width="2" stroke-linejoin="round"/>
<path d="M32.8125 71.875H23.4375L26.5625 76.5625H17.1875" stroke="black" stroke-width="2" stroke-linejoin="round"/>
<path d="M81.25 50L75 54.6875L78.125 57.8125L71.875 62.5" stroke="black" stroke-width="2" stroke-linejoin="round"/>
<path d="M90.625 60.9375H81.25L84.375 65.625H75" stroke="black" stroke-width="2" stroke-linejoin="round"/>
</svg>
