<svg width="681" height="625" viewBox="0 0 681 625" fill="none" xmlns="http://www.w3.org/2000/svg">
<path d="M175.461 2.64351C102.975 -12.6979 28.2847 42.4723 0 71.9751V622C109.303 636.161 232.989 579.423 280.45 549.92C324.171 527.498 404.135 530.743 438.652 535.169C513.439 552.871 586.787 521.893 614.113 504.191C698.104 441.645 685.544 337.5 668.765 293.246C631.947 205.918 513.439 156.55 458.787 142.782C379.398 135.701 328.869 97.5441 313.528 79.3508C264.054 29.7861 200.869 7.56064 175.461 2.64351Z" fill="url(#paint0_linear)"/>
<path d="M321.811 243.681C285.71 103.366 93.1399 90.7373 1.36743 101.963V473.798C123.224 455.557 357.912 383.996 321.811 243.681Z" fill="white" fill-opacity="0.07"/>
<path d="M287.169 282.502C449.442 246.955 595.153 392.415 647.725 469.589C584.639 547.417 479.526 545.671 434.855 535.069C334.21 520.85 256.477 556.272 230.191 575.761C166.011 540.962 128.086 466.782 117.147 434.042C106.207 398.34 124.896 318.048 287.169 282.502Z" fill="white" fill-opacity="0.08"/>
<g clip-path="url(#clip0)">
<path d="M72.2656 546.965C72.2656 564.347 61.9407 570.416 49.2031 570.416C48.908 570.416 48.6134 570.413 48.3193 570.406C47.7291 570.394 47.1446 570.366 46.5671 570.326C35.0717 569.512 26.1406 563.131 26.1406 546.965C26.1406 530.235 47.5029 509.125 49.1076 507.563L49.1104 507.56C49.1722 507.5 49.2031 507.47 49.2031 507.47C49.2031 507.47 72.2656 529.583 72.2656 546.965Z" fill="#6B79EC"/>
<path d="M48.363 567.757L56.798 555.962L48.3419 569.052L48.3194 570.406C47.7292 570.394 47.1447 570.366 46.5672 570.326L47.4763 552.936L47.4693 552.801L47.4848 552.775L47.5705 551.133L39.0933 538.01L47.5971 549.901L47.6168 550.25L48.3039 537.11L41.0464 523.55L48.3925 534.804L49.1077 507.563L49.1105 507.47V507.56L48.9911 529.041L56.2163 520.525L48.9615 530.892L48.7705 542.656L55.5165 531.366L48.7424 544.387L48.6356 550.928L58.4294 535.213L48.599 553.21L48.363 567.757Z" fill="#3F3D56"/>
<path d="M566.702 326.106C566.702 462.401 504.866 569.922 428.716 572.891C329.411 576.761 199.623 477.669 290.73 326.106C360.935 209.315 352.508 79.3218 428.716 79.3218C504.924 79.3218 566.702 189.811 566.702 326.106Z" fill="#F2F2F2"/>
<path d="M486.593 398.564H289.846V569.553H486.593V398.564Z" fill="#6B79EC"/>
<path d="M0 569.553H654" stroke="#3F3D56" stroke-width="2" stroke-miterlimit="10"/>
<path d="M431.906 21C427.581 21.0004 423.387 22.4902 420.03 25.2193C416.673 27.9484 414.357 31.7505 413.47 35.987C412.583 40.2235 413.18 44.6364 415.161 48.4843C417.141 52.3323 420.385 55.381 424.346 57.1184C424.267 55.6685 424.377 54.2144 424.674 52.793C425.036 51.2614 427.096 42.5179 427.096 42.5179C426.684 41.5794 426.478 40.5637 426.49 39.5389C426.49 36.745 428.105 34.658 430.123 34.658C431.838 34.658 432.663 35.9456 432.663 37.4856C432.663 39.2107 431.561 41.7858 430.998 44.1757C430.885 44.6185 430.879 45.0814 430.978 45.5272C431.077 45.973 431.28 46.3892 431.57 46.7422C431.86 47.0952 432.228 47.375 432.646 47.5593C433.063 47.7435 433.519 47.8269 433.974 47.8027C437.54 47.8027 439.945 43.2164 439.945 37.7801C439.945 33.6482 437.161 30.5598 432.108 30.5598C430.898 30.5122 429.692 30.7113 428.562 31.145C427.431 31.5787 426.401 32.2379 425.534 33.0826C424.666 33.9272 423.979 34.9396 423.515 36.0582C423.051 37.1768 422.818 38.3782 422.833 39.5894C422.777 40.9325 423.22 42.2487 424.077 43.2837C424.227 43.4079 424.335 43.5767 424.383 43.7658C424.431 43.9548 424.418 44.1543 424.346 44.3356C424.254 44.6806 424.052 45.5137 423.959 45.8503C423.943 45.9521 423.903 46.0486 423.842 46.1317C423.781 46.2149 423.702 46.2823 423.61 46.3284C423.518 46.3745 423.416 46.3979 423.313 46.3967C423.21 46.3955 423.109 46.3698 423.018 46.3216C420.386 45.2445 419.158 42.3664 419.158 39.1181C419.158 33.766 423.673 27.3451 432.621 27.3451C439.81 27.3451 444.544 32.5542 444.544 38.1419C444.544 45.539 440.432 51.0594 434.378 51.0594C432.343 51.0594 430.434 49.957 429.778 48.7115C429.778 48.7115 428.685 53.0539 428.45 53.8954C428.015 55.3252 427.378 56.6855 426.558 57.9347C429.148 58.7005 431.873 58.8997 434.548 58.5189C437.222 58.1381 439.783 57.1862 442.058 55.7277C444.332 54.2693 446.267 52.3383 447.73 50.0659C449.193 47.7934 450.151 45.2327 450.539 42.5572C450.926 39.8818 450.734 37.1542 449.975 34.5596C449.217 31.965 447.91 29.5639 446.142 27.5193C444.375 25.4747 442.189 23.8344 439.733 22.7095C437.277 21.5847 434.607 21.0017 431.906 21L431.906 21Z" fill="#3F3D56"/>
<path d="M617.866 157.329C616.379 157.987 614.804 158.421 613.19 158.617C614.892 157.598 616.165 155.995 616.773 154.106C615.175 155.058 613.426 155.727 611.601 156.084C610.485 154.889 609.036 154.058 607.442 153.699C605.848 153.34 604.183 153.47 602.663 154.071C601.144 154.672 599.84 155.716 598.922 157.069C598.004 158.422 597.514 160.02 597.516 161.655C597.513 162.281 597.584 162.905 597.726 163.515C594.487 163.354 591.318 162.512 588.426 161.043C585.534 159.574 582.984 157.512 580.942 154.99C579.901 156.787 579.583 158.913 580.053 160.936C580.523 162.96 581.746 164.727 583.473 165.879C582.175 165.847 580.905 165.498 579.773 164.861V164.962C579.773 166.845 580.423 168.669 581.614 170.126C582.805 171.584 584.463 172.584 586.307 172.957C585.608 173.146 584.887 173.243 584.163 173.243C583.649 173.244 583.136 173.193 582.632 173.091C583.152 174.712 584.166 176.129 585.53 177.144C586.895 178.16 588.542 178.723 590.242 178.755C587.358 181.023 583.795 182.254 580.127 182.247C579.477 182.246 578.829 182.207 578.184 182.129C581.892 184.544 586.222 185.825 590.646 185.815C605.639 185.815 613.829 173.386 613.829 162.606C613.829 162.252 613.821 161.899 613.804 161.554C615.398 160.398 616.773 158.968 617.866 157.329Z" fill="#3F3D56"/>
<path d="M304.514 44.995H275.79C275.317 44.9952 274.864 45.1833 274.529 45.5178C274.195 45.8523 274.007 46.306 274.007 46.779V75.5257C274.007 75.9987 274.195 76.4524 274.529 76.7869C274.864 77.1214 275.317 77.3095 275.79 77.3097H290.152V64.5185H286.292V59.8059H290.152V56.322C290.152 52.148 293.045 49.8759 296.77 49.8759C298.552 49.8759 300.47 50.0105 300.915 50.0694V54.4285H297.947C295.92 54.4285 295.534 55.3879 295.534 56.8017V59.8059H300.36L299.73 64.5185H295.534V77.3097H304.514C304.987 77.3095 305.44 77.1214 305.775 76.7869C306.109 76.4524 306.297 75.9987 306.297 75.5257V46.779C306.297 46.3059 306.109 45.8523 305.775 45.5178C305.44 45.1833 304.987 44.9952 304.514 44.995Z" fill="#3F3D56"/>
<path d="M308.136 164.655C309.919 164.66 311.627 165.371 312.887 166.633C314.148 167.894 314.858 169.604 314.863 171.387V184.852C314.858 186.636 314.148 188.345 312.887 189.606C311.627 190.868 309.919 191.579 308.136 191.584H294.682C292.9 191.579 291.192 190.868 289.931 189.606C288.671 188.345 287.96 186.636 287.955 184.852V171.387C287.96 169.604 288.671 167.894 289.931 166.633C291.192 165.371 292.9 164.66 294.682 164.655H308.136ZM308.136 161.962H294.682C292.187 161.97 289.795 162.965 288.031 164.731C286.266 166.497 285.271 168.89 285.264 171.387V184.852C285.271 187.349 286.266 189.742 288.031 191.508C289.795 193.274 292.187 194.27 294.682 194.277H308.136C310.632 194.27 313.023 193.274 314.788 191.508C316.552 189.742 317.547 187.349 317.554 184.852V171.387C317.547 168.89 316.552 166.497 314.788 164.731C313.023 162.965 310.632 161.97 308.136 161.962Z" fill="#3F3D56"/>
<path d="M310.154 171.387C309.755 171.387 309.365 171.269 309.033 171.047C308.701 170.825 308.442 170.51 308.29 170.141C308.137 169.772 308.097 169.365 308.175 168.974C308.253 168.582 308.445 168.222 308.727 167.94C309.009 167.657 309.369 167.465 309.761 167.387C310.152 167.309 310.558 167.349 310.927 167.502C311.295 167.655 311.61 167.913 311.832 168.246C312.054 168.578 312.172 168.968 312.172 169.368C312.173 169.633 312.121 169.896 312.02 170.141C311.919 170.387 311.77 170.61 311.583 170.797C311.395 170.985 311.172 171.134 310.927 171.235C310.682 171.336 310.419 171.388 310.154 171.387ZM301.409 172.734C302.473 172.734 303.514 173.05 304.399 173.641C305.284 174.233 305.974 175.074 306.381 176.059C306.788 177.043 306.895 178.126 306.687 179.17C306.48 180.215 305.967 181.175 305.214 181.928C304.462 182.681 303.503 183.194 302.459 183.402C301.415 183.61 300.333 183.503 299.35 183.095C298.366 182.688 297.526 181.997 296.934 181.112C296.343 180.226 296.027 179.185 296.027 178.12C296.029 176.692 296.596 175.322 297.605 174.313C298.614 173.303 299.982 172.735 301.409 172.734ZM301.409 170.041C299.812 170.041 298.252 170.515 296.924 171.402C295.597 172.29 294.562 173.552 293.951 175.028C293.34 176.504 293.18 178.129 293.492 179.696C293.803 181.263 294.572 182.702 295.701 183.832C296.83 184.962 298.268 185.731 299.834 186.043C301.4 186.355 303.023 186.195 304.498 185.583C305.973 184.972 307.234 183.936 308.121 182.608C309.008 181.279 309.482 179.717 309.482 178.12C309.481 175.977 308.63 173.923 307.117 172.408C305.603 170.893 303.55 170.041 301.409 170.041Z" fill="#3F3D56"/>
<path d="M543.119 29.1327H516.177C515.831 29.116 515.484 29.1678 515.158 29.2853C514.832 29.4028 514.532 29.5837 514.276 29.8175C514.019 30.0512 513.812 30.3334 513.665 30.6477C513.518 30.9619 513.434 31.3022 513.419 31.6489V58.6704C513.438 59.3973 513.734 60.0895 514.247 60.6045C514.76 61.1195 515.451 61.4182 516.177 61.439H543.111C543.82 61.4112 544.489 61.1051 544.974 60.5868C545.459 60.0686 545.72 59.38 545.701 58.6704V31.6489C545.706 31.3112 545.643 30.9759 545.514 30.6636C545.386 30.3513 545.195 30.0686 544.953 29.833C544.711 29.5973 544.424 29.4136 544.108 29.2932C543.793 29.1728 543.456 29.1182 543.119 29.1327ZM523.426 56.0616H518.801V41.6715H523.426V56.0616ZM521.273 39.4835H521.239C520.574 39.479 519.937 39.2108 519.469 38.7376C519.001 38.2643 518.739 37.6247 518.742 36.9587C518.744 36.2928 519.01 35.6549 519.481 35.1848C519.952 34.7147 520.591 34.4508 521.256 34.4508C521.921 34.4508 522.56 34.7147 523.031 35.1848C523.502 35.6549 523.768 36.2928 523.771 36.9587C523.773 37.6247 523.511 38.2643 523.043 38.7376C522.575 39.2108 521.938 39.479 521.273 39.4835ZM540.327 56.0616H535.703V48.1933C535.703 46.3083 535.03 45.0208 533.356 45.0208C532.833 45.0252 532.324 45.1918 531.9 45.4978C531.475 45.8037 531.155 46.2339 530.985 46.7291C530.862 47.0946 530.808 47.4798 530.825 47.8651V56.0616H526.2V41.6715H530.825V43.6743C531.246 42.9453 531.856 42.3433 532.59 41.9316C533.324 41.5199 534.155 41.3138 534.996 41.3349C538.032 41.3349 540.327 43.3377 540.327 47.6548V56.0616Z" fill="#3F3D56"/>
<path d="M415.463 228.422C415.463 228.422 448.198 229.312 453.604 231.281C459.011 233.249 461.428 247.325 461.428 247.325L436.012 255.32L417.001 254.242L402.694 255.254L410.683 234.316L415.463 228.422Z" fill="#2F2E41"/>
<path d="M416.875 217.672C416.875 217.672 419.028 225.997 414.248 231.891C409.468 237.786 434.797 258.79 434.797 258.79L448.159 256.491C448.159 256.491 445.214 230.912 449.17 224.435C453.126 217.958 416.875 217.672 416.875 217.672Z" fill="#9F616A"/>
<path opacity="0.1" d="M416.875 217.672C416.875 217.672 419.028 225.997 414.248 231.891C409.468 237.786 434.797 258.79 434.797 258.79L448.159 256.491C448.159 256.491 445.214 230.912 449.17 224.435C453.126 217.958 416.875 217.672 416.875 217.672Z" fill="black"/>
<path d="M505.74 461.068L476.258 500.195L496.378 511.951L524.069 466.61L505.74 461.068Z" fill="#9F616A"/>
<path d="M485.06 500.855C485.06 500.855 474.203 488.23 474.687 491.045C475.17 493.861 466.962 517.735 474.599 520.044C482.236 522.354 547.728 528.479 548.629 521.078C549.53 513.677 529.091 508.497 529.091 508.497C529.091 508.497 516.949 496.819 514.257 498.006C511.564 499.194 485.06 500.855 485.06 500.855Z" fill="#2F2E41"/>
<path d="M499.125 498.435L522.674 538.585L540.454 528.281L516.707 495.411L499.125 498.435Z" fill="#9F616A"/>
<path d="M536.299 402.916L529.311 412.813C529.311 412.813 495.993 459.121 499.532 462.86C503.07 466.599 517.806 480.73 525.3 477.992C532.794 475.254 559.42 427.923 559.42 427.923L552.475 400.133L536.299 402.916Z" fill="#2F2E41"/>
<path d="M392.777 393.546C392.777 393.546 400.239 407.48 419.15 412.197C438.061 416.915 457.819 426.559 458.522 426.438C459.226 426.317 461.214 425.25 461.698 428.066C462.181 430.881 467.368 435.786 467.368 435.786C467.368 435.786 488.258 506.826 496.235 506.903C504.213 506.98 520.608 501.261 520.949 499.029C521.289 496.797 496.521 424.25 496.279 422.842L493.378 405.951C493.378 405.951 526.135 411.185 529.19 412.109C532.245 413.033 559.42 427.922 559.42 427.922C559.42 427.922 587.122 407.941 561.211 387.762C535.299 367.582 490.763 352.78 490.763 352.78L474.785 348.283L460.86 347.451L458.81 339.583L425.831 341.487L391.415 356.102L392.777 393.546Z" fill="#2F2E41"/>
<path d="M436.303 234.242C450.49 234.242 461.991 222.732 461.991 208.533C461.991 194.335 450.49 182.825 436.303 182.825C422.115 182.825 410.614 194.335 410.614 208.533C410.614 222.732 422.115 234.242 436.303 234.242Z" fill="#9F616A"/>
<path d="M413.062 229.197L416.151 228.665C416.151 228.665 421.732 250.168 438.995 253.72C438.995 253.72 447.513 243.508 447.149 241.785C446.786 240.062 453.895 230.868 457.675 236.015C461.456 241.161 456.753 331.82 459.928 333.448C463.104 335.075 469.917 336.802 464.434 342.817C458.95 348.833 437.171 356.926 432.347 354.133C427.523 351.34 417.666 327.675 413.403 319.713C409.139 311.751 402.315 284.665 402.315 284.665C402.315 284.665 393.601 255.007 398.963 248.288C404.326 241.568 413.062 229.197 413.062 229.197Z" fill="#D0CDE1"/>
<path d="M437.648 340.807C437.073 347.122 436.09 353.394 434.705 359.581C433.445 364.616 431.978 367.656 430.304 367.526C426.033 367.207 424.091 373.477 423.09 380.705C422.02 388.373 422.02 397.121 421.433 400.213C420.657 404.298 415.686 407.415 405.754 406.5C399.839 405.827 394.033 404.402 388.478 402.26C375.068 397.38 375.465 357.811 377.709 328.449C379.081 310.452 381.143 296.281 381.143 296.281C381.143 296.281 377.07 284.122 375.767 275.788C375.508 274.268 375.378 272.728 375.379 271.185C375.577 263.905 388.858 244.233 396.883 231.979C404.917 219.725 415.876 228.714 415.876 228.714L412.062 240.235C412.062 240.235 417.973 249.363 418.016 258.05C418.059 266.738 432.168 273.008 437.233 277.213C440.418 279.856 440.34 315.133 437.648 340.807Z" fill="#2F2E41"/>
<path d="M448.802 232.831C448.802 232.831 449.728 233.926 453.967 233.392C459.05 232.751 466.04 234.511 467.664 239.369C470.642 248.276 479.037 284.511 479.037 284.511C479.037 284.511 482.532 325.937 484.103 335.086C485.675 344.236 484.895 352.341 486.444 357.146C487.993 361.952 471.148 348.184 464.939 349.976C458.731 351.769 454.742 328.543 455.522 320.438C456.302 312.334 456.961 303.525 454.807 295.2C452.654 286.876 456.472 264.843 456.329 259.796C456.186 254.748 442.639 242.026 448.802 232.831Z" fill="#2F2E41"/>
<path d="M466.979 361.581C466.979 361.581 494.179 376.432 496.782 397.568C499.385 418.705 460.401 377.102 460.401 377.102L466.979 361.581Z" fill="#9F616A"/>
<path d="M482.506 346.592C482.506 346.592 490.84 388.635 503.824 386.401C516.807 384.168 496.571 344.173 496.571 344.173L482.506 346.592Z" fill="#9F616A"/>
<path d="M526.97 529.876C526.97 529.876 520.322 537.54 518.674 536.375C517.026 535.209 513.235 551.078 516.652 554.113C520.07 557.148 533.234 562.13 533.377 567.177C533.52 572.225 568.826 571.224 570.09 565.934C571.354 560.645 565.661 548.581 561.662 546.371C557.662 544.16 542.872 523.816 542.872 523.816C542.872 523.816 531.289 525.51 526.97 529.876Z" fill="#2F2E41"/>
<path opacity="0.1" d="M462.646 387.294C456.338 382.838 438.726 381.732 423.09 380.705C416.23 380.264 409.749 379.833 404.77 379.133C399.972 378.468 395.658 374.081 391.826 367.544C386.019 357.638 381.324 342.785 377.709 328.449C379.081 310.452 381.143 296.281 381.143 296.281C381.143 296.281 377.07 284.122 375.767 275.788C376.686 274.509 377.869 273.443 379.236 272.662C395.821 265.538 411.656 335.652 413.667 346.654C413.701 346.835 413.727 347.008 413.753 347.155C414.728 352.82 425.264 357.664 434.705 359.582C440.521 360.765 445.932 360.842 448.425 359.305C454.975 355.281 475.116 371.387 476.643 371.844C478.17 372.311 471.707 393.71 462.646 387.294Z" fill="black"/>
<path d="M379.239 268.346C379.239 268.346 367.184 274.043 372.481 300.666C377.777 327.29 388.448 372.553 404.766 374.819C421.084 377.084 453.577 376.567 462.643 382.978C471.708 389.389 478.17 367.989 476.642 367.527C475.115 367.065 454.972 350.966 448.423 354.991C441.874 359.016 415.326 351.989 413.754 342.839C412.183 333.69 396.095 261.099 379.239 268.346Z" fill="#2F2E41"/>
<path d="M466.104 255.578L479.352 286.343C479.352 286.343 480.686 285.677 482.235 290.483C483.785 295.288 484.51 299.511 487.224 302.667C489.938 305.823 502.015 350.845 502.377 352.956C502.74 355.068 485.698 362.347 481.89 356.48C478.082 350.614 466.104 255.578 466.104 255.578Z" fill="#2F2E41"/>
<path d="M421.687 208.176C422.672 207.913 422.816 206.604 422.849 205.585C423.026 200.127 426.31 194.526 431.531 192.937C433.534 192.387 435.632 192.272 437.683 192.598C440.612 192.989 443.439 193.933 446.015 195.38C447.375 196.145 448.709 197.067 450.251 197.3C451.27 197.455 455.68 198.738 456.695 198.919C458.925 199.316 460.997 201.312 463.137 200.569C465.184 199.858 465.637 197.206 465.687 195.038C465.799 190.099 462.053 183.262 458.753 179.588C456.248 176.8 452.477 175.513 448.791 174.843C444.485 174.151 440.122 173.885 435.764 174.05C429.865 174.155 423.802 174.611 418.483 177.165C413.163 179.72 408.695 184.804 408.44 190.703C408.387 191.932 408.514 193.166 408.411 194.391C408.159 197.381 406.572 200.082 405.828 202.988C405.296 205.121 405.216 207.342 405.595 209.507C405.973 211.672 406.8 213.734 408.023 215.56C409.997 218.467 413.1 221.097 412.986 224.61L417.267 220.172C417.906 219.684 418.359 218.99 418.549 218.208C418.739 217.426 418.656 216.602 418.312 215.874L416.797 209.96C416.407 208.904 416.362 207.752 416.666 206.668C418.29 202.652 420.046 208.614 421.687 208.176Z" fill="#2F2E41"/>
<path d="M226.175 383.776C226.175 465.74 177.486 494.359 117.425 494.359C57.3636 494.359 8.67432 465.74 8.67432 383.776C8.67432 301.812 117.425 197.541 117.425 197.541C117.425 197.541 226.175 301.812 226.175 383.776Z" fill="#F2F2F2"/>
<path d="M113.463 481.821L114.577 413.225L160.929 328.361L114.752 402.464L115.252 371.62L147.198 310.222L115.385 363.458L116.285 307.984L150.494 259.104L116.427 299.261L116.99 197.541L113.454 332.199L113.744 326.644L78.9643 273.368L113.186 337.308L109.946 399.263L109.849 397.619L69.7544 341.553L109.728 403.428L109.323 411.176L109.25 411.292L109.283 411.928L101.061 569.114H112.046L113.364 487.924L153.239 426.201L113.463 481.821Z" fill="#3F3D56"/>
</g>
<defs>
<linearGradient id="paint0_linear" x1="1259.87" y1="312.73" x2="-4.38597e-06" y2="312.73" gradientUnits="userSpaceOnUse">
<stop stop-color="#6344E2"/>
<stop offset="1" stop-color="#5992F1"/>
</linearGradient>
<clipPath id="clip0">
<rect width="654" height="552" fill="white" transform="translate(0 21)"/>
</clipPath>
</defs>
</svg>
