<svg width="774" height="625" viewBox="0 0 774 625" fill="none" xmlns="http://www.w3.org/2000/svg">
<path d="M700.591 614.966C837.993 588.462 751.448 490.293 691 444.521C639.126 420.691 553.86 355.942 627.792 287.59C701.724 219.237 676.906 133.564 655.255 99.272C627.792 68.6123 550.547 5.89782 461.27 0.318038C371.994 -5.26174 318.579 63.9624 303.031 99.272L231.54 228.74C-0.718135 218.976 -14.6095 352.833 7.47716 420.981C34.9622 505.787 283.78 514.982 364.675 576.294C370.612 580.794 376.722 585.094 383.706 587.685C442.018 609.31 571.611 639.845 700.591 614.966Z" fill="url(#paint0_linear)" fill-opacity="0.72"/>
<path d="M668.768 516.012C737.818 495.088 611.517 391.92 539.736 342.952C124.74 159.167 11.1096 266.375 6.16919 342.952C107.651 334.233 283.851 429.118 359.265 477.651C433.662 499.156 599.718 536.936 668.768 516.012Z" fill="white" fill-opacity="0.07"/>
<path d="M561.174 601.452C678 587.154 618.861 490.002 574.687 443.213L586.021 103.195C569.892 84.0148 513.746 46.4385 418.192 49.5771C322.638 52.7157 267.363 280.179 251.67 393.518C306.16 468.787 444.347 615.751 561.174 601.452Z" fill="white" fill-opacity="0.1"/>
<defs>
<linearGradient id="paint0_linear" x1="387" y1="0" x2="387" y2="624.268" gradientUnits="userSpaceOnUse">
<stop stop-color="#6C63FF"/>
<stop offset="1" stop-color="#5992F1"/>
</linearGradient>
</defs>
</svg>
