<svg width="237" height="55" viewBox="0 0 237 55" fill="none" xmlns="http://www.w3.org/2000/svg">
<g filter="url(#filter0_d)">
<path d="M60.85 37.24C58.05 37.24 55.87 36.44 54.31 34.84C52.75 33.24 51.97 30.94 51.97 27.94V16H54.97V27.82C54.97 32.32 56.94 34.57 60.88 34.57C62.8 34.57 64.27 34.02 65.29 32.92C66.31 31.8 66.82 30.1 66.82 27.82V16H69.73V27.94C69.73 30.96 68.95 33.27 67.39 34.87C65.83 36.45 63.65 37.24 60.85 37.24ZM83.8905 20.95C85.4305 20.95 86.8105 21.29 88.0305 21.97C89.2505 22.65 90.2005 23.6 90.8805 24.82C91.5805 26.04 91.9305 27.45 91.9305 29.05C91.9305 30.65 91.5805 32.07 90.8805 33.31C90.2005 34.53 89.2505 35.48 88.0305 36.16C86.8105 36.84 85.4305 37.18 83.8905 37.18C82.7505 37.18 81.7005 36.96 80.7405 36.52C79.8005 36.08 79.0005 35.44 78.3405 34.6V42.82H75.4605V21.1H78.2205V23.62C78.8605 22.74 79.6705 22.08 80.6505 21.64C81.6305 21.18 82.7105 20.95 83.8905 20.95ZM83.6505 34.66C84.6705 34.66 85.5805 34.43 86.3805 33.97C87.2005 33.49 87.8405 32.83 88.3005 31.99C88.7805 31.13 89.0205 30.15 89.0205 29.05C89.0205 27.95 88.7805 26.98 88.3005 26.14C87.8405 25.28 87.2005 24.62 86.3805 24.16C85.5805 23.7 84.6705 23.47 83.6505 23.47C82.6505 23.47 81.7405 23.71 80.9205 24.19C80.1205 24.65 79.4805 25.3 79.0005 26.14C78.5405 26.98 78.3105 27.95 78.3105 29.05C78.3105 30.15 78.5405 31.13 79.0005 31.99C79.4605 32.83 80.1005 33.49 80.9205 33.97C81.7405 34.43 82.6505 34.66 83.6505 34.66ZM110.91 14.74V37H108.15V34.48C107.51 35.36 106.7 36.03 105.72 36.49C104.74 36.95 103.66 37.18 102.48 37.18C100.94 37.18 99.5597 36.84 98.3397 36.16C97.1197 35.48 96.1597 34.53 95.4597 33.31C94.7797 32.07 94.4397 30.65 94.4397 29.05C94.4397 27.45 94.7797 26.04 95.4597 24.82C96.1597 23.6 97.1197 22.65 98.3397 21.97C99.5597 21.29 100.94 20.95 102.48 20.95C103.62 20.95 104.67 21.17 105.63 21.61C106.59 22.03 107.39 22.66 108.03 23.5V14.74H110.91ZM102.72 34.66C103.72 34.66 104.63 34.43 105.45 33.97C106.27 33.49 106.91 32.83 107.37 31.99C107.83 31.13 108.06 30.15 108.06 29.05C108.06 27.95 107.83 26.98 107.37 26.14C106.91 25.28 106.27 24.62 105.45 24.16C104.63 23.7 103.72 23.47 102.72 23.47C101.7 23.47 100.78 23.7 99.9597 24.16C99.1597 24.62 98.5197 25.28 98.0397 26.14C97.5797 26.98 97.3497 27.95 97.3497 29.05C97.3497 30.15 97.5797 31.13 98.0397 31.99C98.5197 32.83 99.1597 33.49 99.9597 33.97C100.78 34.43 101.7 34.66 102.72 34.66ZM122.149 20.95C124.349 20.95 126.029 21.49 127.189 22.57C128.369 23.65 128.959 25.26 128.959 27.4V37H126.229V34.9C125.749 35.64 125.059 36.21 124.159 36.61C123.279 36.99 122.229 37.18 121.009 37.18C119.229 37.18 117.799 36.75 116.719 35.89C115.659 35.03 115.129 33.9 115.129 32.5C115.129 31.1 115.639 29.98 116.659 29.14C117.679 28.28 119.299 27.85 121.519 27.85H126.079V27.28C126.079 26.04 125.719 25.09 124.999 24.43C124.279 23.77 123.219 23.44 121.819 23.44C120.879 23.44 119.959 23.6 119.059 23.92C118.159 24.22 117.399 24.63 116.779 25.15L115.579 22.99C116.399 22.33 117.379 21.83 118.519 21.49C119.659 21.13 120.869 20.95 122.149 20.95ZM121.489 34.96C122.589 34.96 123.539 34.72 124.339 34.24C125.139 33.74 125.719 33.04 126.079 32.14V29.92H121.639C119.199 29.92 117.979 30.74 117.979 32.38C117.979 33.18 118.289 33.81 118.909 34.27C119.529 34.73 120.389 34.96 121.489 34.96ZM143.229 36.07C142.809 36.43 142.289 36.71 141.669 36.91C141.049 37.09 140.409 37.18 139.749 37.18C138.149 37.18 136.909 36.75 136.029 35.89C135.149 35.03 134.709 33.8 134.709 32.2V23.47H132.009V21.1H134.709V17.62H137.589V21.1H142.149V23.47H137.589V32.08C137.589 32.94 137.799 33.6 138.219 34.06C138.659 34.52 139.279 34.75 140.079 34.75C140.959 34.75 141.709 34.5 142.329 34L143.229 36.07ZM160.553 29.14C160.553 29.36 160.533 29.65 160.493 30.01H147.593C147.773 31.41 148.383 32.54 149.423 33.4C150.483 34.24 151.793 34.66 153.353 34.66C155.253 34.66 156.783 34.02 157.943 32.74L159.533 34.6C158.813 35.44 157.913 36.08 156.833 36.52C155.773 36.96 154.583 37.18 153.263 37.18C151.583 37.18 150.093 36.84 148.793 36.16C147.493 35.46 146.483 34.49 145.763 33.25C145.063 32.01 144.713 30.61 144.713 29.05C144.713 27.51 145.053 26.12 145.733 24.88C146.433 23.64 147.383 22.68 148.583 22C149.803 21.3 151.173 20.95 152.693 20.95C154.213 20.95 155.563 21.3 156.743 22C157.943 22.68 158.873 23.64 159.533 24.88C160.213 26.12 160.553 27.54 160.553 29.14ZM152.693 23.38C151.313 23.38 150.153 23.8 149.213 24.64C148.293 25.48 147.753 26.58 147.593 27.94H157.793C157.633 26.6 157.083 25.51 156.143 24.67C155.223 23.81 154.073 23.38 152.693 23.38Z" fill="white"/>
<path d="M182.858 37.36C180.718 37.36 178.778 36.9 177.038 35.98C175.318 35.04 173.958 33.75 172.958 32.11C171.978 30.45 171.488 28.58 171.488 26.5C171.488 24.42 171.978 22.56 172.958 20.92C173.958 19.26 175.318 17.97 177.038 17.05C178.778 16.11 180.728 15.64 182.888 15.64C184.708 15.64 186.348 15.96 187.808 16.6C189.288 17.24 190.528 18.16 191.528 19.36L188.408 22.24C186.988 20.6 185.228 19.78 183.128 19.78C181.828 19.78 180.668 20.07 179.648 20.65C178.628 21.21 177.828 22 177.248 23.02C176.688 24.04 176.408 25.2 176.408 26.5C176.408 27.8 176.688 28.96 177.248 29.98C177.828 31 178.628 31.8 179.648 32.38C180.668 32.94 181.828 33.22 183.128 33.22C185.228 33.22 186.988 32.39 188.408 30.73L191.528 33.61C190.528 34.83 189.288 35.76 187.808 36.4C186.328 37.04 184.678 37.36 182.858 37.36ZM201.883 16V37H197.023V19.9H192.823V16H201.883ZM212.911 15.64C215.851 15.64 218.151 16.54 219.811 18.34C221.471 20.12 222.301 22.69 222.301 26.05C222.301 28.43 221.851 30.47 220.951 32.17C220.071 33.87 218.821 35.16 217.201 36.04C215.581 36.92 213.711 37.36 211.591 37.36C210.471 37.36 209.401 37.24 208.381 37C207.361 36.74 206.491 36.38 205.771 35.92L207.571 32.35C208.591 33.05 209.901 33.4 211.501 33.4C213.281 33.4 214.691 32.88 215.731 31.84C216.771 30.78 217.331 29.26 217.411 27.28C216.151 28.54 214.411 29.17 212.191 29.17C210.851 29.17 209.631 28.9 208.531 28.36C207.431 27.82 206.561 27.06 205.921 26.08C205.281 25.08 204.961 23.93 204.961 22.63C204.961 21.23 205.311 20 206.011 18.94C206.711 17.88 207.661 17.07 208.861 16.51C210.081 15.93 211.431 15.64 212.911 15.64ZM213.271 25.54C214.331 25.54 215.191 25.25 215.851 24.67C216.531 24.07 216.871 23.31 216.871 22.39C216.871 21.47 216.541 20.72 215.881 20.14C215.241 19.56 214.351 19.27 213.211 19.27C212.171 19.27 211.321 19.55 210.661 20.11C210.021 20.67 209.701 21.43 209.701 22.39C209.701 23.35 210.021 24.12 210.661 24.7C211.321 25.26 212.191 25.54 213.271 25.54Z" fill="#FFFAFA"/>
<path d="M39.1275 23.5C39.1275 35.7331 30.9363 45 21.5638 45C12.1912 45 4 35.7331 4 23.5C4 11.2669 12.1912 2 21.5638 2C30.9363 2 39.1275 11.2669 39.1275 23.5Z" fill="white" stroke="white" stroke-width="4"/>
<path d="M21.6154 36.42C18.4954 36.42 16.0654 35.57 14.3254 33.87C12.6054 32.17 11.7454 29.76 11.7454 26.64V15H17.6854V26.46C17.6854 29.82 19.0154 31.5 21.6754 31.5C24.3154 31.5 25.6354 29.82 25.6354 26.46V15H31.4854V26.64C31.4854 29.76 30.6154 32.17 28.8754 33.87C27.1554 35.57 24.7354 36.42 21.6154 36.42Z" fill="url(#paint0_linear)"/>
</g>
<defs>
<filter id="filter0_d" x="0" y="0" width="228.301" height="55" filterUnits="userSpaceOnUse" color-interpolation-filters="sRGB">
<feFlood flood-opacity="0" result="BackgroundImageFix"/>
<feColorMatrix in="SourceAlpha" type="matrix" values="0 0 0 0 0 0 0 0 0 0 0 0 0 0 0 0 0 0 127 0"/>
<feOffset dx="2" dy="4"/>
<feGaussianBlur stdDeviation="2"/>
<feColorMatrix type="matrix" values="0 0 0 0 0 0 0 0 0 0 0 0 0 0 0 0 0 0 0.3 0"/>
<feBlend mode="normal" in2="BackgroundImageFix" result="effect1_dropShadow"/>
<feBlend mode="normal" in="SourceGraphic" in2="effect1_dropShadow" result="shape"/>
</filter>
<linearGradient id="paint0_linear" x1="9.82544" y1="7" x2="30.5388" y2="41.0988" gradientUnits="userSpaceOnUse">
<stop stop-color="#6344E2"/>
<stop offset="0.447917" stop-color="#624FE4"/>
<stop offset="0.614583" stop-color="#5D76EC"/>
<stop offset="1" stop-color="#5992F1"/>
</linearGradient>
</defs>
</svg>
